<svg width="807" height="228" viewBox="0 0 807 228" fill="none" xmlns="http://www.w3.org/2000/svg">
<g filter="url(#filter0_d)">
<path d="M33 17H441C460.33 17 476 32.67 476 52V168C476 187.33 460.33 203 441 203H68C48.67 203 33 187.33 33 168V17Z" fill="#A0A8C8"/>
</g>
<path d="M105.344 86.6875C104.885 91.5417 103.094 95.3333 99.9688 98.0625C96.8438 100.771 92.6875 102.125 87.5 102.125C83.875 102.125 80.6771 101.271 77.9062 99.5625C75.1562 97.8333 73.0312 95.3854 71.5312 92.2188C70.0312 89.0521 69.25 85.375 69.1875 81.1875V76.9375C69.1875 72.6458 69.9479 68.8646 71.4688 65.5938C72.9896 62.3229 75.1667 59.8021 78 58.0312C80.8542 56.2604 84.1458 55.375 87.875 55.375C92.8958 55.375 96.9375 56.7396 100 59.4688C103.062 62.1979 104.844 66.0521 105.344 71.0312H97.4688C97.0938 67.7604 96.1354 65.4062 94.5938 63.9688C93.0729 62.5104 90.8333 61.7812 87.875 61.7812C84.4375 61.7812 81.7917 63.0417 79.9375 65.5625C78.1042 68.0625 77.1667 71.7396 77.125 76.5938V80.625C77.125 85.5417 78 89.2917 79.75 91.875C81.5208 94.4583 84.1042 95.75 87.5 95.75C90.6042 95.75 92.9375 95.0521 94.5 93.6562C96.0625 92.2604 97.0521 89.9375 97.4688 86.6875H105.344ZM132.866 101.5C132.533 100.854 132.241 99.8021 131.991 98.3438C129.575 100.865 126.616 102.125 123.116 102.125C119.72 102.125 116.95 101.156 114.804 99.2188C112.658 97.2812 111.585 94.8854 111.585 92.0312C111.585 88.4271 112.918 85.6667 115.585 83.75C118.272 81.8125 122.106 80.8438 127.085 80.8438H131.741V78.625C131.741 76.875 131.252 75.4792 130.272 74.4375C129.293 73.375 127.804 72.8438 125.804 72.8438C124.075 72.8438 122.658 73.2812 121.554 74.1562C120.45 75.0104 119.897 76.1042 119.897 77.4375H112.304C112.304 75.5833 112.918 73.8542 114.147 72.25C115.377 70.625 117.043 69.3542 119.147 68.4375C121.272 67.5208 123.637 67.0625 126.241 67.0625C130.2 67.0625 133.356 68.0625 135.71 70.0625C138.064 72.0417 139.272 74.8333 139.335 78.4375V93.6875C139.335 96.7292 139.762 99.1562 140.616 100.969V101.5H132.866ZM124.522 96.0312C126.022 96.0312 127.429 95.6667 128.741 94.9375C130.075 94.2083 131.075 93.2292 131.741 92V85.625H127.647C124.835 85.625 122.72 86.1146 121.304 87.0938C119.887 88.0729 119.179 89.4583 119.179 91.25C119.179 92.7083 119.658 93.875 120.616 94.75C121.595 95.6042 122.897 96.0312 124.522 96.0312ZM177.857 84.9375C177.857 90.1667 176.67 94.3438 174.295 97.4688C171.92 100.573 168.732 102.125 164.732 102.125C161.024 102.125 158.055 100.906 155.826 98.4688V114.5H148.232V67.6875H155.232L155.545 71.125C157.774 68.4167 160.805 67.0625 164.639 67.0625C168.764 67.0625 171.993 68.6042 174.326 71.6875C176.68 74.75 177.857 79.0104 177.857 84.4688V84.9375ZM170.295 84.2812C170.295 80.9062 169.618 78.2292 168.264 76.25C166.93 74.2708 165.014 73.2812 162.514 73.2812C159.41 73.2812 157.18 74.5625 155.826 77.125V92.125C157.201 94.75 159.451 96.0625 162.576 96.0625C164.993 96.0625 166.878 95.0938 168.232 93.1562C169.607 91.1979 170.295 88.2396 170.295 84.2812ZM194.786 59.4688V67.6875H200.755V73.3125H194.786V92.1875C194.786 93.4792 195.036 94.4167 195.536 95C196.057 95.5625 196.974 95.8438 198.286 95.8438C199.161 95.8438 200.047 95.7396 200.942 95.5312V101.406C199.213 101.885 197.547 102.125 195.942 102.125C190.109 102.125 187.192 98.9062 187.192 92.4688V73.3125H181.63V67.6875H187.192V59.4688H194.786ZM228.027 98.1875C225.798 100.812 222.632 102.125 218.527 102.125C214.861 102.125 212.08 101.052 210.184 98.9062C208.309 96.7604 207.371 93.6562 207.371 89.5938V67.6875H214.965V89.5C214.965 93.7917 216.746 95.9375 220.309 95.9375C223.996 95.9375 226.486 94.6146 227.777 91.9688V67.6875H235.371V101.5H228.215L228.027 98.1875ZM261.769 74.625C260.769 74.4583 259.738 74.375 258.675 74.375C255.196 74.375 252.852 75.7083 251.644 78.375V101.5H244.05V67.6875H251.3L251.488 71.4688C253.321 68.5312 255.863 67.0625 259.113 67.0625C260.196 67.0625 261.092 67.2083 261.8 67.5L261.769 74.625ZM286.791 101.5C286.458 100.854 286.166 99.8021 285.916 98.3438C283.5 100.865 280.541 102.125 277.041 102.125C273.645 102.125 270.875 101.156 268.729 99.2188C266.583 97.2812 265.51 94.8854 265.51 92.0312C265.51 88.4271 266.843 85.6667 269.51 83.75C272.197 81.8125 276.031 80.8438 281.01 80.8438H285.666V78.625C285.666 76.875 285.177 75.4792 284.197 74.4375C283.218 73.375 281.729 72.8438 279.729 72.8438C278 72.8438 276.583 73.2812 275.479 74.1562C274.375 75.0104 273.822 76.1042 273.822 77.4375H266.229C266.229 75.5833 266.843 73.8542 268.072 72.25C269.302 70.625 270.968 69.3542 273.072 68.4375C275.197 67.5208 277.562 67.0625 280.166 67.0625C284.125 67.0625 287.281 68.0625 289.635 70.0625C291.989 72.0417 293.197 74.8333 293.26 78.4375V93.6875C293.26 96.7292 293.687 99.1562 294.541 100.969V101.5H286.791ZM278.447 96.0312C279.947 96.0312 281.354 95.6667 282.666 94.9375C284 94.2083 285 93.2292 285.666 92V85.625H281.572C278.76 85.625 276.645 86.1146 275.229 87.0938C273.812 88.0729 273.104 89.4583 273.104 91.25C273.104 92.7083 273.583 93.875 274.541 94.75C275.52 95.6042 276.822 96.0312 278.447 96.0312ZM319.876 74.625C318.876 74.4583 317.845 74.375 316.783 74.375C313.303 74.375 310.96 75.7083 309.751 78.375V101.5H302.158V67.6875H309.408L309.595 71.4688C311.428 68.5312 313.97 67.0625 317.22 67.0625C318.303 67.0625 319.199 67.2083 319.908 67.5L319.876 74.625ZM77.0312 127.688L77.25 131.219C79.625 128.448 82.875 127.062 87 127.062C91.5208 127.062 94.6146 128.792 96.2812 132.25C98.7396 128.792 102.198 127.062 106.656 127.062C110.385 127.062 113.156 128.094 114.969 130.156C116.802 132.219 117.74 135.26 117.781 139.281V161.5H110.188V139.5C110.188 137.354 109.719 135.781 108.781 134.781C107.844 133.781 106.292 133.281 104.125 133.281C102.396 133.281 100.979 133.75 99.875 134.688C98.7917 135.604 98.0312 136.812 97.5938 138.312L97.625 161.5H90.0312V139.25C89.9271 135.271 87.8958 133.281 83.9375 133.281C80.8958 133.281 78.7396 134.521 77.4688 137V161.5H69.875V127.688H77.0312ZM125.116 144.281C125.116 140.969 125.772 137.99 127.085 135.344C128.397 132.677 130.241 130.635 132.616 129.219C134.991 127.781 137.72 127.062 140.804 127.062C145.366 127.062 149.064 128.531 151.897 131.469C154.752 134.406 156.293 138.302 156.522 143.156L156.554 144.938C156.554 148.271 155.908 151.25 154.616 153.875C153.345 156.5 151.512 158.531 149.116 159.969C146.741 161.406 143.991 162.125 140.866 162.125C136.095 162.125 132.272 160.542 129.397 157.375C126.543 154.188 125.116 149.948 125.116 144.656V144.281ZM132.71 144.938C132.71 148.417 133.429 151.146 134.866 153.125C136.304 155.083 138.304 156.062 140.866 156.062C143.429 156.062 145.418 155.062 146.835 153.062C148.272 151.062 148.991 148.135 148.991 144.281C148.991 140.865 148.252 138.156 146.772 136.156C145.314 134.156 143.325 133.156 140.804 133.156C138.325 133.156 136.356 134.146 134.897 136.125C133.439 138.083 132.71 141.021 132.71 144.938ZM171.076 127.688L171.295 131.219C173.67 128.448 176.92 127.062 181.045 127.062C185.566 127.062 188.66 128.792 190.326 132.25C192.785 128.792 196.243 127.062 200.701 127.062C204.43 127.062 207.201 128.094 209.014 130.156C210.847 132.219 211.785 135.26 211.826 139.281V161.5H204.232V139.5C204.232 137.354 203.764 135.781 202.826 134.781C201.889 133.781 200.337 133.281 198.17 133.281C196.441 133.281 195.024 133.75 193.92 134.688C192.837 135.604 192.076 136.812 191.639 138.312L191.67 161.5H184.076V139.25C183.972 135.271 181.941 133.281 177.982 133.281C174.941 133.281 172.785 134.521 171.514 137V161.5H163.92V127.688H171.076ZM235.474 162.125C230.661 162.125 226.755 160.615 223.755 157.594C220.776 154.552 219.286 150.51 219.286 145.469V144.531C219.286 141.156 219.932 138.146 221.224 135.5C222.536 132.833 224.37 130.76 226.724 129.281C229.078 127.802 231.703 127.062 234.599 127.062C239.203 127.062 242.755 128.531 245.255 131.469C247.776 134.406 249.036 138.562 249.036 143.938V147H226.943C227.172 149.792 228.099 152 229.724 153.625C231.37 155.25 233.432 156.062 235.911 156.062C239.39 156.062 242.224 154.656 244.411 151.844L248.505 155.75C247.151 157.771 245.338 159.344 243.068 160.469C240.818 161.573 238.286 162.125 235.474 162.125ZM234.568 133.156C232.484 133.156 230.797 133.885 229.505 135.344C228.234 136.802 227.422 138.833 227.068 141.438H241.536V140.875C241.37 138.333 240.693 136.417 239.505 135.125C238.318 133.812 236.672 133.156 234.568 133.156ZM262.965 127.688L263.184 131.594C265.684 128.573 268.965 127.062 273.027 127.062C280.069 127.062 283.652 131.094 283.777 139.156V161.5H276.184V139.594C276.184 137.448 275.715 135.865 274.777 134.844C273.861 133.802 272.35 133.281 270.246 133.281C267.184 133.281 264.902 134.667 263.402 137.438V161.5H255.809V127.688H262.965ZM302.019 119.469V127.688H307.988V133.312H302.019V152.188C302.019 153.479 302.269 154.417 302.769 155C303.29 155.562 304.206 155.844 305.519 155.844C306.394 155.844 307.279 155.74 308.175 155.531V161.406C306.446 161.885 304.779 162.125 303.175 162.125C297.342 162.125 294.425 158.906 294.425 152.469V133.312H288.863V127.688H294.425V119.469H302.019ZM312.416 144.281C312.416 140.969 313.072 137.99 314.385 135.344C315.697 132.677 317.541 130.635 319.916 129.219C322.291 127.781 325.02 127.062 328.104 127.062C332.666 127.062 336.364 128.531 339.197 131.469C342.052 134.406 343.593 138.302 343.822 143.156L343.854 144.938C343.854 148.271 343.208 151.25 341.916 153.875C340.645 156.5 338.812 158.531 336.416 159.969C334.041 161.406 331.291 162.125 328.166 162.125C323.395 162.125 319.572 160.542 316.697 157.375C313.843 154.188 312.416 149.948 312.416 144.656V144.281ZM320.01 144.938C320.01 148.417 320.729 151.146 322.166 153.125C323.604 155.083 325.604 156.062 328.166 156.062C330.729 156.062 332.718 155.062 334.135 153.062C335.572 151.062 336.291 148.135 336.291 144.281C336.291 140.865 335.552 138.156 334.072 136.156C332.614 134.156 330.625 133.156 328.104 133.156C325.625 133.156 323.656 134.146 322.197 136.125C320.739 138.083 320.01 141.021 320.01 144.938ZM370.189 152.312C370.189 150.958 369.626 149.927 368.501 149.219C367.397 148.51 365.553 147.885 362.97 147.344C360.387 146.802 358.23 146.115 356.501 145.281C352.71 143.448 350.814 140.792 350.814 137.312C350.814 134.396 352.043 131.958 354.501 130C356.96 128.042 360.085 127.062 363.876 127.062C367.918 127.062 371.178 128.062 373.658 130.062C376.158 132.062 377.408 134.656 377.408 137.844H369.814C369.814 136.385 369.272 135.177 368.189 134.219C367.105 133.24 365.668 132.75 363.876 132.75C362.21 132.75 360.845 133.135 359.783 133.906C358.741 134.677 358.22 135.708 358.22 137C358.22 138.167 358.71 139.073 359.689 139.719C360.668 140.365 362.647 141.021 365.626 141.688C368.605 142.333 370.939 143.115 372.626 144.031C374.335 144.927 375.595 146.01 376.408 147.281C377.241 148.552 377.658 150.094 377.658 151.906C377.658 154.948 376.397 157.417 373.876 159.312C371.355 161.188 368.053 162.125 363.97 162.125C361.199 162.125 358.73 161.625 356.564 160.625C354.397 159.625 352.71 158.25 351.501 156.5C350.293 154.75 349.689 152.865 349.689 150.844H357.064C357.168 152.635 357.845 154.021 359.095 155C360.345 155.958 362.001 156.438 364.064 156.438C366.064 156.438 367.585 156.062 368.626 155.312C369.668 154.542 370.189 153.542 370.189 152.312Z" fill="#3A415D"/>
<path d="M105.344 86.6875L106.339 86.7815L106.443 85.6875H105.344V86.6875ZM99.9688 98.0625L100.624 98.8182L100.627 98.8157L99.9688 98.0625ZM77.9062 99.5625L77.3739 100.409L77.3814 100.414L77.9062 99.5625ZM69.1875 81.1875H68.1875V81.195L68.1876 81.2024L69.1875 81.1875ZM78 58.0312L77.4728 57.1815L77.47 57.1833L78 58.0312ZM105.344 71.0312V72.0312H106.449L106.339 70.9313L105.344 71.0312ZM97.4688 71.0312L96.4753 71.1452L96.5768 72.0312H97.4688V71.0312ZM94.5938 63.9688L93.9016 64.6906L93.9118 64.7001L94.5938 63.9688ZM79.9375 65.5625L79.1319 64.97L79.1311 64.9711L79.9375 65.5625ZM77.125 76.5938L76.125 76.5852V76.5938H77.125ZM79.75 91.875L78.9221 92.4359L78.9252 92.4404L79.75 91.875ZM97.4688 86.6875V85.6875H96.5888L96.4769 86.5603L97.4688 86.6875ZM104.348 86.5935C103.909 91.2405 102.21 94.7776 99.311 97.3093L100.627 98.8157C103.978 95.8891 105.861 91.8428 106.339 86.7815L104.348 86.5935ZM99.3138 97.3068C96.4133 99.8206 92.5101 101.125 87.5 101.125V103.125C92.8649 103.125 97.2742 101.721 100.624 98.8182L99.3138 97.3068ZM87.5 101.125C84.0387 101.125 81.0266 100.312 78.4311 98.7113L77.3814 100.414C80.3275 102.23 83.7113 103.125 87.5 103.125V101.125ZM78.4386 98.7159C75.8624 97.0961 73.8602 94.7994 72.435 91.7907L70.6275 92.6468C72.2023 95.9714 74.4501 98.5706 77.3739 100.409L78.4386 98.7159ZM72.435 91.7907C71.007 88.776 70.2482 85.2446 70.1874 81.1726L68.1876 81.2024C68.2518 85.5054 69.0555 89.3282 70.6275 92.6468L72.435 91.7907ZM70.1875 81.1875V76.9375H68.1875V81.1875H70.1875ZM70.1875 76.9375C70.1875 72.7642 70.9267 69.1314 72.3755 66.0154L70.562 65.1721C68.9692 68.5977 68.1875 72.5275 68.1875 76.9375H70.1875ZM72.3755 66.0154C73.8215 62.9056 75.874 60.5392 78.53 58.8792L77.47 57.1833C74.4593 59.0649 72.1577 61.7403 70.562 65.1721L72.3755 66.0154ZM78.5272 58.881C81.206 57.219 84.311 56.375 87.875 56.375V54.375C83.9807 54.375 80.5023 55.3019 77.4728 57.1815L78.5272 58.881ZM87.875 56.375C92.7079 56.375 96.4941 57.6839 99.3347 60.2153L100.665 58.7222C97.3809 55.7952 93.0837 54.375 87.875 54.375V56.375ZM99.3347 60.2153C102.171 62.7429 103.868 66.3436 104.349 71.1312L106.339 70.9313C105.82 65.7605 103.954 61.6529 100.665 58.7222L99.3347 60.2153ZM105.344 70.0312H97.4688V72.0312H105.344V70.0312ZM98.4622 70.9173C98.0746 67.5364 97.0659 64.9066 95.2757 63.2374L93.9118 64.7001C95.2049 65.9059 96.1129 67.9845 96.4753 71.1452L98.4622 70.9173ZM95.2859 63.247C93.5148 61.5487 90.9863 60.7812 87.875 60.7812V62.7812C90.6804 62.7812 92.631 63.4721 93.9016 64.6905L95.2859 63.247ZM87.875 60.7812C84.1558 60.7812 81.1951 62.1651 79.1319 64.97L80.7431 66.155C82.3883 63.9183 84.7192 62.7812 87.875 62.7812V60.7812ZM79.1311 64.9711C77.1214 67.7116 76.1676 71.6316 76.125 76.5852L78.125 76.6023C78.1658 71.8475 79.0869 68.4134 80.7439 66.1539L79.1311 64.9711ZM76.125 76.5938V80.625H78.125V76.5938H76.125ZM76.125 80.625C76.125 85.6355 77.0124 89.6168 78.9221 92.4358L80.5779 91.3142C78.9876 88.9665 78.125 85.4478 78.125 80.625H76.125ZM78.9252 92.4404C80.9002 95.3217 83.8071 96.75 87.5 96.75V94.75C84.4012 94.75 82.1414 93.595 80.5748 91.3096L78.9252 92.4404ZM87.5 96.75C90.7343 96.75 93.3494 96.025 95.1662 94.402L93.8338 92.9105C92.5256 94.0792 90.474 94.75 87.5 94.75V96.75ZM95.1662 94.402C96.9854 92.7769 98.0298 90.1752 98.4606 86.8147L96.4769 86.5603C96.0744 89.6998 95.1396 91.744 93.8338 92.9105L95.1662 94.402ZM97.4688 87.6875H105.344V85.6875H97.4688V87.6875ZM132.866 101.5L131.978 101.959L132.257 102.5H132.866V101.5ZM131.991 98.3438L132.977 98.1748L132.642 96.2202L131.269 97.6517L131.991 98.3438ZM114.804 99.2188L114.134 99.961L114.804 99.2188ZM115.585 83.75L116.169 84.562L116.17 84.5612L115.585 83.75ZM131.741 80.8438V81.8438H132.741V80.8438H131.741ZM130.272 74.4375L129.537 75.1152L129.544 75.1224L130.272 74.4375ZM121.554 74.1562L122.166 74.9473L122.175 74.94L121.554 74.1562ZM119.897 77.4375V78.4375H120.897V77.4375H119.897ZM112.304 77.4375H111.304V78.4375H112.304V77.4375ZM114.147 72.25L114.941 72.8582L114.945 72.8533L114.147 72.25ZM119.147 68.4375L118.751 67.5193L118.748 67.5207L119.147 68.4375ZM135.71 70.0625L135.063 70.8246L135.066 70.8279L135.71 70.0625ZM139.335 78.4375H140.335V78.4288L140.335 78.4202L139.335 78.4375ZM140.616 100.969H141.616V100.745L141.521 100.542L140.616 100.969ZM140.616 101.5V102.5H141.616V101.5H140.616ZM128.741 94.9375L128.261 94.0601L128.256 94.0633L128.741 94.9375ZM131.741 92L132.62 92.4768L132.741 92.2537V92H131.741ZM131.741 85.625H132.741V84.625H131.741V85.625ZM120.616 94.75L119.942 95.4885L119.95 95.4961L119.959 95.5036L120.616 94.75ZM133.755 101.041C133.496 100.539 133.224 99.6141 132.977 98.1748L131.006 98.5127C131.259 99.99 131.57 101.169 131.978 101.959L133.755 101.041ZM131.269 97.6517C129.042 99.9753 126.344 101.125 123.116 101.125V103.125C126.888 103.125 130.107 101.754 132.713 99.0358L131.269 97.6517ZM123.116 101.125C119.922 101.125 117.405 100.22 115.474 98.4765L114.134 99.961C116.495 102.093 119.519 103.125 123.116 103.125V101.125ZM115.474 98.4765C113.535 96.7258 112.585 94.5983 112.585 92.0312H110.585C110.585 95.1725 111.781 97.8367 114.134 99.961L115.474 98.4765ZM112.585 92.0312C112.585 88.7125 113.792 86.2705 116.169 84.562L115.001 82.938C112.045 85.0629 110.585 88.1417 110.585 92.0312H112.585ZM116.17 84.5612C118.621 82.7942 122.216 81.8438 127.085 81.8438V79.8438C121.996 79.8438 117.924 80.8308 115 82.9388L116.17 84.5612ZM127.085 81.8438H131.741V79.8438H127.085V81.8438ZM132.741 80.8438V78.625H130.741V80.8438H132.741ZM132.741 78.625C132.741 76.6806 132.192 75.0193 131.001 73.7526L129.544 75.1224C130.312 75.939 130.741 77.0694 130.741 78.625H132.741ZM131.008 73.7598C129.775 72.4225 127.972 71.8438 125.804 71.8438V73.8438C127.635 73.8438 128.811 74.3275 129.537 75.1152L131.008 73.7598ZM125.804 71.8438C123.902 71.8438 122.251 72.3279 120.933 73.3725L122.175 74.94C123.065 74.2346 124.247 73.8438 125.804 73.8438V71.8438ZM120.942 73.3653C119.606 74.3985 118.897 75.7781 118.897 77.4375H120.897C120.897 76.4302 121.293 75.6223 122.166 74.9472L120.942 73.3653ZM119.897 76.4375H112.304V78.4375H119.897V76.4375ZM113.304 77.4375C113.304 75.8233 113.833 74.3045 114.941 72.8582L113.354 71.6418C112.004 73.4038 111.304 75.3433 111.304 77.4375H113.304ZM114.945 72.8533C116.058 71.3818 117.58 70.2112 119.547 69.3543L118.748 67.5207C116.507 68.4971 114.695 69.8682 113.35 71.6467L114.945 72.8533ZM119.544 69.3557C121.529 68.4994 123.756 68.0625 126.241 68.0625V66.0625C123.518 66.0625 121.016 66.5423 118.751 67.5193L119.544 69.3557ZM126.241 68.0625C130.031 68.0625 132.935 69.0173 135.063 70.8246L136.357 69.3004C133.777 67.1077 130.369 66.0625 126.241 66.0625V68.0625ZM135.066 70.8279C137.16 72.5884 138.277 75.085 138.335 78.4548L140.335 78.4202C140.268 74.5817 138.968 71.495 136.354 69.2971L135.066 70.8279ZM138.335 78.4375V93.6875H140.335V78.4375H138.335ZM138.335 93.6875C138.335 96.8073 138.771 99.3982 139.712 101.395L141.521 100.542C140.754 98.9143 140.335 96.6511 140.335 93.6875H138.335ZM139.616 100.969V101.5H141.616V100.969H139.616ZM140.616 100.5H132.866V102.5H140.616V100.5ZM124.522 97.0312C126.193 97.0312 127.766 96.6233 129.227 95.8117L128.256 94.0633C127.092 94.7101 125.852 95.0312 124.522 95.0312V97.0312ZM129.221 95.8149C130.708 95.0017 131.854 93.8898 132.62 92.4768L130.862 91.5232C130.295 92.5686 129.441 93.415 128.261 94.0601L129.221 95.8149ZM132.741 92V85.625H130.741V92H132.741ZM131.741 84.625H127.647V86.625H131.741V84.625ZM127.647 84.625C124.749 84.625 122.395 85.1242 120.735 86.2711L121.872 87.9164C123.046 87.105 124.921 86.625 127.647 86.625V84.625ZM120.735 86.2711C119.036 87.4458 118.179 89.1457 118.179 91.25H120.179C120.179 89.771 120.739 88.7 121.872 87.9164L120.735 86.2711ZM118.179 91.25C118.179 92.9508 118.749 94.3995 119.942 95.4885L121.291 94.0115C120.567 93.3505 120.179 92.4659 120.179 91.25H118.179ZM119.959 95.5036C121.162 96.5535 122.718 97.0312 124.522 97.0312V95.0312C123.077 95.0312 122.028 94.6548 121.274 93.9964L119.959 95.5036ZM174.295 97.4688L175.089 98.0764L175.091 98.0738L174.295 97.4688ZM155.826 98.4688L156.564 97.7939L154.826 95.8935V98.4688H155.826ZM155.826 114.5V115.5H156.826V114.5H155.826ZM148.232 114.5H147.232V115.5H148.232V114.5ZM148.232 67.6875V66.6875H147.232V67.6875H148.232ZM155.232 67.6875L156.228 67.597L156.146 66.6875H155.232V67.6875ZM155.545 71.125L154.549 71.2155L154.77 73.6407L156.317 71.7605L155.545 71.125ZM174.326 71.6875L173.529 72.291L173.533 72.297L174.326 71.6875ZM168.264 76.25L167.434 76.8087L167.438 76.8147L168.264 76.25ZM155.826 77.125L154.942 76.6578L154.826 76.877V77.125H155.826ZM155.826 92.125H154.826V92.371L154.94 92.589L155.826 92.125ZM168.232 93.1562L167.414 92.5816L167.413 92.5834L168.232 93.1562ZM176.857 84.9375C176.857 90.0204 175.704 93.9625 173.499 96.8637L175.091 98.0738C177.636 94.725 178.857 90.313 178.857 84.9375H176.857ZM173.501 96.8611C171.32 99.7113 168.43 101.125 164.732 101.125V103.125C169.035 103.125 172.52 101.435 175.089 98.0764L173.501 96.8611ZM164.732 101.125C161.267 101.125 158.58 99.9977 156.564 97.7939L155.088 99.1436C157.531 101.815 160.782 103.125 164.732 103.125V101.125ZM154.826 98.4688V114.5H156.826V98.4688H154.826ZM155.826 113.5H148.232V115.5H155.826V113.5ZM149.232 114.5V67.6875H147.232V114.5H149.232ZM148.232 68.6875H155.232V66.6875H148.232V68.6875ZM154.237 67.778L154.549 71.2155L156.541 71.0345L156.228 67.597L154.237 67.778ZM156.317 71.7605C158.337 69.3063 161.073 68.0625 164.639 68.0625V66.0625C160.538 66.0625 157.211 67.5271 154.773 70.4895L156.317 71.7605ZM164.639 68.0625C168.475 68.0625 171.399 69.4762 173.529 72.2909L175.124 71.0841C172.587 67.7322 169.053 66.0625 164.639 66.0625V68.0625ZM173.533 72.297C175.708 75.1254 176.857 79.142 176.857 84.4688H178.857C178.857 78.8788 177.653 74.3746 175.119 71.078L173.533 72.297ZM176.857 84.4688V84.9375H178.857V84.4688H176.857ZM171.295 84.2812C171.295 80.7839 170.595 77.8859 169.089 75.6853L167.438 76.8147C168.641 78.5724 169.295 81.0286 169.295 84.2812H171.295ZM169.093 75.6913C167.564 73.4209 165.327 72.2812 162.514 72.2812V74.2812C164.7 74.2812 166.297 75.1207 167.434 76.8087L169.093 75.6913ZM162.514 72.2812C160.823 72.2812 159.31 72.631 158.015 73.3752C156.717 74.1216 155.696 75.2314 154.942 76.6578L156.71 77.5922C157.311 76.4561 158.081 75.6441 159.012 75.1092C159.946 74.5721 161.1 74.2812 162.514 74.2812V72.2812ZM154.826 77.125V92.125H156.826V77.125H154.826ZM154.94 92.589C155.703 94.0445 156.732 95.1784 158.041 95.9419C159.347 96.7037 160.872 97.0625 162.576 97.0625V95.0625C161.155 95.0625 159.993 94.7651 159.049 94.2143C158.108 93.6653 157.325 92.8305 156.712 91.661L154.94 92.589ZM162.576 97.0625C165.311 97.0625 167.506 95.9413 169.052 93.7291L167.413 92.5834C166.251 94.2462 164.675 95.0625 162.576 95.0625V97.0625ZM169.051 93.7309C170.599 91.5263 171.295 88.3233 171.295 84.2812H169.295C169.295 88.1559 168.616 90.8695 167.414 92.5816L169.051 93.7309ZM194.786 59.4688H195.786V58.4688H194.786V59.4688ZM194.786 67.6875H193.786V68.6875H194.786V67.6875ZM200.755 67.6875H201.755V66.6875H200.755V67.6875ZM200.755 73.3125V74.3125H201.755V73.3125H200.755ZM194.786 73.3125V72.3125H193.786V73.3125H194.786ZM195.536 95L194.777 95.6508L194.789 95.6653L194.802 95.6794L195.536 95ZM200.943 95.5312H201.943V94.272L200.716 94.5572L200.943 95.5312ZM200.943 101.406L201.21 102.37L201.943 102.167V101.406H200.943ZM187.192 73.3125H188.192V72.3125H187.192V73.3125ZM181.63 73.3125H180.63V74.3125H181.63V73.3125ZM181.63 67.6875V66.6875H180.63V67.6875H181.63ZM187.192 67.6875V68.6875H188.192V67.6875H187.192ZM187.192 59.4688V58.4688H186.192V59.4688H187.192ZM193.786 59.4688V67.6875H195.786V59.4688H193.786ZM194.786 68.6875H200.755V66.6875H194.786V68.6875ZM199.755 67.6875V73.3125H201.755V67.6875H199.755ZM200.755 72.3125H194.786V74.3125H200.755V72.3125ZM193.786 73.3125V92.1875H195.786V73.3125H193.786ZM193.786 92.1875C193.786 93.568 194.046 94.798 194.777 95.6508L196.296 94.3492C196.026 94.0353 195.786 93.3903 195.786 92.1875H193.786ZM194.802 95.6794C195.611 96.5521 196.883 96.8438 198.286 96.8438V94.8438C197.065 94.8438 196.504 94.5729 196.27 94.3206L194.802 95.6794ZM198.286 96.8438C199.241 96.8438 200.203 96.73 201.169 96.5053L200.716 94.5572C199.891 94.7492 199.081 94.8438 198.286 94.8438V96.8438ZM199.943 95.5312V101.406H201.943V95.5312H199.943ZM200.675 100.443C199.023 100.9 197.446 101.125 195.943 101.125V103.125C197.647 103.125 199.404 102.87 201.21 102.37L200.675 100.443ZM195.943 101.125C193.207 101.125 191.331 100.375 190.121 99.0395C188.894 97.6854 188.192 95.5564 188.192 92.4688H186.192C186.192 95.8186 186.949 98.5177 188.639 100.382C190.346 102.266 192.845 103.125 195.943 103.125V101.125ZM188.192 92.4688V73.3125H186.192V92.4688H188.192ZM187.192 72.3125H181.63V74.3125H187.192V72.3125ZM182.63 73.3125V67.6875H180.63V73.3125H182.63ZM181.63 68.6875H187.192V66.6875H181.63V68.6875ZM188.192 67.6875V59.4688H186.192V67.6875H188.192ZM187.192 60.4688H194.786V58.4688H187.192V60.4688ZM228.027 98.1875L229.026 98.131L228.885 95.6334L227.265 97.5402L228.027 98.1875ZM210.184 98.9062L209.431 99.5642L209.434 99.5684L210.184 98.9062ZM207.371 67.6875V66.6875H206.371V67.6875H207.371ZM214.965 67.6875H215.965V66.6875H214.965V67.6875ZM227.777 91.9688L228.676 92.4075L228.777 92.1998V91.9688H227.777ZM227.777 67.6875V66.6875H226.777V67.6875H227.777ZM235.371 67.6875H236.371V66.6875H235.371V67.6875ZM235.371 101.5V102.5H236.371V101.5H235.371ZM228.215 101.5L227.217 101.557L227.27 102.5H228.215V101.5ZM227.265 97.5402C225.263 99.8981 222.4 101.125 218.527 101.125V103.125C222.863 103.125 226.334 101.727 228.79 98.8348L227.265 97.5402ZM218.527 101.125C215.062 101.125 212.589 100.118 210.933 98.2441L209.434 99.5684C211.57 101.986 214.66 103.125 218.527 103.125V101.125ZM210.937 98.2483C209.277 96.349 208.371 93.5161 208.371 89.5938H206.371C206.371 93.7964 207.34 97.1719 209.431 99.5642L210.937 98.2483ZM208.371 89.5938V67.6875H206.371V89.5938H208.371ZM207.371 68.6875H214.965V66.6875H207.371V68.6875ZM213.965 67.6875V89.5H215.965V67.6875H213.965ZM213.965 89.5C213.965 91.7593 214.43 93.6399 215.531 94.9668C216.663 96.3294 218.319 96.9375 220.309 96.9375V94.9375C218.736 94.9375 217.721 94.4727 217.07 93.6894C216.391 92.8705 215.965 91.5323 215.965 89.5H213.965ZM220.309 96.9375C224.263 96.9375 227.171 95.4899 228.676 92.4075L226.879 91.53C225.8 93.7393 223.73 94.9375 220.309 94.9375V96.9375ZM228.777 91.9688V67.6875H226.777V91.9688H228.777ZM227.777 68.6875H235.371V66.6875H227.777V68.6875ZM234.371 67.6875V101.5H236.371V67.6875H234.371ZM235.371 100.5H228.215V102.5H235.371V100.5ZM229.213 101.443L229.026 98.131L227.029 98.244L227.217 101.557L229.213 101.443ZM261.769 74.625L261.604 75.6114L262.764 75.8046L262.769 74.6294L261.769 74.625ZM251.644 78.375L250.733 77.9623L250.644 78.159V78.375H251.644ZM251.644 101.5V102.5H252.644V101.5H251.644ZM244.05 101.5H243.05V102.5H244.05V101.5ZM244.05 67.6875V66.6875H243.05V67.6875H244.05ZM251.3 67.6875L252.299 67.638L252.252 66.6875H251.3V67.6875ZM251.488 71.4688L250.489 71.5183L250.647 74.7046L252.336 71.9982L251.488 71.4688ZM261.8 67.5L262.8 67.5044L262.803 66.8315L262.181 66.5753L261.8 67.5ZM261.933 73.6386C260.876 73.4625 259.79 73.375 258.675 73.375V75.375C259.685 75.375 260.661 75.4542 261.604 75.6114L261.933 73.6386ZM258.675 73.375C256.811 73.375 255.174 73.732 253.813 74.5058C252.442 75.2859 251.416 76.454 250.733 77.9623L252.555 78.7877C253.08 77.6293 253.83 76.7974 254.802 76.2442C255.786 75.6847 257.06 75.375 258.675 75.375V73.375ZM250.644 78.375V101.5H252.644V78.375H250.644ZM251.644 100.5H244.05V102.5H251.644V100.5ZM245.05 101.5V67.6875H243.05V101.5H245.05ZM244.05 68.6875H251.3V66.6875H244.05V68.6875ZM250.301 67.737L250.489 71.5183L252.486 71.4192L252.299 67.638L250.301 67.737ZM252.336 71.9982C254.001 69.3303 256.234 68.0625 259.113 68.0625V66.0625C255.491 66.0625 252.641 67.7322 250.639 70.9393L252.336 71.9982ZM259.113 68.0625C260.115 68.0625 260.871 68.1988 261.419 68.4247L262.181 66.5753C261.313 66.2179 260.276 66.0625 259.113 66.0625V68.0625ZM260.8 67.4956L260.769 74.6206L262.769 74.6294L262.8 67.5044L260.8 67.4956ZM286.791 101.5L285.903 101.959L286.182 102.5H286.791V101.5ZM285.916 98.3438L286.902 98.1748L286.567 96.2202L285.194 97.6517L285.916 98.3438ZM268.729 99.2188L268.059 99.961L268.729 99.2188ZM269.51 83.75L270.094 84.562L270.095 84.5612L269.51 83.75ZM285.666 80.8438V81.8438H286.666V80.8438H285.666ZM284.197 74.4375L283.462 75.1152L283.469 75.1224L284.197 74.4375ZM275.479 74.1562L276.091 74.9473L276.1 74.94L275.479 74.1562ZM273.822 77.4375V78.4375H274.822V77.4375H273.822ZM266.229 77.4375H265.229V78.4375H266.229V77.4375ZM268.072 72.25L268.866 72.8582L268.87 72.8533L268.072 72.25ZM273.072 68.4375L272.676 67.5193L272.673 67.5207L273.072 68.4375ZM289.635 70.0625L288.988 70.8246L288.991 70.8279L289.635 70.0625ZM293.26 78.4375H294.26V78.4288L294.26 78.4202L293.26 78.4375ZM294.541 100.969H295.541V100.745L295.446 100.542L294.541 100.969ZM294.541 101.5V102.5H295.541V101.5H294.541ZM282.666 94.9375L282.186 94.0601L282.181 94.0633L282.666 94.9375ZM285.666 92L286.545 92.4768L286.666 92.2537V92H285.666ZM285.666 85.625H286.666V84.625H285.666V85.625ZM274.541 94.75L273.867 95.4885L273.875 95.4961L273.884 95.5036L274.541 94.75ZM287.68 101.041C287.421 100.539 287.149 99.6141 286.902 98.1748L284.931 98.5127C285.184 99.99 285.495 101.169 285.903 101.959L287.68 101.041ZM285.194 97.6517C282.967 99.9753 280.269 101.125 277.041 101.125V103.125C280.813 103.125 284.032 101.754 286.638 99.0358L285.194 97.6517ZM277.041 101.125C273.847 101.125 271.33 100.22 269.399 98.4765L268.059 99.961C270.42 102.093 273.444 103.125 277.041 103.125V101.125ZM269.399 98.4765C267.46 96.7258 266.51 94.5983 266.51 92.0312H264.51C264.51 95.1725 265.706 97.8367 268.059 99.961L269.399 98.4765ZM266.51 92.0312C266.51 88.7125 267.717 86.2705 270.094 84.562L268.926 82.938C265.97 85.0629 264.51 88.1417 264.51 92.0312H266.51ZM270.095 84.5612C272.546 82.7942 276.141 81.8438 281.01 81.8438V79.8438C275.921 79.8438 271.849 80.8308 268.925 82.9388L270.095 84.5612ZM281.01 81.8438H285.666V79.8438H281.01V81.8438ZM286.666 80.8438V78.625H284.666V80.8438H286.666ZM286.666 78.625C286.666 76.6806 286.117 75.0193 284.926 73.7526L283.469 75.1224C284.236 75.939 284.666 77.0694 284.666 78.625H286.666ZM284.933 73.7598C283.7 72.4225 281.897 71.8438 279.729 71.8438V73.8438C281.56 73.8438 282.736 74.3275 283.462 75.1152L284.933 73.7598ZM279.729 71.8438C277.827 71.8438 276.176 72.3279 274.858 73.3725L276.1 74.94C276.99 74.2346 278.172 73.8438 279.729 73.8438V71.8438ZM274.867 73.3653C273.531 74.3985 272.822 75.7781 272.822 77.4375H274.822C274.822 76.4302 275.218 75.6223 276.091 74.9472L274.867 73.3653ZM273.822 76.4375H266.229V78.4375H273.822V76.4375ZM267.229 77.4375C267.229 75.8233 267.758 74.3045 268.866 72.8582L267.279 71.6418C265.929 73.4038 265.229 75.3433 265.229 77.4375H267.229ZM268.87 72.8533C269.983 71.3818 271.505 70.2112 273.472 69.3543L272.673 67.5207C270.432 68.4971 268.62 69.8682 267.275 71.6467L268.87 72.8533ZM273.469 69.3557C275.454 68.4994 277.681 68.0625 280.166 68.0625V66.0625C277.443 66.0625 274.941 66.5423 272.676 67.5193L273.469 69.3557ZM280.166 68.0625C283.956 68.0625 286.86 69.0173 288.988 70.8246L290.282 69.3004C287.702 67.1077 284.294 66.0625 280.166 66.0625V68.0625ZM288.991 70.8279C291.085 72.5884 292.202 75.085 292.26 78.4548L294.26 78.4202C294.193 74.5817 292.893 71.495 290.279 69.2971L288.991 70.8279ZM292.26 78.4375V93.6875H294.26V78.4375H292.26ZM292.26 93.6875C292.26 96.8073 292.696 99.3982 293.637 101.395L295.446 100.542C294.679 98.9143 294.26 96.6511 294.26 93.6875H292.26ZM293.541 100.969V101.5H295.541V100.969H293.541ZM294.541 100.5H286.791V102.5H294.541V100.5ZM278.447 97.0312C280.118 97.0312 281.691 96.6233 283.152 95.8117L282.181 94.0633C281.017 94.7101 279.777 95.0312 278.447 95.0312V97.0312ZM283.146 95.8149C284.633 95.0017 285.779 93.8898 286.545 92.4768L284.787 91.5232C284.22 92.5686 283.366 93.415 282.186 94.0601L283.146 95.8149ZM286.666 92V85.625H284.666V92H286.666ZM285.666 84.625H281.572V86.625H285.666V84.625ZM281.572 84.625C278.674 84.625 276.32 85.1242 274.66 86.2711L275.797 87.9164C276.971 87.105 278.846 86.625 281.572 86.625V84.625ZM274.66 86.2711C272.961 87.4458 272.104 89.1457 272.104 91.25H274.104C274.104 89.771 274.664 88.7 275.797 87.9164L274.66 86.2711ZM272.104 91.25C272.104 92.9508 272.674 94.3995 273.867 95.4885L275.216 94.0115C274.492 93.3505 274.104 92.4659 274.104 91.25H272.104ZM273.884 95.5036C275.087 96.5535 276.643 97.0312 278.447 97.0312V95.0312C277.002 95.0312 275.953 94.6548 275.199 93.9964L273.884 95.5036ZM319.876 74.625L319.712 75.6114L320.871 75.8046L320.876 74.6294L319.876 74.625ZM309.751 78.375L308.84 77.9623L308.751 78.159V78.375H309.751ZM309.751 101.5V102.5H310.751V101.5H309.751ZM302.158 101.5H301.158V102.5H302.158V101.5ZM302.158 67.6875V66.6875H301.158V67.6875H302.158ZM309.408 67.6875L310.406 67.638L310.359 66.6875H309.408V67.6875ZM309.595 71.4688L308.596 71.5183L308.754 74.7046L310.443 71.9982L309.595 71.4688ZM319.908 67.5L320.907 67.5044L320.91 66.8315L320.288 66.5753L319.908 67.5ZM320.041 73.6386C318.984 73.4625 317.897 73.375 316.783 73.375V75.375C317.793 75.375 318.769 75.4542 319.712 75.6114L320.041 73.6386ZM316.783 73.375C314.919 73.375 313.281 73.732 311.921 74.5058C310.55 75.2859 309.524 76.454 308.84 77.9623L310.662 78.7877C311.187 77.6293 311.937 76.7974 312.91 76.2442C313.893 75.6847 315.167 75.375 316.783 75.375V73.375ZM308.751 78.375V101.5H310.751V78.375H308.751ZM309.751 100.5H302.158V102.5H309.751V100.5ZM303.158 101.5V67.6875H301.158V101.5H303.158ZM302.158 68.6875H309.408V66.6875H302.158V68.6875ZM308.409 67.737L308.596 71.5183L310.594 71.4192L310.406 67.638L308.409 67.737ZM310.443 71.9982C312.108 69.3303 314.341 68.0625 317.22 68.0625V66.0625C313.599 66.0625 310.748 67.7322 308.747 70.9393L310.443 71.9982ZM317.22 68.0625C318.223 68.0625 318.978 68.1988 319.527 68.4247L320.288 66.5753C319.42 66.2179 318.384 66.0625 317.22 66.0625V68.0625ZM318.908 67.4956L318.876 74.6206L320.876 74.6294L320.907 67.5044L318.908 67.4956ZM77.0312 127.688L78.0293 127.626L77.9712 126.688H77.0312V127.688ZM77.25 131.219L76.2519 131.281L76.4044 133.742L78.0093 131.87L77.25 131.219ZM96.2812 132.25L95.3804 132.684L96.1154 134.209L97.0963 132.829L96.2812 132.25ZM114.969 130.156L114.218 130.816L114.221 130.821L114.969 130.156ZM117.781 139.281H118.781L118.781 139.271L117.781 139.281ZM117.781 161.5V162.5H118.781V161.5H117.781ZM110.188 161.5H109.188V162.5H110.188V161.5ZM99.875 134.688L100.521 135.451L100.522 135.45L99.875 134.688ZM97.5938 138.312L96.6338 138.033L96.5936 138.17L96.5938 138.314L97.5938 138.312ZM97.625 161.5V162.5H98.6264L98.625 161.499L97.625 161.5ZM90.0312 161.5H89.0312V162.5H90.0312V161.5ZM90.0312 139.25H91.0312V139.237L91.0309 139.224L90.0312 139.25ZM77.4688 137L76.5789 136.544L76.4688 136.759V137H77.4688ZM77.4688 161.5V162.5H78.4688V161.5H77.4688ZM69.875 161.5H68.875V162.5H69.875V161.5ZM69.875 127.688V126.688H68.875V127.688H69.875ZM76.0332 127.749L76.2519 131.281L78.2481 131.157L78.0293 127.626L76.0332 127.749ZM78.0093 131.87C80.1682 129.351 83.1244 128.062 87 128.062V126.062C82.6256 126.062 79.0818 127.545 76.4907 130.568L78.0093 131.87ZM87 128.062C89.1357 128.062 90.8609 128.471 92.2231 129.232C93.5753 129.988 94.6285 131.124 95.3804 132.684L97.1821 131.816C96.2673 129.918 94.9403 128.46 93.1988 127.486C91.4672 126.519 89.3852 126.062 87 126.062V128.062ZM97.0963 132.829C99.3561 129.65 102.502 128.062 106.656 128.062V126.062C101.894 126.062 98.1231 127.933 95.4662 131.671L97.0963 132.829ZM106.656 128.062C110.206 128.062 112.656 129.04 114.218 130.816L115.72 129.496C113.656 127.148 110.565 126.062 106.656 126.062V128.062ZM114.221 130.821C115.835 132.636 116.741 135.404 116.781 139.292L118.781 139.271C118.738 135.117 117.769 131.802 115.716 129.492L114.221 130.821ZM116.781 139.281V161.5H118.781V139.281H116.781ZM117.781 160.5H110.188V162.5H117.781V160.5ZM111.188 161.5V139.5H109.188V161.5H111.188ZM111.188 139.5C111.188 137.238 110.698 135.363 109.511 134.097L108.052 135.465C108.74 136.199 109.188 137.47 109.188 139.5H111.188ZM109.511 134.097C108.299 132.804 106.411 132.281 104.125 132.281V134.281C106.172 134.281 107.389 134.758 108.052 135.465L109.511 134.097ZM104.125 132.281C102.207 132.281 100.546 132.806 99.2278 133.925L100.522 135.45C101.412 134.694 102.585 134.281 104.125 134.281V132.281ZM99.2291 133.924C97.9808 134.98 97.1204 136.364 96.6338 138.033L98.5537 138.592C98.9421 137.261 99.6025 136.228 100.521 135.451L99.2291 133.924ZM96.5938 138.314L96.625 161.501L98.625 161.499L98.5938 138.311L96.5938 138.314ZM97.625 160.5H90.0312V162.5H97.625V160.5ZM91.0312 161.5V139.25H89.0312V161.5H91.0312ZM91.0309 139.224C90.9748 137.079 90.3941 135.298 89.1294 134.059C87.8638 132.819 86.0743 132.281 83.9375 132.281V134.281C85.7591 134.281 86.9643 134.738 87.7299 135.488C88.4966 136.239 88.9836 137.441 89.0316 139.276L91.0309 139.224ZM83.9375 132.281C82.2805 132.281 80.8008 132.62 79.5407 133.344C78.2755 134.071 77.2914 135.154 76.5789 136.544L78.3586 137.456C78.9169 136.367 79.6464 135.59 80.5375 135.078C81.4335 134.563 82.5528 134.281 83.9375 134.281V132.281ZM76.4688 137V161.5H78.4688V137H76.4688ZM77.4688 160.5H69.875V162.5H77.4688V160.5ZM70.875 161.5V127.688H68.875V161.5H70.875ZM69.875 128.688H77.0312V126.688H69.875V128.688ZM127.085 135.344L127.981 135.788L127.982 135.785L127.085 135.344ZM132.616 129.219L133.129 130.078L133.134 130.074L132.616 129.219ZM151.897 131.469L151.178 132.163L151.18 132.166L151.897 131.469ZM156.522 143.156L157.522 143.139L157.522 143.124L157.521 143.109L156.522 143.156ZM156.554 144.938H157.554V144.929L157.554 144.92L156.554 144.938ZM154.616 153.875L153.719 153.433L153.716 153.439L154.616 153.875ZM149.116 159.969L148.602 159.111L148.598 159.113L149.116 159.969ZM129.397 157.375L128.652 158.042L128.657 158.047L129.397 157.375ZM134.866 153.125L134.057 153.713L134.06 153.717L134.866 153.125ZM146.835 153.062L146.023 152.479L146.019 152.484L146.835 153.062ZM146.772 136.156L145.964 136.745L145.968 136.751L146.772 136.156ZM134.897 136.125L135.7 136.722L135.703 136.718L134.897 136.125ZM126.116 144.281C126.116 141.104 126.745 138.28 127.981 135.788L126.189 134.899C124.8 137.699 124.116 140.833 124.116 144.281H126.116ZM127.982 135.785C129.216 133.278 130.932 131.388 133.129 130.078L132.104 128.36C129.551 129.883 127.579 132.076 126.188 134.902L127.982 135.785ZM133.134 130.074C135.336 128.741 137.882 128.062 140.804 128.062V126.062C137.559 126.062 134.646 126.821 132.098 128.363L133.134 130.074ZM140.804 128.062C145.13 128.062 148.556 129.445 151.178 132.163L152.617 130.775C149.572 127.618 145.603 126.062 140.804 126.062V128.062ZM151.18 132.166C153.834 134.897 155.304 138.545 155.524 143.203L157.521 143.109C157.283 138.059 155.67 133.916 152.615 130.772L151.18 132.166ZM155.523 143.174L155.554 144.955L157.554 144.92L157.522 143.139L155.523 143.174ZM155.554 144.938C155.554 148.139 154.934 150.964 153.719 153.433L155.514 154.317C156.882 151.536 157.554 148.402 157.554 144.938H155.554ZM153.716 153.439C152.526 155.897 150.823 157.778 148.602 159.111L149.631 160.826C152.201 159.284 154.165 157.103 155.516 154.311L153.716 153.439ZM148.598 159.113C146.399 160.445 143.832 161.125 140.866 161.125V163.125C144.15 163.125 147.084 162.368 149.634 160.824L148.598 159.113ZM140.866 161.125C136.341 161.125 132.8 159.635 130.138 156.703L128.657 158.047C131.745 161.448 135.85 163.125 140.866 163.125V161.125ZM130.142 156.708C127.489 153.745 126.116 149.763 126.116 144.656H124.116C124.116 150.133 125.598 154.63 128.653 158.042L130.142 156.708ZM126.116 144.656V144.281H124.116V144.656H126.116ZM131.71 144.938C131.71 148.542 132.453 151.504 134.057 153.713L135.675 152.537C134.404 150.788 133.71 148.292 133.71 144.938H131.71ZM134.06 153.717C135.698 155.948 138.006 157.062 140.866 157.062V155.062C138.602 155.062 136.91 154.219 135.672 152.533L134.06 153.717ZM140.866 157.062C143.736 157.062 146.037 155.919 147.651 153.641L146.019 152.484C144.8 154.206 143.122 155.062 140.866 155.062V157.062ZM147.647 153.646C149.258 151.404 149.991 148.235 149.991 144.281H147.991C147.991 148.036 147.287 150.721 146.023 152.479L147.647 153.646ZM149.991 144.281C149.991 140.729 149.223 137.788 147.576 135.562L145.968 136.751C147.281 138.525 147.991 141 147.991 144.281H149.991ZM147.581 135.567C145.93 133.303 143.637 132.156 140.804 132.156V134.156C143.012 134.156 144.698 135.009 145.964 136.745L147.581 135.567ZM140.804 132.156C138.01 132.156 135.741 133.294 134.092 135.532L135.703 136.718C136.971 134.997 138.639 134.156 140.804 134.156V132.156ZM134.095 135.528C132.452 137.735 131.71 140.926 131.71 144.938H133.71C133.71 141.116 134.427 138.432 135.7 136.722L134.095 135.528ZM171.076 127.688L172.074 127.626L172.016 126.688H171.076V127.688ZM171.295 131.219L170.297 131.281L170.449 133.742L172.054 131.87L171.295 131.219ZM190.326 132.25L189.425 132.684L190.16 134.209L191.141 132.829L190.326 132.25ZM209.014 130.156L208.263 130.816L208.266 130.821L209.014 130.156ZM211.826 139.281H212.826L212.826 139.271L211.826 139.281ZM211.826 161.5V162.5H212.826V161.5H211.826ZM204.232 161.5H203.232V162.5H204.232V161.5ZM193.92 134.688L194.566 135.451L194.567 135.45L193.92 134.688ZM191.639 138.312L190.679 138.033L190.639 138.17L190.639 138.314L191.639 138.312ZM191.67 161.5V162.5H192.671L192.67 161.499L191.67 161.5ZM184.076 161.5H183.076V162.5H184.076V161.5ZM184.076 139.25H185.076V139.237L185.076 139.224L184.076 139.25ZM171.514 137L170.624 136.544L170.514 136.759V137H171.514ZM171.514 161.5V162.5H172.514V161.5H171.514ZM163.92 161.5H162.92V162.5H163.92V161.5ZM163.92 127.688V126.688H162.92V127.688H163.92ZM170.078 127.749L170.297 131.281L172.293 131.157L172.074 127.626L170.078 127.749ZM172.054 131.87C174.213 129.351 177.169 128.062 181.045 128.062V126.062C176.671 126.062 173.127 127.545 170.536 130.568L172.054 131.87ZM181.045 128.062C183.181 128.062 184.906 128.471 186.268 129.232C187.62 129.988 188.674 131.124 189.425 132.684L191.227 131.816C190.312 129.918 188.985 128.46 187.244 127.486C185.512 126.519 183.43 126.062 181.045 126.062V128.062ZM191.141 132.829C193.401 129.65 196.547 128.062 200.701 128.062V126.062C195.939 126.062 192.168 127.933 189.511 131.671L191.141 132.829ZM200.701 128.062C204.251 128.062 206.701 129.04 208.263 130.816L209.765 129.496C207.701 127.148 204.61 126.062 200.701 126.062V128.062ZM208.266 130.821C209.88 132.636 210.786 135.404 210.826 139.292L212.826 139.271C212.783 135.117 211.814 131.802 209.761 129.492L208.266 130.821ZM210.826 139.281V161.5H212.826V139.281H210.826ZM211.826 160.5H204.232V162.5H211.826V160.5ZM205.232 161.5V139.5H203.232V161.5H205.232ZM205.232 139.5C205.232 137.238 204.743 135.363 203.556 134.097L202.097 135.465C202.785 136.199 203.232 137.47 203.232 139.5H205.232ZM203.556 134.097C202.344 132.804 200.456 132.281 198.17 132.281V134.281C200.217 134.281 201.434 134.758 202.097 135.465L203.556 134.097ZM198.17 132.281C196.252 132.281 194.591 132.806 193.273 133.925L194.567 135.45C195.457 134.694 196.63 134.281 198.17 134.281V132.281ZM193.274 133.924C192.026 134.98 191.165 136.364 190.679 138.033L192.599 138.592C192.987 137.261 193.647 136.228 194.566 135.451L193.274 133.924ZM190.639 138.314L190.67 161.501L192.67 161.499L192.639 138.311L190.639 138.314ZM191.67 160.5H184.076V162.5H191.67V160.5ZM185.076 161.5V139.25H183.076V161.5H185.076ZM185.076 139.224C185.02 137.079 184.439 135.298 183.174 134.059C181.909 132.819 180.119 132.281 177.982 132.281V134.281C179.804 134.281 181.009 134.738 181.775 135.488C182.542 136.239 183.029 137.441 183.077 139.276L185.076 139.224ZM177.982 132.281C176.326 132.281 174.846 132.62 173.586 133.344C172.32 134.071 171.336 135.154 170.624 136.544L172.404 137.456C172.962 136.367 173.691 135.59 174.582 135.078C175.479 134.563 176.598 134.281 177.982 134.281V132.281ZM170.514 137V161.5H172.514V137H170.514ZM171.514 160.5H163.92V162.5H171.514V160.5ZM164.92 161.5V127.688H162.92V161.5H164.92ZM163.92 128.688H171.076V126.688H163.92V128.688ZM223.755 157.594L223.041 158.293L223.045 158.298L223.755 157.594ZM221.224 135.5L220.327 135.058L220.325 135.061L221.224 135.5ZM226.724 129.281L226.192 128.435L226.724 129.281ZM245.255 131.469L244.493 132.117L244.496 132.12L245.255 131.469ZM249.036 147V148H250.036V147H249.036ZM226.943 147V146H225.857L225.946 147.082L226.943 147ZM229.724 153.625L229.017 154.332L229.021 154.337L229.724 153.625ZM244.411 151.844L245.102 151.12L244.301 150.356L243.622 151.23L244.411 151.844ZM248.505 155.75L249.336 156.307L249.804 155.608L249.195 155.027L248.505 155.75ZM243.068 160.469L243.508 161.366L243.511 161.365L243.068 160.469ZM229.505 135.344L228.756 134.681L228.751 134.687L229.505 135.344ZM227.068 141.438L226.077 141.303L225.922 142.438H227.068V141.438ZM241.536 141.438V142.438H242.536V141.438H241.536ZM241.536 140.875H242.536V140.842L242.534 140.81L241.536 140.875ZM239.505 135.125L238.763 135.796L238.769 135.802L239.505 135.125ZM235.474 161.125C230.89 161.125 227.252 159.696 224.465 156.889L223.045 158.298C226.258 161.534 230.433 163.125 235.474 163.125V161.125ZM224.469 156.894C221.707 154.073 220.286 150.3 220.286 145.469H218.286C218.286 150.72 219.845 155.031 223.041 158.293L224.469 156.894ZM220.286 145.469V144.531H218.286V145.469H220.286ZM220.286 144.531C220.286 141.286 220.907 138.429 222.122 135.939L220.325 135.061C218.958 137.862 218.286 141.026 218.286 144.531H220.286ZM222.121 135.942C223.358 133.429 225.069 131.502 227.256 130.128L226.192 128.435C223.67 130.019 221.715 132.237 220.327 135.058L222.121 135.942ZM227.256 130.128C229.444 128.753 231.883 128.062 234.599 128.062V126.062C231.523 126.062 228.712 126.851 226.192 128.435L227.256 130.128ZM234.599 128.062C238.972 128.062 242.221 129.446 244.493 132.117L246.017 130.821C243.289 127.616 239.434 126.062 234.599 126.062V128.062ZM244.496 132.12C246.81 134.817 248.036 138.709 248.036 143.938H250.036C250.036 138.416 248.741 133.996 246.014 130.818L244.496 132.12ZM248.036 143.938V147H250.036V143.938H248.036ZM249.036 146H226.943V148H249.036V146ZM225.946 147.082C226.19 150.056 227.19 152.505 229.017 154.332L230.431 152.918C229.008 151.495 228.153 149.527 227.939 146.918L225.946 147.082ZM229.021 154.337C230.869 156.161 233.19 157.062 235.911 157.062V155.062C233.674 155.062 231.871 154.339 230.426 152.913L229.021 154.337ZM235.911 157.062C239.708 157.062 242.829 155.507 245.201 152.458L243.622 151.23C241.619 153.806 239.073 155.062 235.911 155.062V157.062ZM243.721 152.567L247.815 156.473L249.195 155.027L245.102 151.12L243.721 152.567ZM247.674 155.193C246.421 157.063 244.745 158.522 242.624 159.573L243.511 161.365C245.932 160.166 247.88 158.479 249.336 156.307L247.674 155.193ZM242.627 159.571C240.53 160.6 238.152 161.125 235.474 161.125V163.125C238.42 163.125 241.105 162.546 243.508 161.366L242.627 159.571ZM234.568 132.156C232.22 132.156 230.252 132.992 228.756 134.681L230.254 136.007C231.341 134.779 232.748 134.156 234.568 134.156V132.156ZM228.751 134.687C227.314 136.336 226.448 138.573 226.077 141.303L228.058 141.572C228.395 139.094 229.155 137.268 230.259 136.001L228.751 134.687ZM227.068 142.438H241.536V140.438H227.068V142.438ZM242.536 141.438V140.875H240.536V141.438H242.536ZM242.534 140.81C242.359 138.14 241.639 135.969 240.241 134.448L238.769 135.802C239.746 136.864 240.38 138.527 240.538 140.94L242.534 140.81ZM240.247 134.454C238.834 132.892 236.896 132.156 234.568 132.156V134.156C236.447 134.156 237.801 134.733 238.763 135.796L240.247 134.454ZM262.965 127.688L263.963 127.632L263.911 126.688H262.965V127.688ZM263.184 131.594L262.185 131.65L262.328 134.196L263.954 132.231L263.184 131.594ZM283.777 139.156H284.777V139.148L284.777 139.141L283.777 139.156ZM283.777 161.5V162.5H284.777V161.5H283.777ZM276.184 161.5H275.184V162.5H276.184V161.5ZM274.777 134.844L274.027 135.504L274.034 135.512L274.041 135.52L274.777 134.844ZM263.402 137.438L262.523 136.961L262.402 137.184V137.438H263.402ZM263.402 161.5V162.5H264.402V161.5H263.402ZM255.809 161.5H254.809V162.5H255.809V161.5ZM255.809 127.688V126.688H254.809V127.688H255.809ZM261.967 127.743L262.185 131.65L264.182 131.538L263.963 127.632L261.967 127.743ZM263.954 132.231C266.256 129.449 269.251 128.062 273.027 128.062V126.062C268.679 126.062 265.111 127.696 262.413 130.956L263.954 132.231ZM273.027 128.062C276.355 128.062 278.701 129.009 280.249 130.75C281.819 132.516 282.717 135.265 282.778 139.172L284.777 139.141C284.713 134.985 283.757 131.687 281.744 129.422C279.708 127.132 276.741 126.062 273.027 126.062V128.062ZM282.777 139.156V161.5H284.777V139.156H282.777ZM283.777 160.5H276.184V162.5H283.777V160.5ZM277.184 161.5V139.594H275.184V161.5H277.184ZM277.184 139.594C277.184 137.33 276.693 135.451 275.514 134.167L274.041 135.52C274.737 136.278 275.184 137.566 275.184 139.594H277.184ZM275.528 134.183C274.342 132.835 272.489 132.281 270.246 132.281V134.281C272.212 134.281 273.38 134.77 274.027 135.504L275.528 134.183ZM270.246 132.281C268.559 132.281 267.038 132.665 265.719 133.466C264.402 134.266 263.342 135.448 262.523 136.961L264.282 137.914C264.963 136.656 265.794 135.76 266.758 135.175C267.72 134.591 268.871 134.281 270.246 134.281V132.281ZM262.402 137.438V161.5H264.402V137.438H262.402ZM263.402 160.5H255.809V162.5H263.402V160.5ZM256.809 161.5V127.688H254.809V161.5H256.809ZM255.809 128.688H262.965V126.688H255.809V128.688ZM302.019 119.469H303.019V118.469H302.019V119.469ZM302.019 127.688H301.019V128.688H302.019V127.688ZM307.988 127.688H308.988V126.688H307.988V127.688ZM307.988 133.312V134.312H308.988V133.312H307.988ZM302.019 133.312V132.312H301.019V133.312H302.019ZM302.769 155L302.009 155.651L302.022 155.665L302.035 155.679L302.769 155ZM308.175 155.531H309.175V154.272L307.948 154.557L308.175 155.531ZM308.175 161.406L308.442 162.37L309.175 162.167V161.406H308.175ZM294.425 133.312H295.425V132.312H294.425V133.312ZM288.863 133.312H287.863V134.312H288.863V133.312ZM288.863 127.688V126.688H287.863V127.688H288.863ZM294.425 127.688V128.688H295.425V127.688H294.425ZM294.425 119.469V118.469H293.425V119.469H294.425ZM301.019 119.469V127.688H303.019V119.469H301.019ZM302.019 128.688H307.988V126.688H302.019V128.688ZM306.988 127.688V133.312H308.988V127.688H306.988ZM307.988 132.312H302.019V134.312H307.988V132.312ZM301.019 133.312V152.188H303.019V133.312H301.019ZM301.019 152.188C301.019 153.568 301.279 154.798 302.009 155.651L303.528 154.349C303.259 154.035 303.019 153.39 303.019 152.188H301.019ZM302.035 155.679C302.843 156.552 304.115 156.844 305.519 156.844V154.844C304.297 154.844 303.736 154.573 303.503 154.321L302.035 155.679ZM305.519 156.844C306.474 156.844 307.435 156.73 308.402 156.505L307.948 154.557C307.123 154.749 306.314 154.844 305.519 154.844V156.844ZM307.175 155.531V161.406H309.175V155.531H307.175ZM307.908 160.443C306.256 160.9 304.679 161.125 303.175 161.125V163.125C304.879 163.125 306.636 162.87 308.442 162.37L307.908 160.443ZM303.175 161.125C300.439 161.125 298.564 160.375 297.354 159.039C296.127 157.685 295.425 155.556 295.425 152.469H293.425C293.425 155.819 294.182 158.518 295.871 160.382C297.578 162.266 300.077 163.125 303.175 163.125V161.125ZM295.425 152.469V133.312H293.425V152.469H295.425ZM294.425 132.312H288.863V134.312H294.425V132.312ZM289.863 133.312V127.688H287.863V133.312H289.863ZM288.863 128.688H294.425V126.688H288.863V128.688ZM295.425 127.688V119.469H293.425V127.688H295.425ZM294.425 120.469H302.019V118.469H294.425V120.469ZM314.385 135.344L315.281 135.788L315.282 135.785L314.385 135.344ZM319.916 129.219L320.429 130.078L320.434 130.074L319.916 129.219ZM339.198 131.469L338.478 132.163L338.48 132.166L339.198 131.469ZM343.823 143.156L344.822 143.139L344.822 143.124L344.821 143.109L343.823 143.156ZM343.854 144.938H344.854V144.929L344.854 144.92L343.854 144.938ZM341.916 153.875L341.019 153.433L341.016 153.439L341.916 153.875ZM336.416 159.969L335.902 159.111L335.898 159.113L336.416 159.969ZM316.697 157.375L315.952 158.042L315.957 158.047L316.697 157.375ZM322.166 153.125L321.357 153.713L321.36 153.717L322.166 153.125ZM334.135 153.062L333.323 152.479L333.319 152.484L334.135 153.062ZM334.073 136.156L333.264 136.745L333.268 136.751L334.073 136.156ZM322.198 136.125L323 136.722L323.003 136.718L322.198 136.125ZM313.416 144.281C313.416 141.104 314.045 138.28 315.281 135.788L313.489 134.899C312.1 137.699 311.416 140.833 311.416 144.281H313.416ZM315.282 135.785C316.516 133.278 318.232 131.388 320.429 130.078L319.404 128.36C316.851 129.883 314.879 132.076 313.488 134.902L315.282 135.785ZM320.434 130.074C322.636 128.741 325.182 128.062 328.104 128.062V126.062C324.859 126.062 321.946 126.821 319.398 128.363L320.434 130.074ZM328.104 128.062C332.43 128.062 335.856 129.445 338.478 132.163L339.917 130.775C336.872 127.618 332.903 126.062 328.104 126.062V128.062ZM338.48 132.166C341.134 134.897 342.604 138.545 342.824 143.203L344.821 143.109C344.583 138.059 342.97 133.916 339.915 130.772L338.48 132.166ZM342.823 143.174L342.854 144.955L344.854 144.92L344.822 143.139L342.823 143.174ZM342.854 144.938C342.854 148.139 342.234 150.964 341.019 153.433L342.814 154.317C344.182 151.536 344.854 148.402 344.854 144.938H342.854ZM341.016 153.439C339.826 155.897 338.123 157.778 335.902 159.111L336.931 160.826C339.501 159.284 341.465 157.103 342.816 154.311L341.016 153.439ZM335.898 159.113C333.699 160.445 331.132 161.125 328.166 161.125V163.125C331.45 163.125 334.384 162.368 336.934 160.824L335.898 159.113ZM328.166 161.125C323.641 161.125 320.1 159.635 317.438 156.703L315.957 158.047C319.045 161.448 323.15 163.125 328.166 163.125V161.125ZM317.442 156.708C314.789 153.745 313.416 149.763 313.416 144.656H311.416C311.416 150.133 312.898 154.63 315.953 158.042L317.442 156.708ZM313.416 144.656V144.281H311.416V144.656H313.416ZM319.01 144.938C319.01 148.542 319.753 151.504 321.357 153.713L322.975 152.537C321.704 150.788 321.01 148.292 321.01 144.938H319.01ZM321.36 153.717C322.998 155.948 325.306 157.062 328.166 157.062V155.062C325.902 155.062 324.21 154.219 322.972 152.533L321.36 153.717ZM328.166 157.062C331.036 157.062 333.337 155.919 334.951 153.641L333.319 152.484C332.1 154.206 330.422 155.062 328.166 155.062V157.062ZM334.947 153.646C336.558 151.404 337.291 148.235 337.291 144.281H335.291C335.291 148.036 334.587 150.721 333.323 152.479L334.947 153.646ZM337.291 144.281C337.291 140.729 336.523 137.788 334.876 135.562L333.268 136.751C334.581 138.525 335.291 141 335.291 144.281H337.291ZM334.88 135.567C333.23 133.303 330.937 132.156 328.104 132.156V134.156C330.312 134.156 331.998 135.009 333.264 136.745L334.88 135.567ZM328.104 132.156C325.31 132.156 323.041 133.294 321.392 135.532L323.003 136.718C324.271 134.997 325.939 134.156 328.104 134.156V132.156ZM321.395 135.528C319.752 137.735 319.01 140.926 319.01 144.938H321.01C321.01 141.116 321.727 138.432 323 136.722L321.395 135.528ZM368.501 149.219L367.961 150.06L367.968 150.065L368.501 149.219ZM356.501 145.281L356.066 146.182L356.067 146.182L356.501 145.281ZM354.501 130L355.124 130.782L354.501 130ZM373.658 130.062L373.03 130.841L373.033 130.843L373.658 130.062ZM377.408 137.844V138.844H378.408V137.844H377.408ZM369.814 137.844H368.814V138.844H369.814V137.844ZM368.189 134.219L367.518 134.961L367.526 134.968L368.189 134.219ZM359.783 133.906L359.195 133.097L359.188 133.102L359.783 133.906ZM365.626 141.688L365.408 142.663L365.414 142.665L365.626 141.688ZM372.626 144.031L372.149 144.91L372.155 144.913L372.162 144.917L372.626 144.031ZM376.408 147.281L375.565 147.82L375.571 147.83L376.408 147.281ZM373.876 159.312L374.473 160.115L374.477 160.112L373.876 159.312ZM349.689 150.844V149.844H348.689V150.844H349.689ZM357.064 150.844L358.062 150.786L358.007 149.844H357.064V150.844ZM359.095 155L358.478 155.787L358.487 155.794L359.095 155ZM368.626 155.312L369.211 156.124L369.221 156.116L368.626 155.312ZM371.189 152.312C371.189 150.623 370.456 149.268 369.034 148.373L367.968 150.065C368.796 150.586 369.189 151.294 369.189 152.312H371.189ZM369.041 148.377C367.776 147.566 365.782 146.912 363.175 146.365L362.765 148.322C365.325 148.859 367.018 149.455 367.961 150.06L369.041 148.377ZM363.175 146.365C360.644 145.834 358.57 145.168 356.935 144.38L356.067 146.182C357.891 147.061 360.13 147.77 362.765 148.322L363.175 146.365ZM356.937 144.381C355.149 143.517 353.876 142.491 353.05 141.333C352.231 140.186 351.814 138.858 351.814 137.312H349.814C349.814 139.246 350.345 140.986 351.422 142.495C352.491 143.994 354.062 145.213 356.066 146.182L356.937 144.381ZM351.814 137.312C351.814 134.726 352.883 132.568 355.124 130.782L353.878 129.218C351.203 131.349 349.814 134.065 349.814 137.312H351.814ZM355.124 130.782C357.371 128.992 360.263 128.062 363.876 128.062V126.062C359.907 126.062 356.548 127.091 353.878 129.218L355.124 130.782ZM363.876 128.062C367.752 128.062 370.772 129.019 373.03 130.841L374.285 129.284C371.585 127.106 368.084 126.062 363.876 126.062V128.062ZM373.033 130.843C375.297 132.655 376.408 134.962 376.408 137.844H378.408C378.408 134.351 377.018 131.47 374.282 129.282L373.033 130.843ZM377.408 136.844H369.814V138.844H377.408V136.844ZM370.814 137.844C370.814 136.102 370.151 134.62 368.851 133.47L367.526 134.968C368.393 135.734 368.814 136.669 368.814 137.844H370.814ZM368.859 133.477C367.553 132.296 365.857 131.75 363.876 131.75V133.75C365.479 133.75 366.658 134.183 367.518 134.961L368.859 133.477ZM363.876 131.75C362.056 131.75 360.47 132.172 359.195 133.097L360.37 134.716C361.22 134.099 362.363 133.75 363.876 133.75V131.75ZM359.188 133.102C357.892 134.061 357.22 135.39 357.22 137H359.22C359.22 136.027 359.59 135.293 360.377 134.71L359.188 133.102ZM357.22 137C357.22 138.505 357.88 139.724 359.138 140.554L360.239 138.884C359.539 138.422 359.22 137.828 359.22 137H357.22ZM359.138 140.554C360.29 141.313 362.442 142 365.408 142.663L365.845 140.712C362.852 140.042 361.046 139.416 360.239 138.884L359.138 140.554ZM365.414 142.665C368.348 143.301 370.579 144.057 372.149 144.91L373.104 143.153C371.299 142.172 368.862 141.366 365.838 140.71L365.414 142.665ZM372.162 144.917C373.758 145.754 374.869 146.731 375.565 147.82L377.25 146.743C376.321 145.29 374.911 144.1 373.091 143.146L372.162 144.917ZM375.571 147.83C376.279 148.908 376.658 150.25 376.658 151.906H378.658C378.658 149.937 378.203 148.196 377.244 146.733L375.571 147.83ZM376.658 151.906C376.658 154.62 375.556 156.798 373.275 158.513L374.477 160.112C377.238 158.035 378.658 155.276 378.658 151.906H376.658ZM373.279 158.51C370.977 160.223 367.903 161.125 363.97 161.125V163.125C368.204 163.125 371.734 162.152 374.473 160.115L373.279 158.51ZM363.97 161.125C361.321 161.125 358.999 160.647 356.983 159.717L356.145 161.533C358.462 162.603 361.078 163.125 363.97 163.125V161.125ZM356.983 159.717C354.958 158.783 353.419 157.517 352.324 155.932L350.678 157.068C352 158.983 353.836 160.467 356.145 161.533L356.983 159.717ZM352.324 155.932C351.225 154.34 350.689 152.651 350.689 150.844H348.689C348.689 153.079 349.361 155.16 350.678 157.068L352.324 155.932ZM349.689 151.844H357.064V149.844H349.689V151.844ZM356.065 150.902C356.184 152.938 356.972 154.607 358.478 155.787L359.712 154.213C358.718 153.435 358.152 152.332 358.062 150.786L356.065 150.902ZM358.487 155.794C359.958 156.922 361.849 157.438 364.064 157.438V155.438C362.153 155.438 360.732 154.995 359.703 154.206L358.487 155.794ZM364.064 157.438C366.164 157.438 367.928 157.048 369.211 156.124L368.042 154.501C367.242 155.077 365.963 155.438 364.064 155.438V157.438ZM369.221 156.116C370.501 155.169 371.189 153.878 371.189 152.312H369.189C369.189 153.205 368.834 153.914 368.031 154.509L369.221 156.116Z" fill="#3A415D"/>
<path d="M33.5 50.5L33.5 17L2.92866e-06 17L33.5 50.5Z" fill="#A0A8C8"/>
<defs>
<filter id="filter0_d" x="12" y="3.8147e-06" width="485" height="228" filterUnits="userSpaceOnUse" color-interpolation-filters="sRGB">
<feFlood flood-opacity="0" result="BackgroundImageFix"/>
<feColorMatrix in="SourceAlpha" type="matrix" values="0 0 0 0 0 0 0 0 0 0 0 0 0 0 0 0 0 0 127 0" result="hardAlpha"/>
<feMorphology radius="1" operator="dilate" in="SourceAlpha" result="effect1_dropShadow"/>
<feOffset dy="4"/>
<feGaussianBlur stdDeviation="10"/>
<feComposite in2="hardAlpha" operator="out"/>
<feColorMatrix type="matrix" values="0 0 0 0 0.533333 0 0 0 0 0.533333 0 0 0 0 0.533333 0 0 0 0.25 0"/>
<feBlend mode="normal" in2="BackgroundImageFix" result="effect1_dropShadow"/>
<feBlend mode="normal" in="SourceGraphic" in2="effect1_dropShadow" result="shape"/>
</filter>
</defs>
</svg>
