<svg width="276" height="356" viewBox="0 0 276 356" fill="none" xmlns="http://www.w3.org/2000/svg">
<g filter="url(#filter0_d)">
<rect x="21" y="17" width="234" height="314" rx="25" fill="white"/>
</g>
<path d="M83.166 305.139H78.209V315H73.7617V289.406H82.7617C85.7148 289.406 87.9941 290.068 89.5996 291.393C91.2051 292.717 92.0078 294.633 92.0078 297.141C92.0078 298.852 91.5918 300.287 90.7598 301.447C89.9395 302.596 88.791 303.48 87.3145 304.102L93.0625 314.771V315H88.2988L83.166 305.139ZM78.209 301.57H82.7793C84.2793 301.57 85.4512 301.195 86.2949 300.445C87.1387 299.684 87.5605 298.646 87.5605 297.334C87.5605 295.963 87.168 294.902 86.3828 294.152C85.6094 293.402 84.4492 293.016 82.9023 292.992H78.209V301.57ZM108.021 308.32C108.021 307.324 107.705 306.504 107.072 305.859C106.439 305.203 105.385 304.617 103.908 304.102C102.432 303.574 101.283 303.088 100.463 302.643C97.7324 301.178 96.3672 299.01 96.3672 296.139C96.3672 294.193 96.959 292.594 98.1426 291.34C99.3262 290.086 100.932 289.342 102.959 289.107V285.275H105.771V289.143C107.811 289.436 109.387 290.303 110.5 291.744C111.613 293.174 112.17 295.037 112.17 297.334H107.916C107.916 295.857 107.582 294.697 106.914 293.854C106.258 292.998 105.361 292.57 104.225 292.57C103.1 292.57 102.221 292.875 101.588 293.484C100.955 294.094 100.639 294.967 100.639 296.104C100.639 297.123 100.949 297.943 101.57 298.564C102.203 299.174 103.27 299.754 104.77 300.305C106.27 300.855 107.447 301.365 108.303 301.834C109.158 302.303 109.879 302.842 110.465 303.451C111.051 304.049 111.502 304.74 111.818 305.525C112.135 306.311 112.293 307.23 112.293 308.285C112.293 310.266 111.684 311.871 110.465 313.102C109.258 314.332 107.57 315.059 105.402 315.281V318.709H102.607V315.299C100.287 315.041 98.5 314.209 97.2461 312.803C96.0039 311.396 95.3828 309.533 95.3828 307.213H99.6543C99.6543 308.689 100.023 309.832 100.762 310.641C101.512 311.449 102.566 311.854 103.926 311.854C105.262 311.854 106.275 311.531 106.967 310.887C107.67 310.242 108.021 309.387 108.021 308.32ZM133.211 315H116.002V312.064L124.527 302.766C125.758 301.395 126.631 300.252 127.146 299.338C127.674 298.412 127.938 297.486 127.938 296.561C127.938 295.342 127.592 294.357 126.9 293.607C126.221 292.857 125.301 292.482 124.141 292.482C122.758 292.482 121.686 292.904 120.924 293.748C120.162 294.592 119.781 295.746 119.781 297.211H115.51C115.51 295.652 115.861 294.252 116.564 293.01C117.279 291.756 118.293 290.783 119.605 290.092C120.93 289.4 122.453 289.055 124.176 289.055C126.66 289.055 128.617 289.682 130.047 290.936C131.488 292.178 132.209 293.9 132.209 296.104C132.209 297.381 131.846 298.723 131.119 300.129C130.404 301.523 129.227 303.111 127.586 304.893L121.328 311.59H133.211V315ZM137.605 302.309L138.994 289.406H152.74V293.098H142.545L141.842 299.215C143.025 298.535 144.361 298.195 145.85 298.195C148.287 298.195 150.18 298.975 151.527 300.533C152.887 302.092 153.566 304.189 153.566 306.826C153.566 309.428 152.816 311.502 151.316 313.049C149.816 314.584 147.76 315.352 145.146 315.352C142.803 315.352 140.857 314.689 139.311 313.365C137.775 312.029 136.943 310.271 136.814 308.092H140.945C141.109 309.334 141.555 310.289 142.281 310.957C143.008 311.613 143.957 311.941 145.129 311.941C146.441 311.941 147.461 311.473 148.188 310.535C148.926 309.598 149.295 308.32 149.295 306.703C149.295 305.145 148.891 303.914 148.082 303.012C147.273 302.098 146.16 301.641 144.742 301.641C143.969 301.641 143.312 301.746 142.773 301.957C142.234 302.156 141.648 302.555 141.016 303.152L137.605 302.309ZM157.803 320.766L155.5 319.395C156.18 318.328 156.643 317.396 156.889 316.6C157.146 315.814 157.281 315.012 157.293 314.191V310.869H161.143L161.125 313.945C161.113 315.188 160.797 316.43 160.176 317.672C159.566 318.926 158.775 319.957 157.803 320.766ZM181.516 304.225C181.516 307.904 180.824 310.682 179.441 312.557C178.07 314.42 175.979 315.352 173.166 315.352C170.4 315.352 168.314 314.443 166.908 312.627C165.514 310.799 164.799 308.098 164.764 304.523V300.094C164.764 296.414 165.449 293.654 166.82 291.814C168.203 289.975 170.307 289.055 173.131 289.055C175.932 289.055 178.018 289.951 179.389 291.744C180.771 293.537 181.48 296.221 181.516 299.795V304.225ZM177.244 299.443C177.244 297.041 176.916 295.283 176.26 294.17C175.604 293.045 174.561 292.482 173.131 292.482C171.736 292.482 170.711 293.016 170.055 294.082C169.398 295.137 169.053 296.789 169.018 299.039V304.84C169.018 307.23 169.352 309.012 170.02 310.184C170.688 311.355 171.736 311.941 173.166 311.941C174.537 311.941 175.551 311.402 176.207 310.324C176.863 309.234 177.209 307.535 177.244 305.227V299.443ZM201.977 304.225C201.977 307.904 201.285 310.682 199.902 312.557C198.531 314.42 196.439 315.352 193.627 315.352C190.861 315.352 188.775 314.443 187.369 312.627C185.975 310.799 185.26 308.098 185.225 304.523V300.094C185.225 296.414 185.91 293.654 187.281 291.814C188.664 289.975 190.768 289.055 193.592 289.055C196.393 289.055 198.479 289.951 199.85 291.744C201.232 293.537 201.941 296.221 201.977 299.795V304.225ZM197.705 299.443C197.705 297.041 197.377 295.283 196.721 294.17C196.064 293.045 195.021 292.482 193.592 292.482C192.197 292.482 191.172 293.016 190.516 294.082C189.859 295.137 189.514 296.789 189.479 299.039V304.84C189.479 307.23 189.812 309.012 190.48 310.184C191.148 311.355 192.197 311.941 193.627 311.941C194.998 311.941 196.012 311.402 196.668 310.324C197.324 309.234 197.67 307.535 197.705 305.227V299.443Z" fill="#3A415D"/>
<g filter="url(#filter1_d)">
<path d="M21 42C21 28.1929 32.1929 17 46 17H230C243.807 17 255 28.1929 255 42V94C255 95.1046 254.105 96 253 96H21V42Z" fill="#717BA5"/>
</g>
<path d="M51.2109 71.7344H68.7188V73H49.9219V38.875H51.2109V71.7344ZM76.9219 73H75.6562V38.875H76.9219V73ZM111.82 73H110.555L88.5234 41.0312V73H87.2344V38.875H88.5234L110.555 70.7734V38.875H111.82V73ZM139.594 56.0781H122.484V71.7344H141.984V73H121.219V38.875H141.984V40.1406H122.484V54.8125H139.594V56.0781ZM166.523 62.8047H149.812L146.016 73H144.633L157.406 38.875H158.953L171.727 73H170.344L166.523 62.8047ZM150.281 61.5391H166.055L158.18 40.3984L150.281 61.5391ZM190.219 58.3984H178.383V73H177.117V38.875H187.992C191.414 38.875 194.133 39.7578 196.148 41.5234C198.18 43.2891 199.195 45.6875 199.195 48.7188C199.195 51.0469 198.469 53.0859 197.016 54.8359C195.578 56.5703 193.742 57.6484 191.508 58.0703L200.625 72.6719V73H199.289L190.219 58.3984ZM178.383 57.1328H189.141C191.766 57.1328 193.883 56.3359 195.492 54.7422C197.117 53.1484 197.93 51.1406 197.93 48.7188C197.93 46.0625 197.031 43.9688 195.234 42.4375C193.453 40.9062 191.008 40.1406 187.898 40.1406H178.383V57.1328ZM229.477 40.1406H217.055V73H215.789V40.1406H203.367V38.875H229.477V40.1406Z" fill="white"/>
<path d="M89.8574 134.626H91.1582C91.8145 134.62 92.333 134.45 92.7139 134.116C93.1006 133.782 93.2939 133.299 93.2939 132.666C93.2939 132.057 93.1328 131.585 92.8105 131.251C92.4941 130.911 92.0078 130.741 91.3516 130.741C90.7773 130.741 90.3057 130.908 89.9365 131.242C89.5674 131.57 89.3828 132.001 89.3828 132.534H87.2471C87.2471 131.878 87.4199 131.28 87.7656 130.741C88.1172 130.202 88.6035 129.783 89.2246 129.484C89.8516 129.18 90.5518 129.027 91.3252 129.027C92.6025 129.027 93.6045 129.35 94.3311 129.994C95.0635 130.633 95.4297 131.523 95.4297 132.666C95.4297 133.24 95.2451 133.782 94.876 134.292C94.5127 134.796 94.041 135.177 93.4609 135.435C94.1641 135.675 94.6973 136.053 95.0605 136.568C95.4297 137.084 95.6143 137.699 95.6143 138.414C95.6143 139.562 95.2188 140.477 94.4277 141.156C93.6426 141.836 92.6084 142.176 91.3252 142.176C90.0947 142.176 89.0869 141.848 88.3018 141.191C87.5166 140.535 87.124 139.662 87.124 138.572H89.2598C89.2598 139.135 89.4473 139.592 89.8223 139.943C90.2031 140.295 90.7129 140.471 91.3516 140.471C92.0137 140.471 92.5352 140.295 92.916 139.943C93.2969 139.592 93.4873 139.082 93.4873 138.414C93.4873 137.74 93.2881 137.222 92.8896 136.858C92.4912 136.495 91.8994 136.313 91.1143 136.313H89.8574V134.626ZM97.7852 136.797C97.7852 135.443 97.9668 134.16 98.3301 132.947C98.6934 131.729 99.2266 130.642 99.9297 129.687C100.633 128.726 101.377 128.052 102.162 127.665L102.584 128.913C101.758 129.54 101.087 130.498 100.571 131.787C100.062 133.07 99.7832 134.541 99.7363 136.199L99.7275 136.955C99.7275 138.73 99.9766 140.315 100.475 141.71C100.979 143.099 101.682 144.156 102.584 144.883L102.162 146.069C101.377 145.683 100.63 145.006 99.9209 144.039C99.2178 143.078 98.6846 141.994 98.3213 140.787C97.9639 139.574 97.7852 138.244 97.7852 136.797ZM106.706 130.179V132.49H108.385V134.072H106.706V139.381C106.706 139.744 106.776 140.008 106.917 140.172C107.063 140.33 107.321 140.409 107.69 140.409C107.937 140.409 108.186 140.38 108.438 140.321V141.974C107.951 142.108 107.482 142.176 107.031 142.176C105.391 142.176 104.57 141.271 104.57 139.46V134.072H103.006V132.49H104.57V130.179H106.706ZM115.003 134.441C114.722 134.395 114.432 134.371 114.133 134.371C113.154 134.371 112.495 134.746 112.155 135.496V142H110.02V132.49H112.059L112.111 133.554C112.627 132.728 113.342 132.314 114.256 132.314C114.561 132.314 114.812 132.355 115.012 132.438L115.003 134.441ZM120.364 142.176C119.011 142.176 117.912 141.751 117.068 140.901C116.23 140.046 115.812 138.909 115.812 137.491V137.228C115.812 136.278 115.993 135.432 116.356 134.688C116.726 133.938 117.241 133.354 117.903 132.938C118.565 132.522 119.304 132.314 120.118 132.314C121.413 132.314 122.412 132.728 123.115 133.554C123.824 134.38 124.179 135.549 124.179 137.061V137.922H117.965C118.029 138.707 118.29 139.328 118.747 139.785C119.21 140.242 119.79 140.471 120.487 140.471C121.466 140.471 122.263 140.075 122.878 139.284L124.029 140.383C123.648 140.951 123.139 141.394 122.5 141.71C121.867 142.021 121.155 142.176 120.364 142.176ZM120.109 134.028C119.523 134.028 119.049 134.233 118.686 134.644C118.328 135.054 118.1 135.625 118 136.357H122.069V136.199C122.022 135.484 121.832 134.945 121.498 134.582C121.164 134.213 120.701 134.028 120.109 134.028ZM122.992 130.935V131.031H121.278L119.96 129.66L118.65 131.031H116.954V130.917L119.336 128.491H120.593L122.992 130.935ZM131.175 139.416C131.175 139.035 131.017 138.745 130.7 138.546C130.39 138.347 129.871 138.171 129.145 138.019C128.418 137.866 127.812 137.673 127.325 137.438C126.259 136.923 125.726 136.176 125.726 135.197C125.726 134.377 126.071 133.691 126.763 133.141C127.454 132.59 128.333 132.314 129.399 132.314C130.536 132.314 131.453 132.596 132.15 133.158C132.854 133.721 133.205 134.45 133.205 135.347H131.069C131.069 134.937 130.917 134.597 130.612 134.327C130.308 134.052 129.903 133.914 129.399 133.914C128.931 133.914 128.547 134.022 128.248 134.239C127.955 134.456 127.809 134.746 127.809 135.109C127.809 135.438 127.946 135.692 128.222 135.874C128.497 136.056 129.054 136.24 129.892 136.428C130.729 136.609 131.386 136.829 131.86 137.087C132.341 137.339 132.695 137.644 132.924 138.001C133.158 138.358 133.275 138.792 133.275 139.302C133.275 140.157 132.921 140.852 132.212 141.385C131.503 141.912 130.574 142.176 129.426 142.176C128.646 142.176 127.952 142.035 127.343 141.754C126.733 141.473 126.259 141.086 125.919 140.594C125.579 140.102 125.409 139.571 125.409 139.003H127.483C127.513 139.507 127.703 139.896 128.055 140.172C128.406 140.441 128.872 140.576 129.452 140.576C130.015 140.576 130.442 140.471 130.735 140.26C131.028 140.043 131.175 139.762 131.175 139.416ZM139.261 136.938C139.261 138.238 139.082 139.495 138.725 140.708C138.367 141.915 137.825 143.014 137.099 144.004C136.372 145 135.613 145.688 134.822 146.069L134.4 144.883C135.279 144.203 135.974 143.166 136.483 141.771C136.999 140.371 137.257 138.774 137.257 136.981V136.779C137.257 135.15 137.034 133.668 136.589 132.332C136.144 130.99 135.505 129.915 134.673 129.106L134.4 128.86L134.822 127.665C135.572 128.028 136.299 128.673 137.002 129.599C137.705 130.524 138.244 131.562 138.619 132.71C138.994 133.853 139.205 135.033 139.252 136.252L139.261 136.938ZM154.299 137.342C154.299 138.812 153.965 139.987 153.297 140.866C152.629 141.739 151.732 142.176 150.607 142.176C149.564 142.176 148.729 141.833 148.103 141.147V145.656H145.967V132.49H147.936L148.023 133.457C148.65 132.695 149.503 132.314 150.581 132.314C151.741 132.314 152.649 132.748 153.306 133.615C153.968 134.477 154.299 135.675 154.299 137.21V137.342ZM152.172 137.157C152.172 136.208 151.981 135.455 151.601 134.898C151.226 134.342 150.687 134.063 149.983 134.063C149.11 134.063 148.483 134.424 148.103 135.145V139.363C148.489 140.102 149.122 140.471 150.001 140.471C150.681 140.471 151.211 140.198 151.592 139.653C151.979 139.103 152.172 138.271 152.172 137.157ZM160.302 142.176C158.948 142.176 157.85 141.751 157.006 140.901C156.168 140.046 155.749 138.909 155.749 137.491V137.228C155.749 136.278 155.931 135.432 156.294 134.688C156.663 133.938 157.179 133.354 157.841 132.938C158.503 132.522 159.241 132.314 160.056 132.314C161.351 132.314 162.35 132.728 163.053 133.554C163.762 134.38 164.116 135.549 164.116 137.061V137.922H157.902C157.967 138.707 158.228 139.328 158.685 139.785C159.147 140.242 159.728 140.471 160.425 140.471C161.403 140.471 162.2 140.075 162.815 139.284L163.967 140.383C163.586 140.951 163.076 141.394 162.438 141.71C161.805 142.021 161.093 142.176 160.302 142.176ZM160.047 134.028C159.461 134.028 158.986 134.233 158.623 134.644C158.266 135.054 158.037 135.625 157.938 136.357H162.007V136.199C161.96 135.484 161.77 134.945 161.436 134.582C161.102 134.213 160.639 134.028 160.047 134.028ZM171.112 139.416C171.112 139.035 170.954 138.745 170.638 138.546C170.327 138.347 169.809 138.171 169.082 138.019C168.355 137.866 167.749 137.673 167.263 137.438C166.196 136.923 165.663 136.176 165.663 135.197C165.663 134.377 166.009 133.691 166.7 133.141C167.392 132.59 168.271 132.314 169.337 132.314C170.474 132.314 171.391 132.596 172.088 133.158C172.791 133.721 173.143 134.45 173.143 135.347H171.007C171.007 134.937 170.854 134.597 170.55 134.327C170.245 134.052 169.841 133.914 169.337 133.914C168.868 133.914 168.484 134.022 168.186 134.239C167.893 134.456 167.746 134.746 167.746 135.109C167.746 135.438 167.884 135.692 168.159 135.874C168.435 136.056 168.991 136.24 169.829 136.428C170.667 136.609 171.323 136.829 171.798 137.087C172.278 137.339 172.633 137.644 172.861 138.001C173.096 138.358 173.213 138.792 173.213 139.302C173.213 140.157 172.858 140.852 172.149 141.385C171.44 141.912 170.512 142.176 169.363 142.176C168.584 142.176 167.89 142.035 167.28 141.754C166.671 141.473 166.196 141.086 165.856 140.594C165.517 140.102 165.347 139.571 165.347 139.003H167.421C167.45 139.507 167.641 139.896 167.992 140.172C168.344 140.441 168.81 140.576 169.39 140.576C169.952 140.576 170.38 140.471 170.673 140.26C170.966 140.043 171.112 139.762 171.112 139.416ZM180.411 139.416C180.411 139.035 180.253 138.745 179.937 138.546C179.626 138.347 179.107 138.171 178.381 138.019C177.654 137.866 177.048 137.673 176.562 137.438C175.495 136.923 174.962 136.176 174.962 135.197C174.962 134.377 175.308 133.691 175.999 133.141C176.69 132.59 177.569 132.314 178.636 132.314C179.772 132.314 180.689 132.596 181.387 133.158C182.09 133.721 182.441 134.45 182.441 135.347H180.306C180.306 134.937 180.153 134.597 179.849 134.327C179.544 134.052 179.14 133.914 178.636 133.914C178.167 133.914 177.783 134.022 177.484 134.239C177.191 134.456 177.045 134.746 177.045 135.109C177.045 135.438 177.183 135.692 177.458 135.874C177.733 136.056 178.29 136.24 179.128 136.428C179.966 136.609 180.622 136.829 181.097 137.087C181.577 137.339 181.932 137.644 182.16 138.001C182.395 138.358 182.512 138.792 182.512 139.302C182.512 140.157 182.157 140.852 181.448 141.385C180.739 141.912 179.811 142.176 178.662 142.176C177.883 142.176 177.188 142.035 176.579 141.754C175.97 141.473 175.495 141.086 175.155 140.594C174.815 140.102 174.646 139.571 174.646 139.003H176.72C176.749 139.507 176.939 139.896 177.291 140.172C177.643 140.441 178.108 140.576 178.688 140.576C179.251 140.576 179.679 140.471 179.972 140.26C180.265 140.043 180.411 139.762 180.411 139.416ZM183.979 137.157C183.979 136.226 184.164 135.388 184.533 134.644C184.902 133.894 185.421 133.319 186.089 132.921C186.757 132.517 187.524 132.314 188.392 132.314C189.675 132.314 190.715 132.728 191.512 133.554C192.314 134.38 192.748 135.476 192.812 136.841L192.821 137.342C192.821 138.279 192.64 139.117 192.276 139.855C191.919 140.594 191.403 141.165 190.729 141.569C190.062 141.974 189.288 142.176 188.409 142.176C187.067 142.176 185.992 141.73 185.184 140.84C184.381 139.943 183.979 138.751 183.979 137.263V137.157ZM186.115 137.342C186.115 138.32 186.317 139.088 186.722 139.645C187.126 140.195 187.688 140.471 188.409 140.471C189.13 140.471 189.689 140.189 190.088 139.627C190.492 139.064 190.694 138.241 190.694 137.157C190.694 136.196 190.486 135.435 190.07 134.872C189.66 134.31 189.101 134.028 188.392 134.028C187.694 134.028 187.141 134.307 186.73 134.863C186.32 135.414 186.115 136.24 186.115 137.342ZM200.31 142C200.216 141.818 200.134 141.522 200.063 141.112C199.384 141.821 198.552 142.176 197.567 142.176C196.612 142.176 195.833 141.903 195.229 141.358C194.626 140.813 194.324 140.14 194.324 139.337C194.324 138.323 194.699 137.547 195.449 137.008C196.205 136.463 197.283 136.19 198.684 136.19H199.993V135.566C199.993 135.074 199.855 134.682 199.58 134.389C199.305 134.09 198.886 133.94 198.323 133.94C197.837 133.94 197.438 134.063 197.128 134.31C196.817 134.55 196.662 134.857 196.662 135.232H194.526C194.526 134.711 194.699 134.225 195.045 133.773C195.391 133.316 195.859 132.959 196.451 132.701C197.049 132.443 197.714 132.314 198.446 132.314C199.56 132.314 200.447 132.596 201.109 133.158C201.771 133.715 202.111 134.5 202.129 135.514V139.803C202.129 140.658 202.249 141.341 202.489 141.851V142H200.31ZM197.963 140.462C198.385 140.462 198.78 140.359 199.149 140.154C199.524 139.949 199.806 139.674 199.993 139.328V137.535H198.842C198.051 137.535 197.456 137.673 197.058 137.948C196.659 138.224 196.46 138.613 196.46 139.117C196.46 139.527 196.595 139.855 196.864 140.102C197.14 140.342 197.506 140.462 197.963 140.462ZM209.696 139.416C209.696 139.035 209.538 138.745 209.222 138.546C208.911 138.347 208.393 138.171 207.666 138.019C206.939 137.866 206.333 137.673 205.847 137.438C204.78 136.923 204.247 136.176 204.247 135.197C204.247 134.377 204.593 133.691 205.284 133.141C205.976 132.59 206.854 132.314 207.921 132.314C209.058 132.314 209.975 132.596 210.672 133.158C211.375 133.721 211.727 134.45 211.727 135.347H209.591C209.591 134.937 209.438 134.597 209.134 134.327C208.829 134.052 208.425 133.914 207.921 133.914C207.452 133.914 207.068 134.022 206.77 134.239C206.477 134.456 206.33 134.746 206.33 135.109C206.33 135.438 206.468 135.692 206.743 135.874C207.019 136.056 207.575 136.24 208.413 136.428C209.251 136.609 209.907 136.829 210.382 137.087C210.862 137.339 211.217 137.644 211.445 138.001C211.68 138.358 211.797 138.792 211.797 139.302C211.797 140.157 211.442 140.852 210.733 141.385C210.024 141.912 209.096 142.176 207.947 142.176C207.168 142.176 206.474 142.035 205.864 141.754C205.255 141.473 204.78 141.086 204.44 140.594C204.101 140.102 203.931 139.571 203.931 139.003H206.005C206.034 139.507 206.225 139.896 206.576 140.172C206.928 140.441 207.394 140.576 207.974 140.576C208.536 140.576 208.964 140.471 209.257 140.26C209.55 140.043 209.696 139.762 209.696 139.416Z" fill="#3A415D"/>
<path d="M96.7402 178.021H91.7832L90.7461 181H88.4346L93.2686 168.203H95.2637L100.106 181H97.7861L96.7402 178.021ZM92.4072 176.228H96.1162L94.2617 170.919L92.4072 176.228ZM109.265 176.342C109.265 177.812 108.931 178.987 108.263 179.866C107.595 180.739 106.698 181.176 105.573 181.176C104.53 181.176 103.695 180.833 103.068 180.147V184.656H100.933V171.49H102.901L102.989 172.457C103.616 171.695 104.469 171.314 105.547 171.314C106.707 171.314 107.615 171.748 108.271 172.615C108.934 173.477 109.265 174.675 109.265 176.21V176.342ZM107.138 176.157C107.138 175.208 106.947 174.455 106.566 173.898C106.191 173.342 105.652 173.063 104.949 173.063C104.076 173.063 103.449 173.424 103.068 174.145V178.363C103.455 179.102 104.088 179.471 104.967 179.471C105.646 179.471 106.177 179.198 106.558 178.653C106.944 178.103 107.138 177.271 107.138 176.157ZM115.268 181.176C113.914 181.176 112.815 180.751 111.972 179.901C111.134 179.046 110.715 177.909 110.715 176.491V176.228C110.715 175.278 110.896 174.432 111.26 173.688C111.629 172.938 112.145 172.354 112.807 171.938C113.469 171.522 114.207 171.314 115.021 171.314C116.316 171.314 117.315 171.728 118.019 172.554C118.728 173.38 119.082 174.549 119.082 176.061V176.922H112.868C112.933 177.707 113.193 178.328 113.65 178.785C114.113 179.242 114.693 179.471 115.391 179.471C116.369 179.471 117.166 179.075 117.781 178.284L118.933 179.383C118.552 179.951 118.042 180.394 117.403 180.71C116.771 181.021 116.059 181.176 115.268 181.176ZM115.013 173.028C114.427 173.028 113.952 173.233 113.589 173.644C113.231 174.054 113.003 174.625 112.903 175.357H116.973V175.199C116.926 174.484 116.735 173.945 116.401 173.582C116.067 173.213 115.604 173.028 115.013 173.028ZM122.729 171.49L122.791 172.589C123.494 171.739 124.417 171.314 125.56 171.314C127.54 171.314 128.548 172.448 128.583 174.716V181H126.447V174.839C126.447 174.235 126.315 173.79 126.052 173.503C125.794 173.21 125.369 173.063 124.777 173.063C123.916 173.063 123.274 173.453 122.853 174.232V181H120.717V171.49H122.729ZM136.449 181C136.355 180.818 136.273 180.522 136.203 180.112C135.523 180.821 134.691 181.176 133.707 181.176C132.752 181.176 131.973 180.903 131.369 180.358C130.766 179.813 130.464 179.14 130.464 178.337C130.464 177.323 130.839 176.547 131.589 176.008C132.345 175.463 133.423 175.19 134.823 175.19H136.133V174.566C136.133 174.074 135.995 173.682 135.72 173.389C135.444 173.09 135.025 172.94 134.463 172.94C133.977 172.94 133.578 173.063 133.268 173.31C132.957 173.55 132.802 173.857 132.802 174.232H130.666C130.666 173.711 130.839 173.225 131.185 172.773C131.53 172.316 131.999 171.959 132.591 171.701C133.188 171.443 133.854 171.314 134.586 171.314C135.699 171.314 136.587 171.596 137.249 172.158C137.911 172.715 138.251 173.5 138.269 174.514V178.803C138.269 179.658 138.389 180.341 138.629 180.851V181H136.449ZM134.103 179.462C134.524 179.462 134.92 179.359 135.289 179.154C135.664 178.949 135.945 178.674 136.133 178.328V176.535H134.981C134.19 176.535 133.596 176.673 133.197 176.948C132.799 177.224 132.6 177.613 132.6 178.117C132.6 178.527 132.734 178.855 133.004 179.102C133.279 179.342 133.646 179.462 134.103 179.462ZM145.836 178.416C145.836 178.035 145.678 177.745 145.361 177.546C145.051 177.347 144.532 177.171 143.806 177.019C143.079 176.866 142.473 176.673 141.986 176.438C140.92 175.923 140.387 175.176 140.387 174.197C140.387 173.377 140.732 172.691 141.424 172.141C142.115 171.59 142.994 171.314 144.061 171.314C145.197 171.314 146.114 171.596 146.812 172.158C147.515 172.721 147.866 173.45 147.866 174.347H145.73C145.73 173.937 145.578 173.597 145.273 173.327C144.969 173.052 144.564 172.914 144.061 172.914C143.592 172.914 143.208 173.022 142.909 173.239C142.616 173.456 142.47 173.746 142.47 174.109C142.47 174.438 142.607 174.692 142.883 174.874C143.158 175.056 143.715 175.24 144.553 175.428C145.391 175.609 146.047 175.829 146.521 176.087C147.002 176.339 147.356 176.644 147.585 177.001C147.819 177.358 147.937 177.792 147.937 178.302C147.937 179.157 147.582 179.852 146.873 180.385C146.164 180.912 145.235 181.176 144.087 181.176C143.308 181.176 142.613 181.035 142.004 180.754C141.395 180.473 140.92 180.086 140.58 179.594C140.24 179.102 140.07 178.571 140.07 178.003H142.145C142.174 178.507 142.364 178.896 142.716 179.172C143.067 179.441 143.533 179.576 144.113 179.576C144.676 179.576 145.104 179.471 145.396 179.26C145.689 179.043 145.836 178.762 145.836 178.416ZM156.717 179.225H162.526V181H154.493V168.203H156.717V179.225ZM166.297 181H164.161V171.49H166.297V181ZM164.029 169.021C164.029 168.692 164.132 168.42 164.337 168.203C164.548 167.986 164.847 167.878 165.233 167.878C165.62 167.878 165.919 167.986 166.13 168.203C166.341 168.42 166.446 168.692 166.446 169.021C166.446 169.343 166.341 169.612 166.13 169.829C165.919 170.04 165.62 170.146 165.233 170.146C164.847 170.146 164.548 170.04 164.337 169.829C164.132 169.612 164.029 169.343 164.029 169.021ZM170.612 171.49L170.674 172.589C171.377 171.739 172.3 171.314 173.442 171.314C175.423 171.314 176.431 172.448 176.466 174.716V181H174.33V174.839C174.33 174.235 174.198 173.79 173.935 173.503C173.677 173.21 173.252 173.063 172.66 173.063C171.799 173.063 171.157 173.453 170.735 174.232V181H168.6V171.49H170.612ZM182.838 181.176C181.484 181.176 180.386 180.751 179.542 179.901C178.704 179.046 178.285 177.909 178.285 176.491V176.228C178.285 175.278 178.467 174.432 178.83 173.688C179.199 172.938 179.715 172.354 180.377 171.938C181.039 171.522 181.777 171.314 182.592 171.314C183.887 171.314 184.886 171.728 185.589 172.554C186.298 173.38 186.652 174.549 186.652 176.061V176.922H180.438C180.503 177.707 180.764 178.328 181.221 178.785C181.684 179.242 182.264 179.471 182.961 179.471C183.939 179.471 184.736 179.075 185.352 178.284L186.503 179.383C186.122 179.951 185.612 180.394 184.974 180.71C184.341 181.021 183.629 181.176 182.838 181.176ZM182.583 173.028C181.997 173.028 181.522 173.233 181.159 173.644C180.802 174.054 180.573 174.625 180.474 175.357H184.543V175.199C184.496 174.484 184.306 173.945 183.972 173.582C183.638 173.213 183.175 173.028 182.583 173.028ZM194 181C193.906 180.818 193.824 180.522 193.754 180.112C193.074 180.821 192.242 181.176 191.258 181.176C190.303 181.176 189.523 180.903 188.92 180.358C188.316 179.813 188.015 179.14 188.015 178.337C188.015 177.323 188.39 176.547 189.14 176.008C189.896 175.463 190.974 175.19 192.374 175.19H193.684V174.566C193.684 174.074 193.546 173.682 193.271 173.389C192.995 173.09 192.576 172.94 192.014 172.94C191.527 172.94 191.129 173.063 190.818 173.31C190.508 173.55 190.353 173.857 190.353 174.232H188.217C188.217 173.711 188.39 173.225 188.735 172.773C189.081 172.316 189.55 171.959 190.142 171.701C190.739 171.443 191.404 171.314 192.137 171.314C193.25 171.314 194.138 171.596 194.8 172.158C195.462 172.715 195.802 173.5 195.819 174.514V178.803C195.819 179.658 195.939 180.341 196.18 180.851V181H194ZM191.653 179.462C192.075 179.462 192.471 179.359 192.84 179.154C193.215 178.949 193.496 178.674 193.684 178.328V176.535H192.532C191.741 176.535 191.146 176.673 190.748 176.948C190.35 177.224 190.15 177.613 190.15 178.117C190.15 178.527 190.285 178.855 190.555 179.102C190.83 179.342 191.196 179.462 191.653 179.462ZM203.035 173.441C202.754 173.395 202.464 173.371 202.165 173.371C201.187 173.371 200.527 173.746 200.188 174.496V181H198.052V171.49H200.091L200.144 172.554C200.659 171.728 201.374 171.314 202.288 171.314C202.593 171.314 202.845 171.355 203.044 171.438L203.035 173.441ZM207.5 169.179V171.49H209.179V173.072H207.5V178.381C207.5 178.744 207.57 179.008 207.711 179.172C207.857 179.33 208.115 179.409 208.484 179.409C208.73 179.409 208.979 179.38 209.231 179.321V180.974C208.745 181.108 208.276 181.176 207.825 181.176C206.185 181.176 205.364 180.271 205.364 178.46V173.072H203.8V171.49H205.364V169.179H207.5Z" fill="#3A415D"/>
<path d="M91.7494 216.225H97.559V218H89.5258V205.203H91.7494V216.225ZM100.699 218H98.5637V208.49H100.699V218ZM98.4319 206.021C98.4319 205.692 98.5345 205.42 98.7395 205.203C98.9505 204.986 99.2493 204.878 99.636 204.878C100.023 204.878 100.322 204.986 100.532 205.203C100.743 205.42 100.849 205.692 100.849 206.021C100.849 206.343 100.743 206.612 100.532 206.829C100.322 207.04 100.023 207.146 99.636 207.146C99.2493 207.146 98.9505 207.04 98.7395 206.829C98.5345 206.612 98.4319 206.343 98.4319 206.021ZM104.385 208.49L104.446 209.589C105.15 208.739 106.072 208.314 107.215 208.314C109.195 208.314 110.203 209.448 110.238 211.716V218H108.103V211.839C108.103 211.235 107.971 210.79 107.707 210.503C107.449 210.21 107.025 210.063 106.433 210.063C105.571 210.063 104.93 210.453 104.508 211.232V218H102.372V208.49H104.385ZM113.897 209.527C114.595 208.719 115.477 208.314 116.543 208.314C118.57 208.314 119.599 209.472 119.628 211.786V218H117.492V211.865C117.492 211.209 117.349 210.746 117.062 210.477C116.78 210.201 116.364 210.063 115.814 210.063C114.958 210.063 114.319 210.444 113.897 211.206V218H111.762V204.5H113.897V209.527ZM126.847 218C126.753 217.818 126.671 217.522 126.601 217.112C125.921 217.821 125.089 218.176 124.104 218.176C123.149 218.176 122.37 217.903 121.767 217.358C121.163 216.813 120.861 216.14 120.861 215.337C120.861 214.323 121.236 213.547 121.986 213.008C122.742 212.463 123.82 212.19 125.221 212.19H126.53V211.566C126.53 211.074 126.392 210.682 126.117 210.389C125.842 210.09 125.423 209.94 124.86 209.94C124.374 209.94 123.976 210.063 123.665 210.31C123.354 210.55 123.199 210.857 123.199 211.232H121.063C121.063 210.711 121.236 210.225 121.582 209.773C121.928 209.316 122.396 208.959 122.988 208.701C123.586 208.443 124.251 208.314 124.983 208.314C126.097 208.314 126.984 208.596 127.646 209.158C128.309 209.715 128.648 210.5 128.666 211.514V215.803C128.666 216.658 128.786 217.341 129.026 217.851V218H126.847ZM124.5 216.462C124.922 216.462 125.317 216.359 125.686 216.154C126.061 215.949 126.343 215.674 126.53 215.328V213.535H125.379C124.588 213.535 123.993 213.673 123.595 213.948C123.196 214.224 122.997 214.613 122.997 215.117C122.997 215.527 123.132 215.855 123.401 216.102C123.677 216.342 124.043 216.462 124.5 216.462ZM138.313 218.176C136.96 218.176 135.861 217.751 135.017 216.901C134.179 216.046 133.76 214.909 133.76 213.491V213.228C133.76 212.278 133.942 211.432 134.305 210.688C134.674 209.938 135.19 209.354 135.852 208.938C136.514 208.522 137.253 208.314 138.067 208.314C139.362 208.314 140.361 208.728 141.064 209.554C141.773 210.38 142.128 211.549 142.128 213.061V213.922H135.914C135.978 214.707 136.239 215.328 136.696 215.785C137.159 216.242 137.739 216.471 138.436 216.471C139.415 216.471 140.212 216.075 140.827 215.284L141.978 216.383C141.597 216.951 141.088 217.394 140.449 217.71C139.816 218.021 139.104 218.176 138.313 218.176ZM138.058 210.028C137.472 210.028 136.998 210.233 136.634 210.644C136.277 211.054 136.049 211.625 135.949 212.357H140.018V212.199C139.971 211.484 139.781 210.945 139.447 210.582C139.113 210.213 138.65 210.028 138.058 210.028ZM150.922 216.471C151.456 216.471 151.898 216.315 152.249 216.005C152.601 215.694 152.789 215.311 152.812 214.854H154.825C154.801 215.445 154.617 215.999 154.271 216.515C153.925 217.024 153.456 217.429 152.865 217.728C152.273 218.026 151.634 218.176 150.949 218.176C149.619 218.176 148.564 217.745 147.785 216.884C147.005 216.022 146.616 214.833 146.616 213.315V213.096C146.616 211.648 147.002 210.491 147.776 209.624C148.549 208.751 149.604 208.314 150.94 208.314C152.071 208.314 152.991 208.646 153.7 209.308C154.414 209.964 154.789 210.828 154.825 211.9H152.812C152.789 211.355 152.601 210.907 152.249 210.556C151.904 210.204 151.461 210.028 150.922 210.028C150.231 210.028 149.698 210.28 149.323 210.784C148.948 211.282 148.757 212.041 148.751 213.061V213.403C148.751 214.435 148.936 215.205 149.305 215.715C149.68 216.219 150.219 216.471 150.922 216.471ZM155.408 213.157C155.408 212.226 155.592 211.388 155.961 210.644C156.33 209.894 156.849 209.319 157.517 208.921C158.185 208.517 158.952 208.314 159.82 208.314C161.103 208.314 162.143 208.728 162.94 209.554C163.743 210.38 164.176 211.476 164.241 212.841L164.249 213.342C164.249 214.279 164.068 215.117 163.704 215.855C163.347 216.594 162.831 217.165 162.158 217.569C161.49 217.974 160.716 218.176 159.837 218.176C158.495 218.176 157.42 217.73 156.612 216.84C155.809 215.943 155.408 214.751 155.408 213.263V213.157ZM157.543 213.342C157.543 214.32 157.745 215.088 158.15 215.645C158.554 216.195 159.117 216.471 159.837 216.471C160.558 216.471 161.118 216.189 161.516 215.627C161.92 215.064 162.122 214.241 162.122 213.157C162.122 212.196 161.914 211.435 161.498 210.872C161.088 210.31 160.529 210.028 159.82 210.028C159.122 210.028 158.569 210.307 158.159 210.863C157.748 211.414 157.543 212.24 157.543 213.342ZM167.407 208.49L167.469 209.589C168.172 208.739 169.095 208.314 170.237 208.314C172.218 208.314 173.226 209.448 173.261 211.716V218H171.125V211.839C171.125 211.235 170.993 210.79 170.73 210.503C170.472 210.21 170.047 210.063 169.455 210.063C168.594 210.063 167.952 210.453 167.53 211.232V218H165.395V208.49H167.407ZM177.491 206.179V208.49H179.17V210.072H177.491V215.381C177.491 215.744 177.562 216.008 177.702 216.172C177.849 216.33 178.107 216.409 178.476 216.409C178.722 216.409 178.971 216.38 179.223 216.321V217.974C178.736 218.108 178.268 218.176 177.816 218.176C176.176 218.176 175.356 217.271 175.356 215.46V210.072H173.791V208.49H175.356V206.179H177.491ZM179.516 213.157C179.516 212.226 179.7 211.388 180.069 210.644C180.438 209.894 180.957 209.319 181.625 208.921C182.293 208.517 183.061 208.314 183.928 208.314C185.211 208.314 186.251 208.728 187.048 209.554C187.851 210.38 188.284 211.476 188.349 212.841L188.357 213.342C188.357 214.279 188.176 215.117 187.812 215.855C187.455 216.594 186.939 217.165 186.266 217.569C185.598 217.974 184.824 218.176 183.945 218.176C182.603 218.176 181.528 217.73 180.72 216.84C179.917 215.943 179.516 214.751 179.516 213.263V213.157ZM181.651 213.342C181.651 214.32 181.853 215.088 182.258 215.645C182.662 216.195 183.225 216.471 183.945 216.471C184.666 216.471 185.226 216.189 185.624 215.627C186.028 215.064 186.23 214.241 186.23 213.157C186.23 212.196 186.022 211.435 185.606 210.872C185.196 210.31 184.637 210.028 183.928 210.028C183.23 210.028 182.677 210.307 182.267 210.863C181.856 211.414 181.651 212.24 181.651 213.342ZM194.513 210.441C194.231 210.395 193.941 210.371 193.642 210.371C192.664 210.371 192.005 210.746 191.665 211.496V218H189.529V208.49H191.568L191.621 209.554C192.137 208.728 192.851 208.314 193.765 208.314C194.07 208.314 194.322 208.355 194.521 208.438L194.513 210.441ZM197.214 208.49L197.275 209.589C197.978 208.739 198.901 208.314 200.044 208.314C202.024 208.314 203.032 209.448 203.067 211.716V218H200.931V211.839C200.931 211.235 200.8 210.79 200.536 210.503C200.278 210.21 199.853 210.063 199.261 210.063C198.4 210.063 197.759 210.453 197.337 211.232V218H195.201V208.49H197.214ZM204.221 213.157C204.221 212.226 204.406 211.388 204.775 210.644C205.144 209.894 205.663 209.319 206.331 208.921C206.999 208.517 207.766 208.314 208.633 208.314C209.917 208.314 210.957 208.728 211.754 209.554C212.556 210.38 212.99 211.476 213.054 212.841L213.063 213.342C213.063 214.279 212.881 215.117 212.518 215.855C212.161 216.594 211.645 217.165 210.971 217.569C210.303 217.974 209.53 218.176 208.651 218.176C207.309 218.176 206.234 217.73 205.425 216.84C204.623 215.943 204.221 214.751 204.221 213.263V213.157ZM206.357 213.342C206.357 214.32 206.559 215.088 206.963 215.645C207.368 216.195 207.93 216.471 208.651 216.471C209.372 216.471 209.931 216.189 210.33 215.627C210.734 215.064 210.936 214.241 210.936 213.157C210.936 212.196 210.728 211.435 210.312 210.872C209.902 210.31 209.342 210.028 208.633 210.028C207.936 210.028 207.382 210.307 206.972 210.863C206.562 211.414 206.357 212.24 206.357 213.342Z" fill="#3A415D"/>
<path d="M59.0127 256.865H53.0273V262.086H59.9092V263H51.9463V250.203H59.8652V251.126H53.0273V255.951H59.0127V256.865ZM62.9502 253.49L62.9854 255.116C63.3428 254.53 63.7881 254.085 64.3213 253.78C64.8545 253.47 65.4434 253.314 66.0879 253.314C67.1074 253.314 67.8662 253.602 68.3643 254.176C68.8623 254.75 69.1143 255.611 69.1201 256.76V263H68.0742V256.751C68.0684 255.901 67.8867 255.269 67.5293 254.853C67.1777 254.437 66.6123 254.229 65.833 254.229C65.1826 254.229 64.6055 254.434 64.1016 254.844C63.6035 255.248 63.2344 255.796 62.9941 256.487V263H61.9482V253.49H62.9502ZM73.4795 251.056V253.49H75.4482V254.352H73.4795V260.688C73.4795 261.216 73.5732 261.608 73.7607 261.866C73.9541 262.124 74.2734 262.253 74.7188 262.253C74.8945 262.253 75.1787 262.224 75.5713 262.165L75.6152 263.026C75.3398 263.126 74.9648 263.176 74.4902 263.176C73.7695 263.176 73.2451 262.968 72.917 262.552C72.5889 262.13 72.4248 261.512 72.4248 260.697V254.352H70.6758V253.49H72.4248V251.056H73.4795ZM82.0225 254.387C81.7998 254.346 81.5625 254.325 81.3105 254.325C80.6543 254.325 80.0977 254.51 79.6406 254.879C79.1895 255.242 78.8672 255.772 78.6738 256.47V263H77.6279V253.49H78.6562L78.6738 255.002C79.2305 253.877 80.124 253.314 81.3545 253.314C81.6475 253.314 81.8789 253.353 82.0488 253.429L82.0225 254.387ZM87.1992 263.176C86.3906 263.176 85.6582 262.977 85.002 262.578C84.3516 262.18 83.8447 261.626 83.4814 260.917C83.1182 260.202 82.9365 259.402 82.9365 258.518V258.14C82.9365 257.226 83.1123 256.402 83.4639 255.67C83.8213 254.938 84.3164 254.363 84.9492 253.947C85.582 253.525 86.2676 253.314 87.0059 253.314C88.1602 253.314 89.0742 253.71 89.748 254.501C90.4277 255.286 90.7676 256.361 90.7676 257.727V258.315H83.9824V258.518C83.9824 259.596 84.29 260.495 84.9053 261.216C85.5264 261.931 86.3057 262.288 87.2432 262.288C87.8057 262.288 88.3008 262.186 88.7285 261.98C89.1621 261.775 89.5547 261.447 89.9062 260.996L90.5654 261.497C89.792 262.616 88.6699 263.176 87.1992 263.176ZM87.0059 254.211C86.2148 254.211 85.5469 254.501 85.002 255.081C84.4629 255.661 84.1348 256.44 84.0176 257.419H89.7217V257.305C89.6924 256.391 89.4316 255.646 88.9395 255.072C88.4473 254.498 87.8027 254.211 87.0059 254.211ZM92.3936 258.157C92.3936 256.669 92.7217 255.491 93.3779 254.624C94.04 253.751 94.9365 253.314 96.0674 253.314C97.3623 253.314 98.3467 253.83 99.0205 254.861L99.0732 253.49H100.058V262.807C100.058 264.031 99.7148 265.001 99.0293 265.716C98.3438 266.431 97.415 266.788 96.2432 266.788C95.5811 266.788 94.9482 266.639 94.3447 266.34C93.7471 266.047 93.2754 265.654 92.9297 265.162L93.5186 264.529C94.2627 265.443 95.1475 265.9 96.1729 265.9C97.0518 265.9 97.7373 265.64 98.2295 265.118C98.7217 264.603 98.9766 263.885 98.9941 262.965V261.77C98.3203 262.707 97.3389 263.176 96.0498 263.176C94.9482 263.176 94.0635 262.736 93.3955 261.857C92.7275 260.979 92.3936 259.792 92.3936 258.298V258.157ZM93.457 258.342C93.457 259.555 93.7002 260.513 94.1865 261.216C94.6729 261.913 95.3584 262.262 96.2432 262.262C97.5381 262.262 98.4551 261.682 98.9941 260.521V256.101C98.748 255.491 98.3936 255.028 97.9307 254.712C97.4678 254.39 96.9111 254.229 96.2607 254.229C95.376 254.229 94.6875 254.577 94.1953 255.274C93.7031 255.966 93.457 256.988 93.457 258.342ZM108.803 263C108.697 262.701 108.63 262.259 108.601 261.673C108.231 262.153 107.76 262.525 107.186 262.789C106.617 263.047 106.014 263.176 105.375 263.176C104.461 263.176 103.72 262.921 103.151 262.411C102.589 261.901 102.308 261.257 102.308 260.478C102.308 259.552 102.691 258.819 103.459 258.28C104.232 257.741 105.308 257.472 106.685 257.472H108.592V256.391C108.592 255.711 108.381 255.178 107.959 254.791C107.543 254.398 106.934 254.202 106.131 254.202C105.398 254.202 104.792 254.39 104.312 254.765C103.831 255.14 103.591 255.591 103.591 256.118L102.536 256.109C102.536 255.354 102.888 254.7 103.591 254.149C104.294 253.593 105.158 253.314 106.184 253.314C107.244 253.314 108.079 253.581 108.688 254.114C109.304 254.642 109.62 255.38 109.638 256.329V260.829C109.638 261.749 109.734 262.438 109.928 262.895V263H108.803ZM105.498 262.244C106.201 262.244 106.828 262.074 107.379 261.734C107.936 261.395 108.34 260.94 108.592 260.372V258.28H106.711C105.662 258.292 104.842 258.485 104.25 258.86C103.658 259.229 103.362 259.739 103.362 260.39C103.362 260.923 103.559 261.365 103.951 261.717C104.35 262.068 104.865 262.244 105.498 262.244ZM120.51 263.176C119.701 263.176 118.969 262.977 118.312 262.578C117.662 262.18 117.155 261.626 116.792 260.917C116.429 260.202 116.247 259.402 116.247 258.518V258.14C116.247 257.226 116.423 256.402 116.774 255.67C117.132 254.938 117.627 254.363 118.26 253.947C118.893 253.525 119.578 253.314 120.316 253.314C121.471 253.314 122.385 253.71 123.059 254.501C123.738 255.286 124.078 256.361 124.078 257.727V258.315H117.293V258.518C117.293 259.596 117.601 260.495 118.216 261.216C118.837 261.931 119.616 262.288 120.554 262.288C121.116 262.288 121.611 262.186 122.039 261.98C122.473 261.775 122.865 261.447 123.217 260.996L123.876 261.497C123.103 262.616 121.98 263.176 120.51 263.176ZM120.316 254.211C119.525 254.211 118.857 254.501 118.312 255.081C117.773 255.661 117.445 256.44 117.328 257.419H123.032V257.305C123.003 256.391 122.742 255.646 122.25 255.072C121.758 254.498 121.113 254.211 120.316 254.211ZM127.084 253.49L127.119 255.037C127.471 254.463 127.91 254.032 128.438 253.745C128.965 253.458 129.551 253.314 130.195 253.314C131.695 253.314 132.647 253.93 133.052 255.16C133.392 254.568 133.846 254.114 134.414 253.798C134.982 253.476 135.609 253.314 136.295 253.314C138.334 253.314 139.374 254.428 139.415 256.654V263H138.36V256.733C138.354 255.884 138.17 255.254 137.807 254.844C137.449 254.434 136.863 254.229 136.049 254.229C135.293 254.24 134.654 254.486 134.133 254.967C133.611 255.441 133.321 256.021 133.263 256.707V263H132.208V256.654C132.202 255.84 132.009 255.233 131.628 254.835C131.253 254.431 130.673 254.229 129.888 254.229C129.226 254.229 128.657 254.419 128.183 254.8C127.708 255.175 127.356 255.734 127.128 256.479V263H126.073V253.49H127.084ZM148.635 256.03H149.725C150.328 256.03 150.855 255.925 151.307 255.714C151.758 255.497 152.101 255.204 152.335 254.835C152.575 254.46 152.695 254.029 152.695 253.543C152.695 252.723 152.464 252.081 152.001 251.618C151.538 251.155 150.873 250.924 150.006 250.924C149.186 250.924 148.512 251.167 147.984 251.653C147.463 252.134 147.202 252.77 147.202 253.561H146.147C146.147 252.898 146.314 252.295 146.648 251.75C146.982 251.199 147.445 250.774 148.037 250.476C148.629 250.177 149.285 250.027 150.006 250.027C151.166 250.027 152.08 250.344 152.748 250.977C153.416 251.609 153.75 252.477 153.75 253.578C153.75 254.193 153.554 254.762 153.161 255.283C152.774 255.799 152.241 256.186 151.562 256.443C152.358 256.666 152.962 257.05 153.372 257.595C153.782 258.134 153.987 258.778 153.987 259.528C153.987 260.624 153.63 261.506 152.915 262.174C152.2 262.842 151.245 263.176 150.05 263.176C149.288 263.176 148.588 263.023 147.949 262.719C147.316 262.414 146.824 261.989 146.473 261.444C146.127 260.894 145.954 260.255 145.954 259.528H147.009C147.009 260.343 147.293 261.008 147.861 261.523C148.43 262.033 149.159 262.288 150.05 262.288C150.958 262.288 151.664 262.057 152.168 261.594C152.678 261.125 152.933 260.448 152.933 259.563C152.933 258.708 152.657 258.055 152.106 257.604C151.562 257.152 150.756 256.927 149.689 256.927H148.635V256.03ZM160.403 258.157C160.403 256.681 160.731 255.506 161.388 254.633C162.05 253.754 162.946 253.314 164.077 253.314C165.36 253.314 166.339 253.821 167.013 254.835V249.5H168.059V263H167.074L167.03 261.734C166.356 262.695 165.366 263.176 164.06 263.176C162.964 263.176 162.079 262.736 161.405 261.857C160.737 260.973 160.403 259.78 160.403 258.28V258.157ZM161.467 258.342C161.467 259.555 161.71 260.513 162.196 261.216C162.683 261.913 163.368 262.262 164.253 262.262C165.548 262.262 166.468 261.69 167.013 260.548V256.083C166.468 254.847 165.554 254.229 164.271 254.229C163.386 254.229 162.697 254.577 162.205 255.274C161.713 255.966 161.467 256.988 161.467 258.342ZM172.005 263H170.95V253.49H172.005V263ZM170.766 250.739C170.766 250.54 170.83 250.373 170.959 250.238C171.088 250.098 171.264 250.027 171.486 250.027C171.709 250.027 171.885 250.098 172.014 250.238C172.148 250.373 172.216 250.54 172.216 250.739C172.216 250.938 172.148 251.105 172.014 251.24C171.885 251.375 171.709 251.442 171.486 251.442C171.264 251.442 171.088 251.375 170.959 251.24C170.83 251.105 170.766 250.938 170.766 250.739ZM180.873 263C180.768 262.701 180.7 262.259 180.671 261.673C180.302 262.153 179.83 262.525 179.256 262.789C178.688 263.047 178.084 263.176 177.445 263.176C176.531 263.176 175.79 262.921 175.222 262.411C174.659 261.901 174.378 261.257 174.378 260.478C174.378 259.552 174.762 258.819 175.529 258.28C176.303 257.741 177.378 257.472 178.755 257.472H180.662V256.391C180.662 255.711 180.451 255.178 180.029 254.791C179.613 254.398 179.004 254.202 178.201 254.202C177.469 254.202 176.862 254.39 176.382 254.765C175.901 255.14 175.661 255.591 175.661 256.118L174.606 256.109C174.606 255.354 174.958 254.7 175.661 254.149C176.364 253.593 177.229 253.314 178.254 253.314C179.314 253.314 180.149 253.581 180.759 254.114C181.374 254.642 181.69 255.38 181.708 256.329V260.829C181.708 261.749 181.805 262.438 181.998 262.895V263H180.873ZM177.568 262.244C178.271 262.244 178.898 262.074 179.449 261.734C180.006 261.395 180.41 260.94 180.662 260.372V258.28H178.781C177.732 258.292 176.912 258.485 176.32 258.86C175.729 259.229 175.433 259.739 175.433 260.39C175.433 260.923 175.629 261.365 176.021 261.717C176.42 262.068 176.936 262.244 177.568 262.244ZM195.015 261.796C194.382 262.716 193.371 263.176 191.982 263.176C190.969 263.176 190.198 262.883 189.671 262.297C189.144 261.705 188.874 260.832 188.862 259.678V253.49H189.908V259.546C189.908 261.356 190.641 262.262 192.105 262.262C193.629 262.262 194.593 261.632 194.997 260.372V253.49H196.052V263H195.032L195.015 261.796ZM193.617 249.5H194.892L192.861 251.961H191.938L193.617 249.5ZM200.429 251.056V253.49H202.397V254.352H200.429V260.688C200.429 261.216 200.522 261.608 200.71 261.866C200.903 262.124 201.223 262.253 201.668 262.253C201.844 262.253 202.128 262.224 202.521 262.165L202.564 263.026C202.289 263.126 201.914 263.176 201.439 263.176C200.719 263.176 200.194 262.968 199.866 262.552C199.538 262.13 199.374 261.512 199.374 260.697V254.352H197.625V253.49H199.374V251.056H200.429ZM208.26 263.176C207.451 263.176 206.719 262.977 206.062 262.578C205.412 262.18 204.905 261.626 204.542 260.917C204.179 260.202 203.997 259.402 203.997 258.518V258.14C203.997 257.226 204.173 256.402 204.524 255.67C204.882 254.938 205.377 254.363 206.01 253.947C206.643 253.525 207.328 253.314 208.066 253.314C209.221 253.314 210.135 253.71 210.809 254.501C211.488 255.286 211.828 256.361 211.828 257.727V258.315H205.043V258.518C205.043 259.596 205.351 260.495 205.966 261.216C206.587 261.931 207.366 262.288 208.304 262.288C208.866 262.288 209.361 262.186 209.789 261.98C210.223 261.775 210.615 261.447 210.967 260.996L211.626 261.497C210.853 262.616 209.73 263.176 208.26 263.176ZM208.066 254.211C207.275 254.211 206.607 254.501 206.062 255.081C205.523 255.661 205.195 256.44 205.078 257.419H210.782V257.305C210.753 256.391 210.492 255.646 210 255.072C209.508 254.498 208.863 254.211 208.066 254.211ZM215.054 263H213.999V253.49H215.054V263ZM213.814 250.739C213.814 250.54 213.879 250.373 214.008 250.238C214.137 250.098 214.312 250.027 214.535 250.027C214.758 250.027 214.934 250.098 215.062 250.238C215.197 250.373 215.265 250.54 215.265 250.739C215.265 250.938 215.197 251.105 215.062 251.24C214.934 251.375 214.758 251.442 214.535 251.442C214.312 251.442 214.137 251.375 214.008 251.24C213.879 251.105 213.814 250.938 213.814 250.739ZM223.614 260.583C223.614 260.062 223.403 259.643 222.981 259.326C222.565 259.01 221.936 258.764 221.092 258.588C220.248 258.406 219.592 258.201 219.123 257.973C218.66 257.738 218.314 257.454 218.086 257.12C217.863 256.786 217.752 256.382 217.752 255.907C217.752 255.157 218.065 254.539 218.692 254.053C219.319 253.561 220.122 253.314 221.101 253.314C222.161 253.314 223.011 253.578 223.649 254.105C224.294 254.627 224.616 255.31 224.616 256.153H223.562C223.562 255.597 223.327 255.134 222.858 254.765C222.396 254.396 221.81 254.211 221.101 254.211C220.409 254.211 219.853 254.366 219.431 254.677C219.015 254.981 218.807 255.38 218.807 255.872C218.807 256.347 218.979 256.716 219.325 256.979C219.677 257.237 220.312 257.475 221.232 257.691C222.158 257.908 222.85 258.14 223.307 258.386C223.77 258.632 224.112 258.928 224.335 259.273C224.558 259.619 224.669 260.038 224.669 260.53C224.669 261.333 224.344 261.975 223.693 262.455C223.049 262.936 222.205 263.176 221.162 263.176C220.055 263.176 219.155 262.909 218.464 262.376C217.778 261.837 217.436 261.157 217.436 260.337H218.49C218.531 260.952 218.789 261.433 219.264 261.778C219.744 262.118 220.377 262.288 221.162 262.288C221.895 262.288 222.486 262.127 222.938 261.805C223.389 261.482 223.614 261.075 223.614 260.583Z" fill="#3A415D"/>
<path d="M62 127L69.8775 132.689C70.4302 133.088 70.4302 133.912 69.8775 134.311L62 140" stroke="#535971" stroke-width="3" stroke-linecap="round"/>
<path d="M62 166L69.8775 171.689C70.4302 172.088 70.4302 172.912 69.8775 173.311L62 179" stroke="#535971" stroke-width="3" stroke-linecap="round"/>
<path d="M62 205L69.8775 210.689C70.4302 211.088 70.4302 211.912 69.8775 212.311L62 218" stroke="#535971" stroke-width="3" stroke-linecap="round"/>
<path d="M45 276L231 276" stroke="#3A415D" stroke-width="2" stroke-linecap="round"/>
<defs>
<filter id="filter0_d" x="0" y="0" width="276" height="356" filterUnits="userSpaceOnUse" color-interpolation-filters="sRGB">
<feFlood flood-opacity="0" result="BackgroundImageFix"/>
<feColorMatrix in="SourceAlpha" type="matrix" values="0 0 0 0 0 0 0 0 0 0 0 0 0 0 0 0 0 0 127 0" result="hardAlpha"/>
<feMorphology radius="1" operator="dilate" in="SourceAlpha" result="effect1_dropShadow"/>
<feOffset dy="4"/>
<feGaussianBlur stdDeviation="10"/>
<feComposite in2="hardAlpha" operator="out"/>
<feColorMatrix type="matrix" values="0 0 0 0 0.533333 0 0 0 0 0.533333 0 0 0 0 0.533333 0 0 0 0.25 0"/>
<feBlend mode="normal" in2="BackgroundImageFix" result="effect1_dropShadow"/>
<feBlend mode="normal" in="SourceGraphic" in2="effect1_dropShadow" result="shape"/>
</filter>
<filter id="filter1_d" x="0" y="0" width="276" height="121" filterUnits="userSpaceOnUse" color-interpolation-filters="sRGB">
<feFlood flood-opacity="0" result="BackgroundImageFix"/>
<feColorMatrix in="SourceAlpha" type="matrix" values="0 0 0 0 0 0 0 0 0 0 0 0 0 0 0 0 0 0 127 0" result="hardAlpha"/>
<feMorphology radius="1" operator="dilate" in="SourceAlpha" result="effect1_dropShadow"/>
<feOffset dy="4"/>
<feGaussianBlur stdDeviation="10"/>
<feComposite in2="hardAlpha" operator="out"/>
<feColorMatrix type="matrix" values="0 0 0 0 0.533333 0 0 0 0 0.533333 0 0 0 0 0.533333 0 0 0 0.25 0"/>
<feBlend mode="normal" in2="BackgroundImageFix" result="effect1_dropShadow"/>
<feBlend mode="normal" in="SourceGraphic" in2="effect1_dropShadow" result="shape"/>
</filter>
</defs>
</svg>
