<svg width="276" height="356" viewBox="0 0 276 356" fill="none" xmlns="http://www.w3.org/2000/svg">
<g filter="url(#filter0_d)">
<rect x="21" y="17" width="234" height="314" rx="25" fill="white"/>
</g>
<g filter="url(#filter1_d)">
<path d="M21 42C21 28.1929 32.1929 17 46 17H230C243.807 17 255 28.1929 255 42V94C255 95.1046 254.105 96 253 96H21V42Z" fill="#A0A8C8"/>
</g>
<path d="M51.2109 71.7344H68.7188V73H49.9219V38.875H51.2109V71.7344ZM76.9219 73H75.6562V38.875H76.9219V73ZM111.82 73H110.555L88.5234 41.0312V73H87.2344V38.875H88.5234L110.555 70.7734V38.875H111.82V73ZM139.594 56.0781H122.484V71.7344H141.984V73H121.219V38.875H141.984V40.1406H122.484V54.8125H139.594V56.0781ZM166.523 62.8047H149.812L146.016 73H144.633L157.406 38.875H158.953L171.727 73H170.344L166.523 62.8047ZM150.281 61.5391H166.055L158.18 40.3984L150.281 61.5391ZM190.219 58.3984H178.383V73H177.117V38.875H187.992C191.414 38.875 194.133 39.7578 196.148 41.5234C198.18 43.2891 199.195 45.6875 199.195 48.7188C199.195 51.0469 198.469 53.0859 197.016 54.8359C195.578 56.5703 193.742 57.6484 191.508 58.0703L200.625 72.6719V73H199.289L190.219 58.3984ZM178.383 57.1328H189.141C191.766 57.1328 193.883 56.3359 195.492 54.7422C197.117 53.1484 197.93 51.1406 197.93 48.7188C197.93 46.0625 197.031 43.9688 195.234 42.4375C193.453 40.9062 191.008 40.1406 187.898 40.1406H178.383V57.1328ZM229.477 40.1406H217.055V73H215.789V40.1406H203.367V38.875H229.477V40.1406Z" fill="white"/>
<path d="M95.1758 142H93.0488V131.726L89.9111 132.798V130.996L94.9033 129.159H95.1758V142ZM99.79 136.797C99.79 135.443 99.9717 134.16 100.335 132.947C100.698 131.729 101.231 130.642 101.935 129.687C102.638 128.726 103.382 128.052 104.167 127.665L104.589 128.913C103.763 129.54 103.092 130.498 102.576 131.787C102.066 133.07 101.788 134.541 101.741 136.199L101.732 136.955C101.732 138.73 101.981 140.315 102.479 141.71C102.983 143.099 103.687 144.156 104.589 144.883L104.167 146.069C103.382 145.683 102.635 145.006 101.926 144.039C101.223 143.078 100.689 141.994 100.326 140.787C99.9688 139.574 99.79 138.244 99.79 136.797ZM111.796 141.068C111.169 141.807 110.278 142.176 109.124 142.176C108.093 142.176 107.311 141.874 106.777 141.271C106.25 140.667 105.986 139.794 105.986 138.651V132.49H108.122V138.625C108.122 139.832 108.623 140.436 109.625 140.436C110.662 140.436 111.362 140.063 111.726 139.319V132.49H113.861V142H111.849L111.796 141.068ZM118.045 132.49L118.106 133.483C118.774 132.704 119.688 132.314 120.849 132.314C122.12 132.314 122.99 132.801 123.459 133.773C124.15 132.801 125.123 132.314 126.377 132.314C127.426 132.314 128.205 132.604 128.715 133.185C129.23 133.765 129.494 134.62 129.506 135.751V142H127.37V135.812C127.37 135.209 127.238 134.767 126.975 134.485C126.711 134.204 126.274 134.063 125.665 134.063C125.179 134.063 124.78 134.195 124.47 134.459C124.165 134.717 123.951 135.057 123.828 135.479L123.837 142H121.701V135.742C121.672 134.623 121.101 134.063 119.987 134.063C119.132 134.063 118.525 134.412 118.168 135.109V142H116.032V132.49H118.045ZM137.381 142C137.287 141.818 137.205 141.522 137.135 141.112C136.455 141.821 135.623 142.176 134.639 142.176C133.684 142.176 132.904 141.903 132.301 141.358C131.697 140.813 131.396 140.14 131.396 139.337C131.396 138.323 131.771 137.547 132.521 137.008C133.276 136.463 134.354 136.19 135.755 136.19H137.064V135.566C137.064 135.074 136.927 134.682 136.651 134.389C136.376 134.09 135.957 133.94 135.395 133.94C134.908 133.94 134.51 134.063 134.199 134.31C133.889 134.55 133.733 134.857 133.733 135.232H131.598C131.598 134.711 131.771 134.225 132.116 133.773C132.462 133.316 132.931 132.959 133.522 132.701C134.12 132.443 134.785 132.314 135.518 132.314C136.631 132.314 137.519 132.596 138.181 133.158C138.843 133.715 139.183 134.5 139.2 135.514V139.803C139.2 140.658 139.32 141.341 139.561 141.851V142H137.381ZM135.034 140.462C135.456 140.462 135.852 140.359 136.221 140.154C136.596 139.949 136.877 139.674 137.064 139.328V137.535H135.913C135.122 137.535 134.527 137.673 134.129 137.948C133.73 138.224 133.531 138.613 133.531 139.117C133.531 139.527 133.666 139.855 133.936 140.102C134.211 140.342 134.577 140.462 135.034 140.462ZM145.555 136.938C145.555 138.238 145.376 139.495 145.019 140.708C144.661 141.915 144.119 143.014 143.393 144.004C142.666 145 141.907 145.688 141.116 146.069L140.694 144.883C141.573 144.203 142.268 143.166 142.777 141.771C143.293 140.371 143.551 138.774 143.551 136.981V136.779C143.551 135.15 143.328 133.668 142.883 132.332C142.438 130.99 141.799 129.915 140.967 129.106L140.694 128.86L141.116 127.665C141.866 128.028 142.593 128.673 143.296 129.599C143.999 130.524 144.538 131.562 144.913 132.71C145.288 133.853 145.499 135.033 145.546 136.252L145.555 136.938ZM160.593 137.342C160.593 138.812 160.259 139.987 159.591 140.866C158.923 141.739 158.026 142.176 156.901 142.176C155.858 142.176 155.023 141.833 154.396 141.147V145.656H152.261V132.49H154.229L154.317 133.457C154.944 132.695 155.797 132.314 156.875 132.314C158.035 132.314 158.943 132.748 159.6 133.615C160.262 134.477 160.593 135.675 160.593 137.21V137.342ZM158.466 137.157C158.466 136.208 158.275 135.455 157.895 134.898C157.52 134.342 156.98 134.063 156.277 134.063C155.404 134.063 154.777 134.424 154.396 135.145V139.363C154.783 140.102 155.416 140.471 156.295 140.471C156.975 140.471 157.505 140.198 157.886 139.653C158.272 139.103 158.466 138.271 158.466 137.157ZM166.596 142.176C165.242 142.176 164.144 141.751 163.3 140.901C162.462 140.046 162.043 138.909 162.043 137.491V137.228C162.043 136.278 162.225 135.432 162.588 134.688C162.957 133.938 163.473 133.354 164.135 132.938C164.797 132.522 165.535 132.314 166.35 132.314C167.645 132.314 168.644 132.728 169.347 133.554C170.056 134.38 170.41 135.549 170.41 137.061V137.922H164.196C164.261 138.707 164.521 139.328 164.979 139.785C165.441 140.242 166.021 140.471 166.719 140.471C167.697 140.471 168.494 140.075 169.109 139.284L170.261 140.383C169.88 140.951 169.37 141.394 168.731 141.71C168.099 142.021 167.387 142.176 166.596 142.176ZM166.341 134.028C165.755 134.028 165.28 134.233 164.917 134.644C164.56 135.054 164.331 135.625 164.231 136.357H168.301V136.199C168.254 135.484 168.063 134.945 167.729 134.582C167.396 134.213 166.933 134.028 166.341 134.028ZM177.406 139.416C177.406 139.035 177.248 138.745 176.932 138.546C176.621 138.347 176.103 138.171 175.376 138.019C174.649 137.866 174.043 137.673 173.557 137.438C172.49 136.923 171.957 136.176 171.957 135.197C171.957 134.377 172.303 133.691 172.994 133.141C173.686 132.59 174.564 132.314 175.631 132.314C176.768 132.314 177.685 132.596 178.382 133.158C179.085 133.721 179.437 134.45 179.437 135.347H177.301C177.301 134.937 177.148 134.597 176.844 134.327C176.539 134.052 176.135 133.914 175.631 133.914C175.162 133.914 174.778 134.022 174.479 134.239C174.187 134.456 174.04 134.746 174.04 135.109C174.04 135.438 174.178 135.692 174.453 135.874C174.729 136.056 175.285 136.24 176.123 136.428C176.961 136.609 177.617 136.829 178.092 137.087C178.572 137.339 178.927 137.644 179.155 138.001C179.39 138.358 179.507 138.792 179.507 139.302C179.507 140.157 179.152 140.852 178.443 141.385C177.734 141.912 176.806 142.176 175.657 142.176C174.878 142.176 174.184 142.035 173.574 141.754C172.965 141.473 172.49 141.086 172.15 140.594C171.811 140.102 171.641 139.571 171.641 139.003H173.715C173.744 139.507 173.935 139.896 174.286 140.172C174.638 140.441 175.104 140.576 175.684 140.576C176.246 140.576 176.674 140.471 176.967 140.26C177.26 140.043 177.406 139.762 177.406 139.416ZM186.705 139.416C186.705 139.035 186.547 138.745 186.23 138.546C185.92 138.347 185.401 138.171 184.675 138.019C183.948 137.866 183.342 137.673 182.855 137.438C181.789 136.923 181.256 136.176 181.256 135.197C181.256 134.377 181.602 133.691 182.293 133.141C182.984 132.59 183.863 132.314 184.93 132.314C186.066 132.314 186.983 132.596 187.681 133.158C188.384 133.721 188.735 134.45 188.735 135.347H186.6C186.6 134.937 186.447 134.597 186.143 134.327C185.838 134.052 185.434 133.914 184.93 133.914C184.461 133.914 184.077 134.022 183.778 134.239C183.485 134.456 183.339 134.746 183.339 135.109C183.339 135.438 183.477 135.692 183.752 135.874C184.027 136.056 184.584 136.24 185.422 136.428C186.26 136.609 186.916 136.829 187.391 137.087C187.871 137.339 188.226 137.644 188.454 138.001C188.688 138.358 188.806 138.792 188.806 139.302C188.806 140.157 188.451 140.852 187.742 141.385C187.033 141.912 186.104 142.176 184.956 142.176C184.177 142.176 183.482 142.035 182.873 141.754C182.264 141.473 181.789 141.086 181.449 140.594C181.109 140.102 180.939 139.571 180.939 139.003H183.014C183.043 139.507 183.233 139.896 183.585 140.172C183.937 140.441 184.402 140.576 184.982 140.576C185.545 140.576 185.973 140.471 186.266 140.26C186.559 140.043 186.705 139.762 186.705 139.416ZM190.273 137.157C190.273 136.226 190.458 135.388 190.827 134.644C191.196 133.894 191.715 133.319 192.383 132.921C193.051 132.517 193.818 132.314 194.686 132.314C195.969 132.314 197.009 132.728 197.806 133.554C198.608 134.38 199.042 135.476 199.106 136.841L199.115 137.342C199.115 138.279 198.934 139.117 198.57 139.855C198.213 140.594 197.697 141.165 197.023 141.569C196.355 141.974 195.582 142.176 194.703 142.176C193.361 142.176 192.286 141.73 191.478 140.84C190.675 139.943 190.273 138.751 190.273 137.263V137.157ZM192.409 137.342C192.409 138.32 192.611 139.088 193.016 139.645C193.42 140.195 193.982 140.471 194.703 140.471C195.424 140.471 195.983 140.189 196.382 139.627C196.786 139.064 196.988 138.241 196.988 137.157C196.988 136.196 196.78 135.435 196.364 134.872C195.954 134.31 195.395 134.028 194.686 134.028C193.988 134.028 193.435 134.307 193.024 134.863C192.614 135.414 192.409 136.24 192.409 137.342ZM206.604 142C206.51 141.818 206.428 141.522 206.357 141.112C205.678 141.821 204.846 142.176 203.861 142.176C202.906 142.176 202.127 141.903 201.523 141.358C200.92 140.813 200.618 140.14 200.618 139.337C200.618 138.323 200.993 137.547 201.743 137.008C202.499 136.463 203.577 136.19 204.978 136.19H206.287V135.566C206.287 135.074 206.149 134.682 205.874 134.389C205.599 134.09 205.18 133.94 204.617 133.94C204.131 133.94 203.732 134.063 203.422 134.31C203.111 134.55 202.956 134.857 202.956 135.232H200.82C200.82 134.711 200.993 134.225 201.339 133.773C201.685 133.316 202.153 132.959 202.745 132.701C203.343 132.443 204.008 132.314 204.74 132.314C205.854 132.314 206.741 132.596 207.403 133.158C208.065 133.715 208.405 134.5 208.423 135.514V139.803C208.423 140.658 208.543 141.341 208.783 141.851V142H206.604ZM204.257 140.462C204.679 140.462 205.074 140.359 205.443 140.154C205.818 139.949 206.1 139.674 206.287 139.328V137.535H205.136C204.345 137.535 203.75 137.673 203.352 137.948C202.953 138.224 202.754 138.613 202.754 139.117C202.754 139.527 202.889 139.855 203.158 140.102C203.434 140.342 203.8 140.462 204.257 140.462Z" fill="#3A415D"/>
<path d="M96.7402 178.021H91.7832L90.7461 181H88.4346L93.2686 168.203H95.2637L100.106 181H97.7861L96.7402 178.021ZM92.4072 176.228H96.1162L94.2617 170.919L92.4072 176.228ZM109.265 176.342C109.265 177.812 108.931 178.987 108.263 179.866C107.595 180.739 106.698 181.176 105.573 181.176C104.53 181.176 103.695 180.833 103.068 180.147V184.656H100.933V171.49H102.901L102.989 172.457C103.616 171.695 104.469 171.314 105.547 171.314C106.707 171.314 107.615 171.748 108.271 172.615C108.934 173.477 109.265 174.675 109.265 176.21V176.342ZM107.138 176.157C107.138 175.208 106.947 174.455 106.566 173.898C106.191 173.342 105.652 173.063 104.949 173.063C104.076 173.063 103.449 173.424 103.068 174.145V178.363C103.455 179.102 104.088 179.471 104.967 179.471C105.646 179.471 106.177 179.198 106.558 178.653C106.944 178.103 107.138 177.271 107.138 176.157ZM115.268 181.176C113.914 181.176 112.815 180.751 111.972 179.901C111.134 179.046 110.715 177.909 110.715 176.491V176.228C110.715 175.278 110.896 174.432 111.26 173.688C111.629 172.938 112.145 172.354 112.807 171.938C113.469 171.522 114.207 171.314 115.021 171.314C116.316 171.314 117.315 171.728 118.019 172.554C118.728 173.38 119.082 174.549 119.082 176.061V176.922H112.868C112.933 177.707 113.193 178.328 113.65 178.785C114.113 179.242 114.693 179.471 115.391 179.471C116.369 179.471 117.166 179.075 117.781 178.284L118.933 179.383C118.552 179.951 118.042 180.394 117.403 180.71C116.771 181.021 116.059 181.176 115.268 181.176ZM115.013 173.028C114.427 173.028 113.952 173.233 113.589 173.644C113.231 174.054 113.003 174.625 112.903 175.357H116.973V175.199C116.926 174.484 116.735 173.945 116.401 173.582C116.067 173.213 115.604 173.028 115.013 173.028ZM122.729 171.49L122.791 172.589C123.494 171.739 124.417 171.314 125.56 171.314C127.54 171.314 128.548 172.448 128.583 174.716V181H126.447V174.839C126.447 174.235 126.315 173.79 126.052 173.503C125.794 173.21 125.369 173.063 124.777 173.063C123.916 173.063 123.274 173.453 122.853 174.232V181H120.717V171.49H122.729ZM136.449 181C136.355 180.818 136.273 180.522 136.203 180.112C135.523 180.821 134.691 181.176 133.707 181.176C132.752 181.176 131.973 180.903 131.369 180.358C130.766 179.813 130.464 179.14 130.464 178.337C130.464 177.323 130.839 176.547 131.589 176.008C132.345 175.463 133.423 175.19 134.823 175.19H136.133V174.566C136.133 174.074 135.995 173.682 135.72 173.389C135.444 173.09 135.025 172.94 134.463 172.94C133.977 172.94 133.578 173.063 133.268 173.31C132.957 173.55 132.802 173.857 132.802 174.232H130.666C130.666 173.711 130.839 173.225 131.185 172.773C131.53 172.316 131.999 171.959 132.591 171.701C133.188 171.443 133.854 171.314 134.586 171.314C135.699 171.314 136.587 171.596 137.249 172.158C137.911 172.715 138.251 173.5 138.269 174.514V178.803C138.269 179.658 138.389 180.341 138.629 180.851V181H136.449ZM134.103 179.462C134.524 179.462 134.92 179.359 135.289 179.154C135.664 178.949 135.945 178.674 136.133 178.328V176.535H134.981C134.19 176.535 133.596 176.673 133.197 176.948C132.799 177.224 132.6 177.613 132.6 178.117C132.6 178.527 132.734 178.855 133.004 179.102C133.279 179.342 133.646 179.462 134.103 179.462ZM145.836 178.416C145.836 178.035 145.678 177.745 145.361 177.546C145.051 177.347 144.532 177.171 143.806 177.019C143.079 176.866 142.473 176.673 141.986 176.438C140.92 175.923 140.387 175.176 140.387 174.197C140.387 173.377 140.732 172.691 141.424 172.141C142.115 171.59 142.994 171.314 144.061 171.314C145.197 171.314 146.114 171.596 146.812 172.158C147.515 172.721 147.866 173.45 147.866 174.347H145.73C145.73 173.937 145.578 173.597 145.273 173.327C144.969 173.052 144.564 172.914 144.061 172.914C143.592 172.914 143.208 173.022 142.909 173.239C142.616 173.456 142.47 173.746 142.47 174.109C142.47 174.438 142.607 174.692 142.883 174.874C143.158 175.056 143.715 175.24 144.553 175.428C145.391 175.609 146.047 175.829 146.521 176.087C147.002 176.339 147.356 176.644 147.585 177.001C147.819 177.358 147.937 177.792 147.937 178.302C147.937 179.157 147.582 179.852 146.873 180.385C146.164 180.912 145.235 181.176 144.087 181.176C143.308 181.176 142.613 181.035 142.004 180.754C141.395 180.473 140.92 180.086 140.58 179.594C140.24 179.102 140.07 178.571 140.07 178.003H142.145C142.174 178.507 142.364 178.896 142.716 179.172C143.067 179.441 143.533 179.576 144.113 179.576C144.676 179.576 145.104 179.471 145.396 179.26C145.689 179.043 145.836 178.762 145.836 178.416ZM156.717 179.225H162.526V181H154.493V168.203H156.717V179.225ZM166.297 181H164.161V171.49H166.297V181ZM164.029 169.021C164.029 168.692 164.132 168.42 164.337 168.203C164.548 167.986 164.847 167.878 165.233 167.878C165.62 167.878 165.919 167.986 166.13 168.203C166.341 168.42 166.446 168.692 166.446 169.021C166.446 169.343 166.341 169.612 166.13 169.829C165.919 170.04 165.62 170.146 165.233 170.146C164.847 170.146 164.548 170.04 164.337 169.829C164.132 169.612 164.029 169.343 164.029 169.021ZM170.612 171.49L170.674 172.589C171.377 171.739 172.3 171.314 173.442 171.314C175.423 171.314 176.431 172.448 176.466 174.716V181H174.33V174.839C174.33 174.235 174.198 173.79 173.935 173.503C173.677 173.21 173.252 173.063 172.66 173.063C171.799 173.063 171.157 173.453 170.735 174.232V181H168.6V171.49H170.612ZM182.838 181.176C181.484 181.176 180.386 180.751 179.542 179.901C178.704 179.046 178.285 177.909 178.285 176.491V176.228C178.285 175.278 178.467 174.432 178.83 173.688C179.199 172.938 179.715 172.354 180.377 171.938C181.039 171.522 181.777 171.314 182.592 171.314C183.887 171.314 184.886 171.728 185.589 172.554C186.298 173.38 186.652 174.549 186.652 176.061V176.922H180.438C180.503 177.707 180.764 178.328 181.221 178.785C181.684 179.242 182.264 179.471 182.961 179.471C183.939 179.471 184.736 179.075 185.352 178.284L186.503 179.383C186.122 179.951 185.612 180.394 184.974 180.71C184.341 181.021 183.629 181.176 182.838 181.176ZM182.583 173.028C181.997 173.028 181.522 173.233 181.159 173.644C180.802 174.054 180.573 174.625 180.474 175.357H184.543V175.199C184.496 174.484 184.306 173.945 183.972 173.582C183.638 173.213 183.175 173.028 182.583 173.028ZM194 181C193.906 180.818 193.824 180.522 193.754 180.112C193.074 180.821 192.242 181.176 191.258 181.176C190.303 181.176 189.523 180.903 188.92 180.358C188.316 179.813 188.015 179.14 188.015 178.337C188.015 177.323 188.39 176.547 189.14 176.008C189.896 175.463 190.974 175.19 192.374 175.19H193.684V174.566C193.684 174.074 193.546 173.682 193.271 173.389C192.995 173.09 192.576 172.94 192.014 172.94C191.527 172.94 191.129 173.063 190.818 173.31C190.508 173.55 190.353 173.857 190.353 174.232H188.217C188.217 173.711 188.39 173.225 188.735 172.773C189.081 172.316 189.55 171.959 190.142 171.701C190.739 171.443 191.404 171.314 192.137 171.314C193.25 171.314 194.138 171.596 194.8 172.158C195.462 172.715 195.802 173.5 195.819 174.514V178.803C195.819 179.658 195.939 180.341 196.18 180.851V181H194ZM191.653 179.462C192.075 179.462 192.471 179.359 192.84 179.154C193.215 178.949 193.496 178.674 193.684 178.328V176.535H192.532C191.741 176.535 191.146 176.673 190.748 176.948C190.35 177.224 190.15 177.613 190.15 178.117C190.15 178.527 190.285 178.855 190.555 179.102C190.83 179.342 191.196 179.462 191.653 179.462ZM203.035 173.441C202.754 173.395 202.464 173.371 202.165 173.371C201.187 173.371 200.527 173.746 200.188 174.496V181H198.052V171.49H200.091L200.144 172.554C200.659 171.728 201.374 171.314 202.288 171.314C202.593 171.314 202.845 171.355 203.044 171.438L203.035 173.441ZM207.5 169.179V171.49H209.179V173.072H207.5V178.381C207.5 178.744 207.57 179.008 207.711 179.172C207.857 179.33 208.115 179.409 208.484 179.409C208.73 179.409 208.979 179.38 209.231 179.321V180.974C208.745 181.108 208.276 181.176 207.825 181.176C206.185 181.176 205.364 180.271 205.364 178.46V173.072H203.8V171.49H205.364V169.179H207.5Z" fill="#3A415D"/>
<path d="M91.7494 216.225H97.559V218H89.5258V205.203H91.7494V216.225ZM100.699 218H98.5637V208.49H100.699V218ZM98.4319 206.021C98.4319 205.692 98.5345 205.42 98.7395 205.203C98.9505 204.986 99.2493 204.878 99.636 204.878C100.023 204.878 100.322 204.986 100.532 205.203C100.743 205.42 100.849 205.692 100.849 206.021C100.849 206.343 100.743 206.612 100.532 206.829C100.322 207.04 100.023 207.146 99.636 207.146C99.2493 207.146 98.9505 207.04 98.7395 206.829C98.5345 206.612 98.4319 206.343 98.4319 206.021ZM104.385 208.49L104.446 209.589C105.15 208.739 106.072 208.314 107.215 208.314C109.195 208.314 110.203 209.448 110.238 211.716V218H108.103V211.839C108.103 211.235 107.971 210.79 107.707 210.503C107.449 210.21 107.025 210.063 106.433 210.063C105.571 210.063 104.93 210.453 104.508 211.232V218H102.372V208.49H104.385ZM113.897 209.527C114.595 208.719 115.477 208.314 116.543 208.314C118.57 208.314 119.599 209.472 119.628 211.786V218H117.492V211.865C117.492 211.209 117.349 210.746 117.062 210.477C116.78 210.201 116.364 210.063 115.814 210.063C114.958 210.063 114.319 210.444 113.897 211.206V218H111.762V204.5H113.897V209.527ZM126.847 218C126.753 217.818 126.671 217.522 126.601 217.112C125.921 217.821 125.089 218.176 124.104 218.176C123.149 218.176 122.37 217.903 121.767 217.358C121.163 216.813 120.861 216.14 120.861 215.337C120.861 214.323 121.236 213.547 121.986 213.008C122.742 212.463 123.82 212.19 125.221 212.19H126.53V211.566C126.53 211.074 126.392 210.682 126.117 210.389C125.842 210.09 125.423 209.94 124.86 209.94C124.374 209.94 123.976 210.063 123.665 210.31C123.354 210.55 123.199 210.857 123.199 211.232H121.063C121.063 210.711 121.236 210.225 121.582 209.773C121.928 209.316 122.396 208.959 122.988 208.701C123.586 208.443 124.251 208.314 124.983 208.314C126.097 208.314 126.984 208.596 127.646 209.158C128.309 209.715 128.648 210.5 128.666 211.514V215.803C128.666 216.658 128.786 217.341 129.026 217.851V218H126.847ZM124.5 216.462C124.922 216.462 125.317 216.359 125.686 216.154C126.061 215.949 126.343 215.674 126.53 215.328V213.535H125.379C124.588 213.535 123.993 213.673 123.595 213.948C123.196 214.224 122.997 214.613 122.997 215.117C122.997 215.527 123.132 215.855 123.401 216.102C123.677 216.342 124.043 216.462 124.5 216.462ZM138.313 218.176C136.96 218.176 135.861 217.751 135.017 216.901C134.179 216.046 133.76 214.909 133.76 213.491V213.228C133.76 212.278 133.942 211.432 134.305 210.688C134.674 209.938 135.19 209.354 135.852 208.938C136.514 208.522 137.253 208.314 138.067 208.314C139.362 208.314 140.361 208.728 141.064 209.554C141.773 210.38 142.128 211.549 142.128 213.061V213.922H135.914C135.978 214.707 136.239 215.328 136.696 215.785C137.159 216.242 137.739 216.471 138.436 216.471C139.415 216.471 140.212 216.075 140.827 215.284L141.978 216.383C141.597 216.951 141.088 217.394 140.449 217.71C139.816 218.021 139.104 218.176 138.313 218.176ZM138.058 210.028C137.472 210.028 136.998 210.233 136.634 210.644C136.277 211.054 136.049 211.625 135.949 212.357H140.018V212.199C139.971 211.484 139.781 210.945 139.447 210.582C139.113 210.213 138.65 210.028 138.058 210.028ZM150.922 216.471C151.456 216.471 151.898 216.315 152.249 216.005C152.601 215.694 152.789 215.311 152.812 214.854H154.825C154.801 215.445 154.617 215.999 154.271 216.515C153.925 217.024 153.456 217.429 152.865 217.728C152.273 218.026 151.634 218.176 150.949 218.176C149.619 218.176 148.564 217.745 147.785 216.884C147.005 216.022 146.616 214.833 146.616 213.315V213.096C146.616 211.648 147.002 210.491 147.776 209.624C148.549 208.751 149.604 208.314 150.94 208.314C152.071 208.314 152.991 208.646 153.7 209.308C154.414 209.964 154.789 210.828 154.825 211.9H152.812C152.789 211.355 152.601 210.907 152.249 210.556C151.904 210.204 151.461 210.028 150.922 210.028C150.231 210.028 149.698 210.28 149.323 210.784C148.948 211.282 148.757 212.041 148.751 213.061V213.403C148.751 214.435 148.936 215.205 149.305 215.715C149.68 216.219 150.219 216.471 150.922 216.471ZM155.408 213.157C155.408 212.226 155.592 211.388 155.961 210.644C156.33 209.894 156.849 209.319 157.517 208.921C158.185 208.517 158.952 208.314 159.82 208.314C161.103 208.314 162.143 208.728 162.94 209.554C163.743 210.38 164.176 211.476 164.241 212.841L164.249 213.342C164.249 214.279 164.068 215.117 163.704 215.855C163.347 216.594 162.831 217.165 162.158 217.569C161.49 217.974 160.716 218.176 159.837 218.176C158.495 218.176 157.42 217.73 156.612 216.84C155.809 215.943 155.408 214.751 155.408 213.263V213.157ZM157.543 213.342C157.543 214.32 157.745 215.088 158.15 215.645C158.554 216.195 159.117 216.471 159.837 216.471C160.558 216.471 161.118 216.189 161.516 215.627C161.92 215.064 162.122 214.241 162.122 213.157C162.122 212.196 161.914 211.435 161.498 210.872C161.088 210.31 160.529 210.028 159.82 210.028C159.122 210.028 158.569 210.307 158.159 210.863C157.748 211.414 157.543 212.24 157.543 213.342ZM167.407 208.49L167.469 209.589C168.172 208.739 169.095 208.314 170.237 208.314C172.218 208.314 173.226 209.448 173.261 211.716V218H171.125V211.839C171.125 211.235 170.993 210.79 170.73 210.503C170.472 210.21 170.047 210.063 169.455 210.063C168.594 210.063 167.952 210.453 167.53 211.232V218H165.395V208.49H167.407ZM177.491 206.179V208.49H179.17V210.072H177.491V215.381C177.491 215.744 177.562 216.008 177.702 216.172C177.849 216.33 178.107 216.409 178.476 216.409C178.722 216.409 178.971 216.38 179.223 216.321V217.974C178.736 218.108 178.268 218.176 177.816 218.176C176.176 218.176 175.356 217.271 175.356 215.46V210.072H173.791V208.49H175.356V206.179H177.491ZM179.516 213.157C179.516 212.226 179.7 211.388 180.069 210.644C180.438 209.894 180.957 209.319 181.625 208.921C182.293 208.517 183.061 208.314 183.928 208.314C185.211 208.314 186.251 208.728 187.048 209.554C187.851 210.38 188.284 211.476 188.349 212.841L188.357 213.342C188.357 214.279 188.176 215.117 187.812 215.855C187.455 216.594 186.939 217.165 186.266 217.569C185.598 217.974 184.824 218.176 183.945 218.176C182.603 218.176 181.528 217.73 180.72 216.84C179.917 215.943 179.516 214.751 179.516 213.263V213.157ZM181.651 213.342C181.651 214.32 181.853 215.088 182.258 215.645C182.662 216.195 183.225 216.471 183.945 216.471C184.666 216.471 185.226 216.189 185.624 215.627C186.028 215.064 186.23 214.241 186.23 213.157C186.23 212.196 186.022 211.435 185.606 210.872C185.196 210.31 184.637 210.028 183.928 210.028C183.23 210.028 182.677 210.307 182.267 210.863C181.856 211.414 181.651 212.24 181.651 213.342ZM194.513 210.441C194.231 210.395 193.941 210.371 193.642 210.371C192.664 210.371 192.005 210.746 191.665 211.496V218H189.529V208.49H191.568L191.621 209.554C192.137 208.728 192.851 208.314 193.765 208.314C194.07 208.314 194.322 208.355 194.521 208.438L194.513 210.441ZM197.214 208.49L197.275 209.589C197.978 208.739 198.901 208.314 200.044 208.314C202.024 208.314 203.032 209.448 203.067 211.716V218H200.931V211.839C200.931 211.235 200.8 210.79 200.536 210.503C200.278 210.21 199.853 210.063 199.261 210.063C198.4 210.063 197.759 210.453 197.337 211.232V218H195.201V208.49H197.214ZM204.221 213.157C204.221 212.226 204.406 211.388 204.775 210.644C205.144 209.894 205.663 209.319 206.331 208.921C206.999 208.517 207.766 208.314 208.633 208.314C209.917 208.314 210.957 208.728 211.754 209.554C212.556 210.38 212.99 211.476 213.054 212.841L213.063 213.342C213.063 214.279 212.881 215.117 212.518 215.855C212.161 216.594 211.645 217.165 210.971 217.569C210.303 217.974 209.53 218.176 208.651 218.176C207.309 218.176 206.234 217.73 205.425 216.84C204.623 215.943 204.221 214.751 204.221 213.263V213.157ZM206.357 213.342C206.357 214.32 206.559 215.088 206.963 215.645C207.368 216.195 207.93 216.471 208.651 216.471C209.372 216.471 209.931 216.189 210.33 215.627C210.734 215.064 210.936 214.241 210.936 213.157C210.936 212.196 210.728 211.435 210.312 210.872C209.902 210.31 209.342 210.028 208.633 210.028C207.936 210.028 207.382 210.307 206.972 210.863C206.562 211.414 206.357 212.24 206.357 213.342Z" fill="#3A415D"/>
<path d="M66.7021 256.865H60.7168V262.086H67.5986V263H59.6357V250.203H67.5547V251.126H60.7168V255.951H66.7021V256.865ZM70.6396 253.49L70.6748 255.116C71.0322 254.53 71.4775 254.085 72.0107 253.78C72.5439 253.47 73.1328 253.314 73.7773 253.314C74.7969 253.314 75.5557 253.602 76.0537 254.176C76.5518 254.75 76.8037 255.611 76.8096 256.76V263H75.7637V256.751C75.7578 255.901 75.5762 255.269 75.2188 254.853C74.8672 254.437 74.3018 254.229 73.5225 254.229C72.8721 254.229 72.2949 254.434 71.791 254.844C71.293 255.248 70.9238 255.796 70.6836 256.487V263H69.6377V253.49H70.6396ZM81.1689 251.056V253.49H83.1377V254.352H81.1689V260.688C81.1689 261.216 81.2627 261.608 81.4502 261.866C81.6436 262.124 81.9629 262.253 82.4082 262.253C82.584 262.253 82.8682 262.224 83.2607 262.165L83.3047 263.026C83.0293 263.126 82.6543 263.176 82.1797 263.176C81.459 263.176 80.9346 262.968 80.6064 262.552C80.2783 262.13 80.1143 261.512 80.1143 260.697V254.352H78.3652V253.49H80.1143V251.056H81.1689ZM89.7119 254.387C89.4893 254.346 89.252 254.325 89 254.325C88.3438 254.325 87.7871 254.51 87.3301 254.879C86.8789 255.242 86.5566 255.772 86.3633 256.47V263H85.3174V253.49H86.3457L86.3633 255.002C86.9199 253.877 87.8135 253.314 89.0439 253.314C89.3369 253.314 89.5684 253.353 89.7383 253.429L89.7119 254.387ZM94.8887 263.176C94.0801 263.176 93.3477 262.977 92.6914 262.578C92.041 262.18 91.5342 261.626 91.1709 260.917C90.8076 260.202 90.626 259.402 90.626 258.518V258.14C90.626 257.226 90.8018 256.402 91.1533 255.67C91.5107 254.938 92.0059 254.363 92.6387 253.947C93.2715 253.525 93.957 253.314 94.6953 253.314C95.8496 253.314 96.7637 253.71 97.4375 254.501C98.1172 255.286 98.457 256.361 98.457 257.727V258.315H91.6719V258.518C91.6719 259.596 91.9795 260.495 92.5947 261.216C93.2158 261.931 93.9951 262.288 94.9326 262.288C95.4951 262.288 95.9902 262.186 96.418 261.98C96.8516 261.775 97.2441 261.447 97.5957 260.996L98.2549 261.497C97.4814 262.616 96.3594 263.176 94.8887 263.176ZM94.6953 254.211C93.9043 254.211 93.2363 254.501 92.6914 255.081C92.1523 255.661 91.8242 256.44 91.707 257.419H97.4111V257.305C97.3818 256.391 97.1211 255.646 96.6289 255.072C96.1367 254.498 95.4922 254.211 94.6953 254.211ZM100.083 258.157C100.083 256.669 100.411 255.491 101.067 254.624C101.729 253.751 102.626 253.314 103.757 253.314C105.052 253.314 106.036 253.83 106.71 254.861L106.763 253.49H107.747V262.807C107.747 264.031 107.404 265.001 106.719 265.716C106.033 266.431 105.104 266.788 103.933 266.788C103.271 266.788 102.638 266.639 102.034 266.34C101.437 266.047 100.965 265.654 100.619 265.162L101.208 264.529C101.952 265.443 102.837 265.9 103.862 265.9C104.741 265.9 105.427 265.64 105.919 265.118C106.411 264.603 106.666 263.885 106.684 262.965V261.77C106.01 262.707 105.028 263.176 103.739 263.176C102.638 263.176 101.753 262.736 101.085 261.857C100.417 260.979 100.083 259.792 100.083 258.298V258.157ZM101.146 258.342C101.146 259.555 101.39 260.513 101.876 261.216C102.362 261.913 103.048 262.262 103.933 262.262C105.228 262.262 106.145 261.682 106.684 260.521V256.101C106.438 255.491 106.083 255.028 105.62 254.712C105.157 254.39 104.601 254.229 103.95 254.229C103.065 254.229 102.377 254.577 101.885 255.274C101.393 255.966 101.146 256.988 101.146 258.342ZM116.492 263C116.387 262.701 116.319 262.259 116.29 261.673C115.921 262.153 115.449 262.525 114.875 262.789C114.307 263.047 113.703 263.176 113.064 263.176C112.15 263.176 111.409 262.921 110.841 262.411C110.278 261.901 109.997 261.257 109.997 260.478C109.997 259.552 110.381 258.819 111.148 258.28C111.922 257.741 112.997 257.472 114.374 257.472H116.281V256.391C116.281 255.711 116.07 255.178 115.648 254.791C115.232 254.398 114.623 254.202 113.82 254.202C113.088 254.202 112.481 254.39 112.001 254.765C111.521 255.14 111.28 255.591 111.28 256.118L110.226 256.109C110.226 255.354 110.577 254.7 111.28 254.149C111.983 253.593 112.848 253.314 113.873 253.314C114.934 253.314 115.769 253.581 116.378 254.114C116.993 254.642 117.31 255.38 117.327 256.329V260.829C117.327 261.749 117.424 262.438 117.617 262.895V263H116.492ZM113.188 262.244C113.891 262.244 114.518 262.074 115.068 261.734C115.625 261.395 116.029 260.94 116.281 260.372V258.28H114.4C113.352 258.292 112.531 258.485 111.939 258.86C111.348 259.229 111.052 259.739 111.052 260.39C111.052 260.923 111.248 261.365 111.641 261.717C112.039 262.068 112.555 262.244 113.188 262.244ZM128.199 263.176C127.391 263.176 126.658 262.977 126.002 262.578C125.352 262.18 124.845 261.626 124.481 260.917C124.118 260.202 123.937 259.402 123.937 258.518V258.14C123.937 257.226 124.112 256.402 124.464 255.67C124.821 254.938 125.316 254.363 125.949 253.947C126.582 253.525 127.268 253.314 128.006 253.314C129.16 253.314 130.074 253.71 130.748 254.501C131.428 255.286 131.768 256.361 131.768 257.727V258.315H124.982V258.518C124.982 259.596 125.29 260.495 125.905 261.216C126.526 261.931 127.306 262.288 128.243 262.288C128.806 262.288 129.301 262.186 129.729 261.98C130.162 261.775 130.555 261.447 130.906 260.996L131.565 261.497C130.792 262.616 129.67 263.176 128.199 263.176ZM128.006 254.211C127.215 254.211 126.547 254.501 126.002 255.081C125.463 255.661 125.135 256.44 125.018 257.419H130.722V257.305C130.692 256.391 130.432 255.646 129.939 255.072C129.447 254.498 128.803 254.211 128.006 254.211ZM134.773 253.49L134.809 255.037C135.16 254.463 135.6 254.032 136.127 253.745C136.654 253.458 137.24 253.314 137.885 253.314C139.385 253.314 140.337 253.93 140.741 255.16C141.081 254.568 141.535 254.114 142.104 253.798C142.672 253.476 143.299 253.314 143.984 253.314C146.023 253.314 147.063 254.428 147.104 256.654V263H146.05V256.733C146.044 255.884 145.859 255.254 145.496 254.844C145.139 254.434 144.553 254.229 143.738 254.229C142.982 254.24 142.344 254.486 141.822 254.967C141.301 255.441 141.011 256.021 140.952 256.707V263H139.897V256.654C139.892 255.84 139.698 255.233 139.317 254.835C138.942 254.431 138.362 254.229 137.577 254.229C136.915 254.229 136.347 254.419 135.872 254.8C135.397 255.175 135.046 255.734 134.817 256.479V263H133.763V253.49H134.773ZM158.882 263H157.827V251.469L154.347 252.761V251.776L158.706 250.159H158.882V263ZM168.093 258.157C168.093 256.681 168.421 255.506 169.077 254.633C169.739 253.754 170.636 253.314 171.767 253.314C173.05 253.314 174.028 253.821 174.702 254.835V249.5H175.748V263H174.764L174.72 261.734C174.046 262.695 173.056 263.176 171.749 263.176C170.653 263.176 169.769 262.736 169.095 261.857C168.427 260.973 168.093 259.78 168.093 258.28V258.157ZM169.156 258.342C169.156 259.555 169.399 260.513 169.886 261.216C170.372 261.913 171.058 262.262 171.942 262.262C173.237 262.262 174.157 261.69 174.702 260.548V256.083C174.157 254.847 173.243 254.229 171.96 254.229C171.075 254.229 170.387 254.577 169.895 255.274C169.402 255.966 169.156 256.988 169.156 258.342ZM179.694 263H178.64V253.49H179.694V263ZM178.455 250.739C178.455 250.54 178.52 250.373 178.648 250.238C178.777 250.098 178.953 250.027 179.176 250.027C179.398 250.027 179.574 250.098 179.703 250.238C179.838 250.373 179.905 250.54 179.905 250.739C179.905 250.938 179.838 251.105 179.703 251.24C179.574 251.375 179.398 251.442 179.176 251.442C178.953 251.442 178.777 251.375 178.648 251.24C178.52 251.105 178.455 250.938 178.455 250.739ZM188.562 263C188.457 262.701 188.39 262.259 188.36 261.673C187.991 262.153 187.52 262.525 186.945 262.789C186.377 263.047 185.773 263.176 185.135 263.176C184.221 263.176 183.479 262.921 182.911 262.411C182.349 261.901 182.067 261.257 182.067 260.478C182.067 259.552 182.451 258.819 183.219 258.28C183.992 257.741 185.067 257.472 186.444 257.472H188.352V256.391C188.352 255.711 188.141 255.178 187.719 254.791C187.303 254.398 186.693 254.202 185.891 254.202C185.158 254.202 184.552 254.39 184.071 254.765C183.591 255.14 183.351 255.591 183.351 256.118L182.296 256.109C182.296 255.354 182.647 254.7 183.351 254.149C184.054 253.593 184.918 253.314 185.943 253.314C187.004 253.314 187.839 253.581 188.448 254.114C189.063 254.642 189.38 255.38 189.397 256.329V260.829C189.397 261.749 189.494 262.438 189.688 262.895V263H188.562ZM185.258 262.244C185.961 262.244 186.588 262.074 187.139 261.734C187.695 261.395 188.1 260.94 188.352 260.372V258.28H186.471C185.422 258.292 184.602 258.485 184.01 258.86C183.418 259.229 183.122 259.739 183.122 260.39C183.122 260.923 183.318 261.365 183.711 261.717C184.109 262.068 184.625 262.244 185.258 262.244ZM202.704 261.796C202.071 262.716 201.061 263.176 199.672 263.176C198.658 263.176 197.888 262.883 197.36 262.297C196.833 261.705 196.563 260.832 196.552 259.678V253.49H197.598V259.546C197.598 261.356 198.33 262.262 199.795 262.262C201.318 262.262 202.282 261.632 202.687 260.372V253.49H203.741V263H202.722L202.704 261.796ZM201.307 249.5H202.581L200.551 251.961H199.628L201.307 249.5ZM208.118 251.056V253.49H210.087V254.352H208.118V260.688C208.118 261.216 208.212 261.608 208.399 261.866C208.593 262.124 208.912 262.253 209.357 262.253C209.533 262.253 209.817 262.224 210.21 262.165L210.254 263.026C209.979 263.126 209.604 263.176 209.129 263.176C208.408 263.176 207.884 262.968 207.556 262.552C207.228 262.13 207.063 261.512 207.063 260.697V254.352H205.314V253.49H207.063V251.056H208.118ZM213.444 263H212.39V253.49H213.444V263ZM212.205 250.739C212.205 250.54 212.27 250.373 212.398 250.238C212.527 250.098 212.703 250.027 212.926 250.027C213.148 250.027 213.324 250.098 213.453 250.238C213.588 250.373 213.655 250.54 213.655 250.739C213.655 250.938 213.588 251.105 213.453 251.24C213.324 251.375 213.148 251.442 212.926 251.442C212.703 251.442 212.527 251.375 212.398 251.24C212.27 251.105 212.205 250.938 212.205 250.739ZM217.487 263H216.433V249.5H217.487V263Z" fill="#3A415D"/>
<path d="M62 127L69.8775 132.689C70.4302 133.088 70.4302 133.912 69.8775 134.311L62 140" stroke="#535971" stroke-width="3" stroke-linecap="round"/>
<path d="M62 166L69.8775 171.689C70.4302 172.088 70.4302 172.912 69.8775 173.311L62 179" stroke="#535971" stroke-width="3" stroke-linecap="round"/>
<path d="M62 205L69.8775 210.689C70.4302 211.088 70.4302 211.912 69.8775 212.311L62 218" stroke="#535971" stroke-width="3" stroke-linecap="round"/>
<path d="M84.166 305.139H79.209V315H74.7617V289.406H83.7617C86.7148 289.406 88.9941 290.068 90.5996 291.393C92.2051 292.717 93.0078 294.633 93.0078 297.141C93.0078 298.852 92.5918 300.287 91.7598 301.447C90.9395 302.596 89.791 303.48 88.3145 304.102L94.0625 314.771V315H89.2988L84.166 305.139ZM79.209 301.57H83.7793C85.2793 301.57 86.4512 301.195 87.2949 300.445C88.1387 299.684 88.5605 298.646 88.5605 297.334C88.5605 295.963 88.168 294.902 87.3828 294.152C86.6094 293.402 85.4492 293.016 83.9023 292.992H79.209V301.57ZM109.021 308.32C109.021 307.324 108.705 306.504 108.072 305.859C107.439 305.203 106.385 304.617 104.908 304.102C103.432 303.574 102.283 303.088 101.463 302.643C98.7324 301.178 97.3672 299.01 97.3672 296.139C97.3672 294.193 97.959 292.594 99.1426 291.34C100.326 290.086 101.932 289.342 103.959 289.107V285.275H106.771V289.143C108.811 289.436 110.387 290.303 111.5 291.744C112.613 293.174 113.17 295.037 113.17 297.334H108.916C108.916 295.857 108.582 294.697 107.914 293.854C107.258 292.998 106.361 292.57 105.225 292.57C104.1 292.57 103.221 292.875 102.588 293.484C101.955 294.094 101.639 294.967 101.639 296.104C101.639 297.123 101.949 297.943 102.57 298.564C103.203 299.174 104.27 299.754 105.77 300.305C107.27 300.855 108.447 301.365 109.303 301.834C110.158 302.303 110.879 302.842 111.465 303.451C112.051 304.049 112.502 304.74 112.818 305.525C113.135 306.311 113.293 307.23 113.293 308.285C113.293 310.266 112.684 311.871 111.465 313.102C110.258 314.332 108.57 315.059 106.402 315.281V318.709H103.607V315.299C101.287 315.041 99.5 314.209 98.2461 312.803C97.0039 311.396 96.3828 309.533 96.3828 307.213H100.654C100.654 308.689 101.023 309.832 101.762 310.641C102.512 311.449 103.566 311.854 104.926 311.854C106.262 311.854 107.275 311.531 107.967 310.887C108.67 310.242 109.021 309.387 109.021 308.32ZM128.568 315H124.314V294.451L118.039 296.596V292.992L128.023 289.318H128.568V315ZM138.605 302.309L139.994 289.406H153.74V293.098H143.545L142.842 299.215C144.025 298.535 145.361 298.195 146.85 298.195C149.287 298.195 151.18 298.975 152.527 300.533C153.887 302.092 154.566 304.189 154.566 306.826C154.566 309.428 153.816 311.502 152.316 313.049C150.816 314.584 148.76 315.352 146.146 315.352C143.803 315.352 141.857 314.689 140.311 313.365C138.775 312.029 137.943 310.271 137.814 308.092H141.945C142.109 309.334 142.555 310.289 143.281 310.957C144.008 311.613 144.957 311.941 146.129 311.941C147.441 311.941 148.461 311.473 149.188 310.535C149.926 309.598 150.295 308.32 150.295 306.703C150.295 305.145 149.891 303.914 149.082 303.012C148.273 302.098 147.16 301.641 145.742 301.641C144.969 301.641 144.312 301.746 143.773 301.957C143.234 302.156 142.648 302.555 142.016 303.152L138.605 302.309ZM158.803 320.766L156.5 319.395C157.18 318.328 157.643 317.396 157.889 316.6C158.146 315.814 158.281 315.012 158.293 314.191V310.869H162.143L162.125 313.945C162.113 315.188 161.797 316.43 161.176 317.672C160.566 318.926 159.775 319.957 158.803 320.766ZM182.516 304.225C182.516 307.904 181.824 310.682 180.441 312.557C179.07 314.42 176.979 315.352 174.166 315.352C171.4 315.352 169.314 314.443 167.908 312.627C166.514 310.799 165.799 308.098 165.764 304.523V300.094C165.764 296.414 166.449 293.654 167.82 291.814C169.203 289.975 171.307 289.055 174.131 289.055C176.932 289.055 179.018 289.951 180.389 291.744C181.771 293.537 182.48 296.221 182.516 299.795V304.225ZM178.244 299.443C178.244 297.041 177.916 295.283 177.26 294.17C176.604 293.045 175.561 292.482 174.131 292.482C172.736 292.482 171.711 293.016 171.055 294.082C170.398 295.137 170.053 296.789 170.018 299.039V304.84C170.018 307.23 170.352 309.012 171.02 310.184C171.688 311.355 172.736 311.941 174.166 311.941C175.537 311.941 176.551 311.402 177.207 310.324C177.863 309.234 178.209 307.535 178.244 305.227V299.443ZM202.977 304.225C202.977 307.904 202.285 310.682 200.902 312.557C199.531 314.42 197.439 315.352 194.627 315.352C191.861 315.352 189.775 314.443 188.369 312.627C186.975 310.799 186.26 308.098 186.225 304.523V300.094C186.225 296.414 186.91 293.654 188.281 291.814C189.664 289.975 191.768 289.055 194.592 289.055C197.393 289.055 199.479 289.951 200.85 291.744C202.232 293.537 202.941 296.221 202.977 299.795V304.225ZM198.705 299.443C198.705 297.041 198.377 295.283 197.721 294.17C197.064 293.045 196.021 292.482 194.592 292.482C193.197 292.482 192.172 293.016 191.516 294.082C190.859 295.137 190.514 296.789 190.479 299.039V304.84C190.479 307.23 190.812 309.012 191.48 310.184C192.148 311.355 193.197 311.941 194.627 311.941C195.998 311.941 197.012 311.402 197.668 310.324C198.324 309.234 198.67 307.535 198.705 305.227V299.443Z" fill="#3A415D"/>
<path d="M45 276L231 276" stroke="#3A415D" stroke-width="2" stroke-linecap="round"/>
<defs>
<filter id="filter0_d" x="0" y="0" width="276" height="356" filterUnits="userSpaceOnUse" color-interpolation-filters="sRGB">
<feFlood flood-opacity="0" result="BackgroundImageFix"/>
<feColorMatrix in="SourceAlpha" type="matrix" values="0 0 0 0 0 0 0 0 0 0 0 0 0 0 0 0 0 0 127 0" result="hardAlpha"/>
<feMorphology radius="1" operator="dilate" in="SourceAlpha" result="effect1_dropShadow"/>
<feOffset dy="4"/>
<feGaussianBlur stdDeviation="10"/>
<feComposite in2="hardAlpha" operator="out"/>
<feColorMatrix type="matrix" values="0 0 0 0 0.533333 0 0 0 0 0.533333 0 0 0 0 0.533333 0 0 0 0.25 0"/>
<feBlend mode="normal" in2="BackgroundImageFix" result="effect1_dropShadow"/>
<feBlend mode="normal" in="SourceGraphic" in2="effect1_dropShadow" result="shape"/>
</filter>
<filter id="filter1_d" x="0" y="0" width="276" height="121" filterUnits="userSpaceOnUse" color-interpolation-filters="sRGB">
<feFlood flood-opacity="0" result="BackgroundImageFix"/>
<feColorMatrix in="SourceAlpha" type="matrix" values="0 0 0 0 0 0 0 0 0 0 0 0 0 0 0 0 0 0 127 0" result="hardAlpha"/>
<feMorphology radius="1" operator="dilate" in="SourceAlpha" result="effect1_dropShadow"/>
<feOffset dy="4"/>
<feGaussianBlur stdDeviation="10"/>
<feComposite in2="hardAlpha" operator="out"/>
<feColorMatrix type="matrix" values="0 0 0 0 0.533333 0 0 0 0 0.533333 0 0 0 0 0.533333 0 0 0 0.25 0"/>
<feBlend mode="normal" in2="BackgroundImageFix" result="effect1_dropShadow"/>
<feBlend mode="normal" in="SourceGraphic" in2="effect1_dropShadow" result="shape"/>
</filter>
</defs>
</svg>
