<svg width="276" height="356" viewBox="0 0 276 356" fill="none" xmlns="http://www.w3.org/2000/svg">
<g filter="url(#filter0_d)">
<rect x="21" y="17" width="234" height="314" rx="25" fill="white"/>
</g>
<path d="M83.166 305.139H78.209V315H73.7617V289.406H82.7617C85.7148 289.406 87.9941 290.068 89.5996 291.393C91.2051 292.717 92.0078 294.633 92.0078 297.141C92.0078 298.852 91.5918 300.287 90.7598 301.447C89.9395 302.596 88.791 303.48 87.3145 304.102L93.0625 314.771V315H88.2988L83.166 305.139ZM78.209 301.57H82.7793C84.2793 301.57 85.4512 301.195 86.2949 300.445C87.1387 299.684 87.5605 298.646 87.5605 297.334C87.5605 295.963 87.168 294.902 86.3828 294.152C85.6094 293.402 84.4492 293.016 82.9023 292.992H78.209V301.57ZM108.021 308.32C108.021 307.324 107.705 306.504 107.072 305.859C106.439 305.203 105.385 304.617 103.908 304.102C102.432 303.574 101.283 303.088 100.463 302.643C97.7324 301.178 96.3672 299.01 96.3672 296.139C96.3672 294.193 96.959 292.594 98.1426 291.34C99.3262 290.086 100.932 289.342 102.959 289.107V285.275H105.771V289.143C107.811 289.436 109.387 290.303 110.5 291.744C111.613 293.174 112.17 295.037 112.17 297.334H107.916C107.916 295.857 107.582 294.697 106.914 293.854C106.258 292.998 105.361 292.57 104.225 292.57C103.1 292.57 102.221 292.875 101.588 293.484C100.955 294.094 100.639 294.967 100.639 296.104C100.639 297.123 100.949 297.943 101.57 298.564C102.203 299.174 103.27 299.754 104.77 300.305C106.27 300.855 107.447 301.365 108.303 301.834C109.158 302.303 109.879 302.842 110.465 303.451C111.051 304.049 111.502 304.74 111.818 305.525C112.135 306.311 112.293 307.23 112.293 308.285C112.293 310.266 111.684 311.871 110.465 313.102C109.258 314.332 107.57 315.059 105.402 315.281V318.709H102.607V315.299C100.287 315.041 98.5 314.209 97.2461 312.803C96.0039 311.396 95.3828 309.533 95.3828 307.213H99.6543C99.6543 308.689 100.023 309.832 100.762 310.641C101.512 311.449 102.566 311.854 103.926 311.854C105.262 311.854 106.275 311.531 106.967 310.887C107.67 310.242 108.021 309.387 108.021 308.32ZM130.451 305.877H133.633V309.305H130.451V315H126.18V309.305H115.123L115 306.703L126.039 289.406H130.451V305.877ZM119.482 305.877H126.18V295.189L125.863 295.752L119.482 305.877ZM137.605 302.309L138.994 289.406H152.74V293.098H142.545L141.842 299.215C143.025 298.535 144.361 298.195 145.85 298.195C148.287 298.195 150.18 298.975 151.527 300.533C152.887 302.092 153.566 304.189 153.566 306.826C153.566 309.428 152.816 311.502 151.316 313.049C149.816 314.584 147.76 315.352 145.146 315.352C142.803 315.352 140.857 314.689 139.311 313.365C137.775 312.029 136.943 310.271 136.814 308.092H140.945C141.109 309.334 141.555 310.289 142.281 310.957C143.008 311.613 143.957 311.941 145.129 311.941C146.441 311.941 147.461 311.473 148.188 310.535C148.926 309.598 149.295 308.32 149.295 306.703C149.295 305.145 148.891 303.914 148.082 303.012C147.273 302.098 146.16 301.641 144.742 301.641C143.969 301.641 143.312 301.746 142.773 301.957C142.234 302.156 141.648 302.555 141.016 303.152L137.605 302.309ZM157.803 320.766L155.5 319.395C156.18 318.328 156.643 317.396 156.889 316.6C157.146 315.814 157.281 315.012 157.293 314.191V310.869H161.143L161.125 313.945C161.113 315.188 160.797 316.43 160.176 317.672C159.566 318.926 158.775 319.957 157.803 320.766ZM181.516 304.225C181.516 307.904 180.824 310.682 179.441 312.557C178.07 314.42 175.979 315.352 173.166 315.352C170.4 315.352 168.314 314.443 166.908 312.627C165.514 310.799 164.799 308.098 164.764 304.523V300.094C164.764 296.414 165.449 293.654 166.82 291.814C168.203 289.975 170.307 289.055 173.131 289.055C175.932 289.055 178.018 289.951 179.389 291.744C180.771 293.537 181.48 296.221 181.516 299.795V304.225ZM177.244 299.443C177.244 297.041 176.916 295.283 176.26 294.17C175.604 293.045 174.561 292.482 173.131 292.482C171.736 292.482 170.711 293.016 170.055 294.082C169.398 295.137 169.053 296.789 169.018 299.039V304.84C169.018 307.23 169.352 309.012 170.02 310.184C170.688 311.355 171.736 311.941 173.166 311.941C174.537 311.941 175.551 311.402 176.207 310.324C176.863 309.234 177.209 307.535 177.244 305.227V299.443ZM201.977 304.225C201.977 307.904 201.285 310.682 199.902 312.557C198.531 314.42 196.439 315.352 193.627 315.352C190.861 315.352 188.775 314.443 187.369 312.627C185.975 310.799 185.26 308.098 185.225 304.523V300.094C185.225 296.414 185.91 293.654 187.281 291.814C188.664 289.975 190.768 289.055 193.592 289.055C196.393 289.055 198.479 289.951 199.85 291.744C201.232 293.537 201.941 296.221 201.977 299.795V304.225ZM197.705 299.443C197.705 297.041 197.377 295.283 196.721 294.17C196.064 293.045 195.021 292.482 193.592 292.482C192.197 292.482 191.172 293.016 190.516 294.082C189.859 295.137 189.514 296.789 189.479 299.039V304.84C189.479 307.23 189.812 309.012 190.48 310.184C191.148 311.355 192.197 311.941 193.627 311.941C194.998 311.941 196.012 311.402 196.668 310.324C197.324 309.234 197.67 307.535 197.705 305.227V299.443Z" fill="#3A415D"/>
<g filter="url(#filter1_d)">
<path d="M21 42C21 28.1929 32.1929 17 46 17H230C243.807 17 255 28.1929 255 42V94C255 95.1046 254.105 96 253 96H21V42Z" fill="#3A415D"/>
</g>
<path d="M37.6457 68.0508H50.7766V69H36.6789V43.4062H37.6457V68.0508ZM54.7689 69H53.8197V43.4062H54.7689V69ZM78.7827 69H77.8335L61.3101 45.0234V69H60.3433V43.4062H61.3101L77.8335 67.3301V43.4062H78.7827V69ZM97.4528 56.3086H84.6208V68.0508H99.2458V69H83.6716V43.4062H99.2458V44.3555H84.6208V55.3594H97.4528V56.3086ZM115.49 61.3535H102.957L100.109 69H99.0721L108.652 43.4062H109.812L119.392 69H118.355L115.49 61.3535ZM103.308 60.4043H115.139L109.232 44.5488L103.308 60.4043ZM131.102 58.0488H122.225V69H121.275V43.4062H129.432C131.998 43.4062 134.037 44.0684 135.549 45.3926C137.072 46.7168 137.834 48.5156 137.834 50.7891C137.834 52.5352 137.289 54.0645 136.199 55.377C135.121 56.6777 133.744 57.4863 132.068 57.8027L138.906 68.7539V69H137.904L131.102 58.0488ZM122.225 57.0996H130.293C132.262 57.0996 133.85 56.502 135.057 55.3066C136.275 54.1113 136.885 52.6055 136.885 50.7891C136.885 48.7969 136.211 47.2266 134.863 46.0781C133.527 44.9297 131.693 44.3555 129.361 44.3555H122.225V57.0996ZM158.385 44.3555H149.069V69H148.119V44.3555H138.803V43.4062H158.385V44.3555ZM167.563 56.6602H176.018V57.5918H167.563V66.4336H166.596V57.5918H158.475V56.6602H166.596V47.8008H167.563V56.6602ZM196.2 61.1602C195.954 63.7969 195.045 65.8242 193.475 67.2422C191.905 68.6484 189.772 69.3516 187.077 69.3516C185.26 69.3516 183.649 68.8945 182.243 67.9805C180.848 67.0547 179.764 65.748 178.991 64.0605C178.217 62.3613 177.825 60.4219 177.813 58.2422V54.2871C177.813 52.1074 178.194 50.1621 178.956 48.4512C179.717 46.7285 180.801 45.3984 182.208 44.4609C183.625 43.5234 185.249 43.0547 187.077 43.0547C189.749 43.0547 191.875 43.7578 193.458 45.1641C195.04 46.5703 195.954 48.5859 196.2 51.2109H195.25C194.981 48.8555 194.161 47.0684 192.79 45.8496C191.418 44.6191 189.514 44.0039 187.077 44.0039C184.592 44.0039 182.583 44.9414 181.047 46.8164C179.524 48.6914 178.762 51.2051 178.762 54.3574V58.1191C178.762 60.1348 179.102 61.9219 179.782 63.4805C180.461 65.0273 181.434 66.2344 182.7 67.1016C183.977 67.9688 185.436 68.4023 187.077 68.4023C189.526 68.4023 191.436 67.7988 192.807 66.5918C194.19 65.3848 195.004 63.5742 195.25 61.1602H196.2ZM218.104 58.1191C218.104 60.334 217.706 62.2969 216.909 64.0078C216.124 65.707 214.999 67.0254 213.534 67.9629C212.069 68.8887 210.381 69.3516 208.471 69.3516C205.589 69.3516 203.256 68.3262 201.475 66.2754C199.694 64.2246 198.803 61.459 198.803 57.9785V54.2871C198.803 52.084 199.196 50.127 199.981 48.416C200.778 46.7051 201.909 45.3867 203.374 44.4609C204.85 43.5234 206.538 43.0547 208.436 43.0547C210.346 43.0547 212.034 43.5234 213.499 44.4609C214.975 45.3867 216.112 46.7109 216.909 48.4336C217.706 50.1445 218.104 52.0957 218.104 54.2871V58.1191ZM217.155 54.252C217.155 51.1582 216.37 48.6797 214.799 46.8164C213.229 44.9414 211.108 44.0039 208.436 44.0039C205.799 44.0039 203.696 44.9355 202.126 46.7988C200.555 48.6504 199.77 51.1758 199.77 54.375V58.1191C199.77 60.1582 200.122 61.9629 200.825 63.5332C201.54 65.0918 202.553 66.293 203.866 67.1367C205.178 67.9805 206.714 68.4023 208.471 68.4023C211.143 68.4023 213.258 67.4707 214.817 65.6074C216.376 63.7441 217.155 61.2012 217.155 57.9785V54.252ZM231.536 58.0488H222.659V69H221.71V43.4062H229.866C232.432 43.4062 234.471 44.0684 235.983 45.3926C237.507 46.7168 238.268 48.5156 238.268 50.7891C238.268 52.5352 237.723 54.0645 236.634 55.377C235.555 56.6777 234.179 57.4863 232.503 57.8027L239.341 68.7539V69H238.339L231.536 58.0488ZM222.659 57.0996H230.727C232.696 57.0996 234.284 56.502 235.491 55.3066C236.71 54.1113 237.319 52.6055 237.319 50.7891C237.319 48.7969 236.645 47.2266 235.298 46.0781C233.962 44.9297 232.128 44.3555 229.796 44.3555H222.659V57.0996Z" fill="white"/>
<path d="M91.8574 134.626H93.1582C93.8145 134.62 94.333 134.45 94.7139 134.116C95.1006 133.782 95.2939 133.299 95.2939 132.666C95.2939 132.057 95.1328 131.585 94.8105 131.251C94.4941 130.911 94.0078 130.741 93.3516 130.741C92.7773 130.741 92.3057 130.908 91.9365 131.242C91.5674 131.57 91.3828 132.001 91.3828 132.534H89.2471C89.2471 131.878 89.4199 131.28 89.7656 130.741C90.1172 130.202 90.6035 129.783 91.2246 129.484C91.8516 129.18 92.5518 129.027 93.3252 129.027C94.6025 129.027 95.6045 129.35 96.3311 129.994C97.0635 130.633 97.4297 131.523 97.4297 132.666C97.4297 133.24 97.2451 133.782 96.876 134.292C96.5127 134.796 96.041 135.177 95.4609 135.435C96.1641 135.675 96.6973 136.053 97.0605 136.568C97.4297 137.084 97.6143 137.699 97.6143 138.414C97.6143 139.562 97.2188 140.477 96.4277 141.156C95.6426 141.836 94.6084 142.176 93.3252 142.176C92.0947 142.176 91.0869 141.848 90.3018 141.191C89.5166 140.535 89.124 139.662 89.124 138.572H91.2598C91.2598 139.135 91.4473 139.592 91.8223 139.943C92.2031 140.295 92.7129 140.471 93.3516 140.471C94.0137 140.471 94.5352 140.295 94.916 139.943C95.2969 139.592 95.4873 139.082 95.4873 138.414C95.4873 137.74 95.2881 137.222 94.8896 136.858C94.4912 136.495 93.8994 136.313 93.1143 136.313H91.8574V134.626ZM99.7852 136.797C99.7852 135.443 99.9668 134.16 100.33 132.947C100.693 131.729 101.227 130.642 101.93 129.687C102.633 128.726 103.377 128.052 104.162 127.665L104.584 128.913C103.758 129.54 103.087 130.498 102.571 131.787C102.062 133.07 101.783 134.541 101.736 136.199L101.728 136.955C101.728 138.73 101.977 140.315 102.475 141.71C102.979 143.099 103.682 144.156 104.584 144.883L104.162 146.069C103.377 145.683 102.63 145.006 101.921 144.039C101.218 143.078 100.685 141.994 100.321 140.787C99.9639 139.574 99.7852 138.244 99.7852 136.797ZM108.706 130.179V132.49H110.385V134.072H108.706V139.381C108.706 139.744 108.776 140.008 108.917 140.172C109.063 140.33 109.321 140.409 109.69 140.409C109.937 140.409 110.186 140.38 110.438 140.321V141.974C109.951 142.108 109.482 142.176 109.031 142.176C107.391 142.176 106.57 141.271 106.57 139.46V134.072H105.006V132.49H106.57V130.179H108.706ZM117.003 134.441C116.722 134.395 116.432 134.371 116.133 134.371C115.154 134.371 114.495 134.746 114.155 135.496V142H112.02V132.49H114.059L114.111 133.554C114.627 132.728 115.342 132.314 116.256 132.314C116.561 132.314 116.812 132.355 117.012 132.438L117.003 134.441ZM122.364 142.176C121.011 142.176 119.912 141.751 119.068 140.901C118.23 140.046 117.812 138.909 117.812 137.491V137.228C117.812 136.278 117.993 135.432 118.356 134.688C118.726 133.938 119.241 133.354 119.903 132.938C120.565 132.522 121.304 132.314 122.118 132.314C123.413 132.314 124.412 132.728 125.115 133.554C125.824 134.38 126.179 135.549 126.179 137.061V137.922H119.965C120.029 138.707 120.29 139.328 120.747 139.785C121.21 140.242 121.79 140.471 122.487 140.471C123.466 140.471 124.263 140.075 124.878 139.284L126.029 140.383C125.648 140.951 125.139 141.394 124.5 141.71C123.867 142.021 123.155 142.176 122.364 142.176ZM122.109 134.028C121.523 134.028 121.049 134.233 120.686 134.644C120.328 135.054 120.1 135.625 120 136.357H124.069V136.199C124.022 135.484 123.832 134.945 123.498 134.582C123.164 134.213 122.701 134.028 122.109 134.028ZM124.992 130.935V131.031H123.278L121.96 129.66L120.65 131.031H118.954V130.917L121.336 128.491H122.593L124.992 130.935ZM133.175 139.416C133.175 139.035 133.017 138.745 132.7 138.546C132.39 138.347 131.871 138.171 131.145 138.019C130.418 137.866 129.812 137.673 129.325 137.438C128.259 136.923 127.726 136.176 127.726 135.197C127.726 134.377 128.071 133.691 128.763 133.141C129.454 132.59 130.333 132.314 131.399 132.314C132.536 132.314 133.453 132.596 134.15 133.158C134.854 133.721 135.205 134.45 135.205 135.347H133.069C133.069 134.937 132.917 134.597 132.612 134.327C132.308 134.052 131.903 133.914 131.399 133.914C130.931 133.914 130.547 134.022 130.248 134.239C129.955 134.456 129.809 134.746 129.809 135.109C129.809 135.438 129.946 135.692 130.222 135.874C130.497 136.056 131.054 136.24 131.892 136.428C132.729 136.609 133.386 136.829 133.86 137.087C134.341 137.339 134.695 137.644 134.924 138.001C135.158 138.358 135.275 138.792 135.275 139.302C135.275 140.157 134.921 140.852 134.212 141.385C133.503 141.912 132.574 142.176 131.426 142.176C130.646 142.176 129.952 142.035 129.343 141.754C128.733 141.473 128.259 141.086 127.919 140.594C127.579 140.102 127.409 139.571 127.409 139.003H129.483C129.513 139.507 129.703 139.896 130.055 140.172C130.406 140.441 130.872 140.576 131.452 140.576C132.015 140.576 132.442 140.471 132.735 140.26C133.028 140.043 133.175 139.762 133.175 139.416ZM141.261 136.938C141.261 138.238 141.082 139.495 140.725 140.708C140.367 141.915 139.825 143.014 139.099 144.004C138.372 145 137.613 145.688 136.822 146.069L136.4 144.883C137.279 144.203 137.974 143.166 138.483 141.771C138.999 140.371 139.257 138.774 139.257 136.981V136.779C139.257 135.15 139.034 133.668 138.589 132.332C138.144 130.99 137.505 129.915 136.673 129.106L136.4 128.86L136.822 127.665C137.572 128.028 138.299 128.673 139.002 129.599C139.705 130.524 140.244 131.562 140.619 132.71C140.994 133.853 141.205 135.033 141.252 136.252L141.261 136.938ZM156.299 137.342C156.299 138.812 155.965 139.987 155.297 140.866C154.629 141.739 153.732 142.176 152.607 142.176C151.564 142.176 150.729 141.833 150.103 141.147V145.656H147.967V132.49H149.936L150.023 133.457C150.65 132.695 151.503 132.314 152.581 132.314C153.741 132.314 154.649 132.748 155.306 133.615C155.968 134.477 156.299 135.675 156.299 137.21V137.342ZM154.172 137.157C154.172 136.208 153.981 135.455 153.601 134.898C153.226 134.342 152.687 134.063 151.983 134.063C151.11 134.063 150.483 134.424 150.103 135.145V139.363C150.489 140.102 151.122 140.471 152.001 140.471C152.681 140.471 153.211 140.198 153.592 139.653C153.979 139.103 154.172 138.271 154.172 137.157ZM162.302 142.176C160.948 142.176 159.85 141.751 159.006 140.901C158.168 140.046 157.749 138.909 157.749 137.491V137.228C157.749 136.278 157.931 135.432 158.294 134.688C158.663 133.938 159.179 133.354 159.841 132.938C160.503 132.522 161.241 132.314 162.056 132.314C163.351 132.314 164.35 132.728 165.053 133.554C165.762 134.38 166.116 135.549 166.116 137.061V137.922H159.902C159.967 138.707 160.228 139.328 160.685 139.785C161.147 140.242 161.728 140.471 162.425 140.471C163.403 140.471 164.2 140.075 164.815 139.284L165.967 140.383C165.586 140.951 165.076 141.394 164.438 141.71C163.805 142.021 163.093 142.176 162.302 142.176ZM162.047 134.028C161.461 134.028 160.986 134.233 160.623 134.644C160.266 135.054 160.037 135.625 159.938 136.357H164.007V136.199C163.96 135.484 163.77 134.945 163.436 134.582C163.102 134.213 162.639 134.028 162.047 134.028ZM173.112 139.416C173.112 139.035 172.954 138.745 172.638 138.546C172.327 138.347 171.809 138.171 171.082 138.019C170.355 137.866 169.749 137.673 169.263 137.438C168.196 136.923 167.663 136.176 167.663 135.197C167.663 134.377 168.009 133.691 168.7 133.141C169.392 132.59 170.271 132.314 171.337 132.314C172.474 132.314 173.391 132.596 174.088 133.158C174.791 133.721 175.143 134.45 175.143 135.347H173.007C173.007 134.937 172.854 134.597 172.55 134.327C172.245 134.052 171.841 133.914 171.337 133.914C170.868 133.914 170.484 134.022 170.186 134.239C169.893 134.456 169.746 134.746 169.746 135.109C169.746 135.438 169.884 135.692 170.159 135.874C170.435 136.056 170.991 136.24 171.829 136.428C172.667 136.609 173.323 136.829 173.798 137.087C174.278 137.339 174.633 137.644 174.861 138.001C175.096 138.358 175.213 138.792 175.213 139.302C175.213 140.157 174.858 140.852 174.149 141.385C173.44 141.912 172.512 142.176 171.363 142.176C170.584 142.176 169.89 142.035 169.28 141.754C168.671 141.473 168.196 141.086 167.856 140.594C167.517 140.102 167.347 139.571 167.347 139.003H169.421C169.45 139.507 169.641 139.896 169.992 140.172C170.344 140.441 170.81 140.576 171.39 140.576C171.952 140.576 172.38 140.471 172.673 140.26C172.966 140.043 173.112 139.762 173.112 139.416ZM182.411 139.416C182.411 139.035 182.253 138.745 181.937 138.546C181.626 138.347 181.107 138.171 180.381 138.019C179.654 137.866 179.048 137.673 178.562 137.438C177.495 136.923 176.962 136.176 176.962 135.197C176.962 134.377 177.308 133.691 177.999 133.141C178.69 132.59 179.569 132.314 180.636 132.314C181.772 132.314 182.689 132.596 183.387 133.158C184.09 133.721 184.441 134.45 184.441 135.347H182.306C182.306 134.937 182.153 134.597 181.849 134.327C181.544 134.052 181.14 133.914 180.636 133.914C180.167 133.914 179.783 134.022 179.484 134.239C179.191 134.456 179.045 134.746 179.045 135.109C179.045 135.438 179.183 135.692 179.458 135.874C179.733 136.056 180.29 136.24 181.128 136.428C181.966 136.609 182.622 136.829 183.097 137.087C183.577 137.339 183.932 137.644 184.16 138.001C184.395 138.358 184.512 138.792 184.512 139.302C184.512 140.157 184.157 140.852 183.448 141.385C182.739 141.912 181.811 142.176 180.662 142.176C179.883 142.176 179.188 142.035 178.579 141.754C177.97 141.473 177.495 141.086 177.155 140.594C176.815 140.102 176.646 139.571 176.646 139.003H178.72C178.749 139.507 178.939 139.896 179.291 140.172C179.643 140.441 180.108 140.576 180.688 140.576C181.251 140.576 181.679 140.471 181.972 140.26C182.265 140.043 182.411 139.762 182.411 139.416ZM185.979 137.157C185.979 136.226 186.164 135.388 186.533 134.644C186.902 133.894 187.421 133.319 188.089 132.921C188.757 132.517 189.524 132.314 190.392 132.314C191.675 132.314 192.715 132.728 193.512 133.554C194.314 134.38 194.748 135.476 194.812 136.841L194.821 137.342C194.821 138.279 194.64 139.117 194.276 139.855C193.919 140.594 193.403 141.165 192.729 141.569C192.062 141.974 191.288 142.176 190.409 142.176C189.067 142.176 187.992 141.73 187.184 140.84C186.381 139.943 185.979 138.751 185.979 137.263V137.157ZM188.115 137.342C188.115 138.32 188.317 139.088 188.722 139.645C189.126 140.195 189.688 140.471 190.409 140.471C191.13 140.471 191.689 140.189 192.088 139.627C192.492 139.064 192.694 138.241 192.694 137.157C192.694 136.196 192.486 135.435 192.07 134.872C191.66 134.31 191.101 134.028 190.392 134.028C189.694 134.028 189.141 134.307 188.73 134.863C188.32 135.414 188.115 136.24 188.115 137.342ZM202.31 142C202.216 141.818 202.134 141.522 202.063 141.112C201.384 141.821 200.552 142.176 199.567 142.176C198.612 142.176 197.833 141.903 197.229 141.358C196.626 140.813 196.324 140.14 196.324 139.337C196.324 138.323 196.699 137.547 197.449 137.008C198.205 136.463 199.283 136.19 200.684 136.19H201.993V135.566C201.993 135.074 201.855 134.682 201.58 134.389C201.305 134.09 200.886 133.94 200.323 133.94C199.837 133.94 199.438 134.063 199.128 134.31C198.817 134.55 198.662 134.857 198.662 135.232H196.526C196.526 134.711 196.699 134.225 197.045 133.773C197.391 133.316 197.859 132.959 198.451 132.701C199.049 132.443 199.714 132.314 200.446 132.314C201.56 132.314 202.447 132.596 203.109 133.158C203.771 133.715 204.111 134.5 204.129 135.514V139.803C204.129 140.658 204.249 141.341 204.489 141.851V142H202.31ZM199.963 140.462C200.385 140.462 200.78 140.359 201.149 140.154C201.524 139.949 201.806 139.674 201.993 139.328V137.535H200.842C200.051 137.535 199.456 137.673 199.058 137.948C198.659 138.224 198.46 138.613 198.46 139.117C198.46 139.527 198.595 139.855 198.864 140.102C199.14 140.342 199.506 140.462 199.963 140.462ZM211.696 139.416C211.696 139.035 211.538 138.745 211.222 138.546C210.911 138.347 210.393 138.171 209.666 138.019C208.939 137.866 208.333 137.673 207.847 137.438C206.78 136.923 206.247 136.176 206.247 135.197C206.247 134.377 206.593 133.691 207.284 133.141C207.976 132.59 208.854 132.314 209.921 132.314C211.058 132.314 211.975 132.596 212.672 133.158C213.375 133.721 213.727 134.45 213.727 135.347H211.591C211.591 134.937 211.438 134.597 211.134 134.327C210.829 134.052 210.425 133.914 209.921 133.914C209.452 133.914 209.068 134.022 208.77 134.239C208.477 134.456 208.33 134.746 208.33 135.109C208.33 135.438 208.468 135.692 208.743 135.874C209.019 136.056 209.575 136.24 210.413 136.428C211.251 136.609 211.907 136.829 212.382 137.087C212.862 137.339 213.217 137.644 213.445 138.001C213.68 138.358 213.797 138.792 213.797 139.302C213.797 140.157 213.442 140.852 212.733 141.385C212.024 141.912 211.096 142.176 209.947 142.176C209.168 142.176 208.474 142.035 207.864 141.754C207.255 141.473 206.78 141.086 206.44 140.594C206.101 140.102 205.931 139.571 205.931 139.003H208.005C208.034 139.507 208.225 139.896 208.576 140.172C208.928 140.441 209.394 140.576 209.974 140.576C210.536 140.576 210.964 140.471 211.257 140.26C211.55 140.043 211.696 139.762 211.696 139.416Z" fill="#3A415D"/>
<path d="M91.5898 179.225H97.3994V181H89.3662V168.203H91.5898V179.225ZM101.17 181H99.0342V171.49H101.17V181ZM98.9023 169.021C98.9023 168.692 99.0049 168.42 99.21 168.203C99.4209 167.986 99.7197 167.878 100.106 167.878C100.493 167.878 100.792 167.986 101.003 168.203C101.214 168.42 101.319 168.692 101.319 169.021C101.319 169.343 101.214 169.612 101.003 169.829C100.792 170.04 100.493 170.146 100.106 170.146C99.7197 170.146 99.4209 170.04 99.21 169.829C99.0049 169.612 98.9023 169.343 98.9023 169.021ZM105.485 171.49L105.547 172.589C106.25 171.739 107.173 171.314 108.315 171.314C110.296 171.314 111.304 172.448 111.339 174.716V181H109.203V174.839C109.203 174.235 109.071 173.79 108.808 173.503C108.55 173.21 108.125 173.063 107.533 173.063C106.672 173.063 106.03 173.453 105.608 174.232V181H103.473V171.49H105.485ZM117.711 181.176C116.357 181.176 115.259 180.751 114.415 179.901C113.577 179.046 113.158 177.909 113.158 176.491V176.228C113.158 175.278 113.34 174.432 113.703 173.688C114.072 172.938 114.588 172.354 115.25 171.938C115.912 171.522 116.65 171.314 117.465 171.314C118.76 171.314 119.759 171.728 120.462 172.554C121.171 173.38 121.525 174.549 121.525 176.061V176.922H115.312C115.376 177.707 115.637 178.328 116.094 178.785C116.557 179.242 117.137 179.471 117.834 179.471C118.812 179.471 119.609 179.075 120.225 178.284L121.376 179.383C120.995 179.951 120.485 180.394 119.847 180.71C119.214 181.021 118.502 181.176 117.711 181.176ZM117.456 173.028C116.87 173.028 116.396 173.233 116.032 173.644C115.675 174.054 115.446 174.625 115.347 175.357H119.416V175.199C119.369 174.484 119.179 173.945 118.845 173.582C118.511 173.213 118.048 173.028 117.456 173.028ZM128.873 181C128.779 180.818 128.697 180.522 128.627 180.112C127.947 180.821 127.115 181.176 126.131 181.176C125.176 181.176 124.396 180.903 123.793 180.358C123.189 179.813 122.888 179.14 122.888 178.337C122.888 177.323 123.263 176.547 124.013 176.008C124.769 175.463 125.847 175.19 127.247 175.19H128.557V174.566C128.557 174.074 128.419 173.682 128.144 173.389C127.868 173.09 127.449 172.94 126.887 172.94C126.4 172.94 126.002 173.063 125.691 173.31C125.381 173.55 125.226 173.857 125.226 174.232H123.09C123.09 173.711 123.263 173.225 123.608 172.773C123.954 172.316 124.423 171.959 125.015 171.701C125.612 171.443 126.277 171.314 127.01 171.314C128.123 171.314 129.011 171.596 129.673 172.158C130.335 172.715 130.675 173.5 130.692 174.514V178.803C130.692 179.658 130.812 180.341 131.053 180.851V181H128.873ZM126.526 179.462C126.948 179.462 127.344 179.359 127.713 179.154C128.088 178.949 128.369 178.674 128.557 178.328V176.535H127.405C126.614 176.535 126.02 176.673 125.621 176.948C125.223 177.224 125.023 177.613 125.023 178.117C125.023 178.527 125.158 178.855 125.428 179.102C125.703 179.342 126.069 179.462 126.526 179.462ZM137.908 173.441C137.627 173.395 137.337 173.371 137.038 173.371C136.06 173.371 135.4 173.746 135.061 174.496V181H132.925V171.49H134.964L135.017 172.554C135.532 171.728 136.247 171.314 137.161 171.314C137.466 171.314 137.718 171.355 137.917 171.438L137.908 173.441ZM142.373 169.179V171.49H144.052V173.072H142.373V178.381C142.373 178.744 142.443 179.008 142.584 179.172C142.73 179.33 142.988 179.409 143.357 179.409C143.604 179.409 143.853 179.38 144.104 179.321V180.974C143.618 181.108 143.149 181.176 142.698 181.176C141.058 181.176 140.237 180.271 140.237 178.46V173.072H138.673V171.49H140.237V169.179H142.373ZM155.108 173.96H158.448V175.911H155.108V179.717H153.034V175.911H149.677V173.96H153.034V170.4H155.108V173.96ZM174.664 176.834C174.535 178.199 174.031 179.266 173.152 180.033C172.273 180.795 171.104 181.176 169.646 181.176C168.626 181.176 167.727 180.936 166.947 180.455C166.174 179.969 165.576 179.28 165.154 178.39C164.732 177.499 164.513 176.465 164.495 175.287V174.092C164.495 172.885 164.709 171.821 165.137 170.901C165.564 169.981 166.177 169.272 166.974 168.774C167.776 168.276 168.702 168.027 169.751 168.027C171.163 168.027 172.3 168.411 173.161 169.179C174.022 169.946 174.523 171.03 174.664 172.431H172.449C172.344 171.511 172.074 170.849 171.641 170.444C171.213 170.034 170.583 169.829 169.751 169.829C168.784 169.829 168.04 170.184 167.519 170.893C167.003 171.596 166.739 172.63 166.728 173.995V175.129C166.728 176.512 166.974 177.566 167.466 178.293C167.964 179.02 168.69 179.383 169.646 179.383C170.519 179.383 171.175 179.187 171.614 178.794C172.054 178.401 172.332 177.748 172.449 176.834H174.664ZM176.053 176.157C176.053 175.226 176.237 174.388 176.606 173.644C176.976 172.894 177.494 172.319 178.162 171.921C178.83 171.517 179.598 171.314 180.465 171.314C181.748 171.314 182.788 171.728 183.585 172.554C184.388 173.38 184.821 174.476 184.886 175.841L184.895 176.342C184.895 177.279 184.713 178.117 184.35 178.855C183.992 179.594 183.477 180.165 182.803 180.569C182.135 180.974 181.361 181.176 180.482 181.176C179.141 181.176 178.065 180.73 177.257 179.84C176.454 178.943 176.053 177.751 176.053 176.263V176.157ZM178.188 176.342C178.188 177.32 178.391 178.088 178.795 178.645C179.199 179.195 179.762 179.471 180.482 179.471C181.203 179.471 181.763 179.189 182.161 178.627C182.565 178.064 182.768 177.241 182.768 176.157C182.768 175.196 182.56 174.435 182.144 173.872C181.733 173.31 181.174 173.028 180.465 173.028C179.768 173.028 179.214 173.307 178.804 173.863C178.394 174.414 178.188 175.24 178.188 176.342ZM191.68 173.441C191.398 173.395 191.108 173.371 190.81 173.371C189.831 173.371 189.172 173.746 188.832 174.496V181H186.696V171.49H188.735L188.788 172.554C189.304 171.728 190.019 171.314 190.933 171.314C191.237 171.314 191.489 171.355 191.688 171.438L191.68 173.441Z" fill="#3A415D"/>
<path d="M91.7073 216.225H97.5169V218H89.4837V205.203H91.7073V216.225ZM100.657 218H98.5216V208.49H100.657V218ZM98.3898 206.021C98.3898 205.692 98.4923 205.42 98.6974 205.203C98.9084 204.986 99.2072 204.878 99.5939 204.878C99.9806 204.878 100.279 204.986 100.49 205.203C100.701 205.42 100.807 205.692 100.807 206.021C100.807 206.343 100.701 206.612 100.49 206.829C100.279 207.04 99.9806 207.146 99.5939 207.146C99.2072 207.146 98.9084 207.04 98.6974 206.829C98.4923 206.612 98.3898 206.343 98.3898 206.021ZM104.343 208.49L104.404 209.589C105.107 208.739 106.03 208.314 107.173 208.314C109.153 208.314 110.161 209.448 110.196 211.716V218H108.061V211.839C108.061 211.235 107.929 210.79 107.665 210.503C107.407 210.21 106.982 210.063 106.391 210.063C105.529 210.063 104.888 210.453 104.466 211.232V218H102.33V208.49H104.343ZM113.855 209.527C114.553 208.719 115.434 208.314 116.501 208.314C118.528 208.314 119.557 209.472 119.586 211.786V218H117.45V211.865C117.45 211.209 117.307 210.746 117.019 210.477C116.738 210.201 116.322 210.063 115.771 210.063C114.916 210.063 114.277 210.444 113.855 211.206V218H111.72V204.5H113.855V209.527ZM126.804 218C126.711 217.818 126.629 217.522 126.558 217.112C125.879 217.821 125.047 218.176 124.062 218.176C123.107 218.176 122.328 217.903 121.724 217.358C121.121 216.813 120.819 216.14 120.819 215.337C120.819 214.323 121.194 213.547 121.944 213.008C122.7 212.463 123.778 212.19 125.179 212.19H126.488V211.566C126.488 211.074 126.35 210.682 126.075 210.389C125.8 210.09 125.381 209.94 124.818 209.94C124.332 209.94 123.933 210.063 123.623 210.31C123.312 210.55 123.157 210.857 123.157 211.232H121.021C121.021 210.711 121.194 210.225 121.54 209.773C121.886 209.316 122.354 208.959 122.946 208.701C123.544 208.443 124.209 208.314 124.941 208.314C126.054 208.314 126.942 208.596 127.604 209.158C128.266 209.715 128.606 210.5 128.624 211.514V215.803C128.624 216.658 128.744 217.341 128.984 217.851V218H126.804ZM124.458 216.462C124.88 216.462 125.275 216.359 125.644 216.154C126.019 215.949 126.301 215.674 126.488 215.328V213.535H125.337C124.546 213.535 123.951 213.673 123.553 213.948C123.154 214.224 122.955 214.613 122.955 215.117C122.955 215.527 123.09 215.855 123.359 216.102C123.635 216.342 124.001 216.462 124.458 216.462ZM135.561 215.416C135.561 215.035 135.403 214.745 135.087 214.546C134.776 214.347 134.257 214.171 133.531 214.019C132.804 213.866 132.198 213.673 131.712 213.438C130.645 212.923 130.112 212.176 130.112 211.197C130.112 210.377 130.458 209.691 131.149 209.141C131.841 208.59 132.719 208.314 133.786 208.314C134.923 208.314 135.84 208.596 136.537 209.158C137.24 209.721 137.591 210.45 137.591 211.347H135.456C135.456 210.937 135.303 210.597 134.999 210.327C134.694 210.052 134.29 209.914 133.786 209.914C133.317 209.914 132.933 210.022 132.634 210.239C132.341 210.456 132.195 210.746 132.195 211.109C132.195 211.438 132.333 211.692 132.608 211.874C132.883 212.056 133.44 212.24 134.278 212.428C135.116 212.609 135.772 212.829 136.247 213.087C136.727 213.339 137.082 213.644 137.31 214.001C137.545 214.358 137.662 214.792 137.662 215.302C137.662 216.157 137.307 216.852 136.598 217.385C135.889 217.912 134.961 218.176 133.812 218.176C133.033 218.176 132.339 218.035 131.729 217.754C131.12 217.473 130.645 217.086 130.305 216.594C129.966 216.102 129.796 215.571 129.796 215.003H131.87C131.899 215.507 132.09 215.896 132.441 216.172C132.793 216.441 133.258 216.576 133.839 216.576C134.401 216.576 134.829 216.471 135.122 216.26C135.415 216.043 135.561 215.762 135.561 215.416ZM146.94 218.176C145.586 218.176 144.488 217.751 143.644 216.901C142.806 216.046 142.387 214.909 142.387 213.491V213.228C142.387 212.278 142.569 211.432 142.932 210.688C143.301 209.938 143.817 209.354 144.479 208.938C145.141 208.522 145.879 208.314 146.694 208.314C147.989 208.314 148.988 208.728 149.691 209.554C150.4 210.38 150.754 211.549 150.754 213.061V213.922H144.54C144.605 214.707 144.866 215.328 145.323 215.785C145.786 216.242 146.366 216.471 147.063 216.471C148.041 216.471 148.838 216.075 149.454 215.284L150.605 216.383C150.224 216.951 149.714 217.394 149.076 217.71C148.443 218.021 147.731 218.176 146.94 218.176ZM146.685 210.028C146.099 210.028 145.624 210.233 145.261 210.644C144.904 211.054 144.675 211.625 144.576 212.357H148.645V212.199C148.598 211.484 148.408 210.945 148.074 210.582C147.74 210.213 147.277 210.028 146.685 210.028ZM159.549 216.471C160.082 216.471 160.525 216.315 160.876 216.005C161.228 215.694 161.415 215.311 161.439 214.854H163.451C163.428 215.445 163.243 215.999 162.898 216.515C162.552 217.024 162.083 217.429 161.491 217.728C160.9 218.026 160.261 218.176 159.575 218.176C158.245 218.176 157.191 217.745 156.411 216.884C155.632 216.022 155.242 214.833 155.242 213.315V213.096C155.242 211.648 155.629 210.491 156.403 209.624C157.176 208.751 158.231 208.314 159.567 208.314C160.697 208.314 161.617 208.646 162.326 209.308C163.041 209.964 163.416 210.828 163.451 211.9H161.439C161.415 211.355 161.228 210.907 160.876 210.556C160.53 210.204 160.088 210.028 159.549 210.028C158.858 210.028 158.324 210.28 157.949 210.784C157.574 211.282 157.384 212.041 157.378 213.061V213.403C157.378 214.435 157.563 215.205 157.932 215.715C158.307 216.219 158.846 216.471 159.549 216.471ZM164.034 213.157C164.034 212.226 164.219 211.388 164.588 210.644C164.957 209.894 165.476 209.319 166.144 208.921C166.812 208.517 167.579 208.314 168.446 208.314C169.73 208.314 170.77 208.728 171.566 209.554C172.369 210.38 172.803 211.476 172.867 212.841L172.876 213.342C172.876 214.279 172.694 215.117 172.331 215.855C171.974 216.594 171.458 217.165 170.784 217.569C170.116 217.974 169.343 218.176 168.464 218.176C167.122 218.176 166.047 217.73 165.238 216.84C164.436 215.943 164.034 214.751 164.034 213.263V213.157ZM166.17 213.342C166.17 214.32 166.372 215.088 166.776 215.645C167.181 216.195 167.743 216.471 168.464 216.471C169.185 216.471 169.744 216.189 170.143 215.627C170.547 215.064 170.749 214.241 170.749 213.157C170.749 212.196 170.541 211.435 170.125 210.872C169.715 210.31 169.155 210.028 168.446 210.028C167.749 210.028 167.195 210.307 166.785 210.863C166.375 211.414 166.17 212.24 166.17 213.342ZM179.031 210.441C178.75 210.395 178.46 210.371 178.161 210.371C177.183 210.371 176.523 210.746 176.184 211.496V218H174.048V208.49H176.087L176.14 209.554C176.655 208.728 177.37 208.314 178.284 208.314C178.589 208.314 178.841 208.355 179.04 208.438L179.031 210.441ZM183.763 218.176C182.409 218.176 181.31 217.751 180.467 216.901C179.629 216.046 179.21 214.909 179.21 213.491V213.228C179.21 212.278 179.391 211.432 179.755 210.688C180.124 209.938 180.639 209.354 181.302 208.938C181.964 208.522 182.702 208.314 183.516 208.314C184.811 208.314 185.81 208.728 186.514 209.554C187.223 210.38 187.577 211.549 187.577 213.061V213.922H181.363C181.428 214.707 181.688 215.328 182.145 215.785C182.608 216.242 183.188 216.471 183.886 216.471C184.864 216.471 185.661 216.075 186.276 215.284L187.428 216.383C187.047 216.951 186.537 217.394 185.898 217.71C185.265 218.021 184.554 218.176 183.763 218.176ZM183.508 210.028C182.922 210.028 182.447 210.233 182.084 210.644C181.726 211.054 181.498 211.625 181.398 212.357H185.468V212.199C185.421 211.484 185.23 210.945 184.896 210.582C184.562 210.213 184.099 210.028 183.508 210.028ZM193.943 215.416C193.943 215.035 193.785 214.745 193.468 214.546C193.158 214.347 192.639 214.171 191.913 214.019C191.186 213.866 190.58 213.673 190.093 213.438C189.027 212.923 188.494 212.176 188.494 211.197C188.494 210.377 188.84 209.691 189.531 209.141C190.222 208.59 191.101 208.314 192.168 208.314C193.304 208.314 194.221 208.596 194.919 209.158C195.622 209.721 195.973 210.45 195.973 211.347H193.838C193.838 210.937 193.685 210.597 193.381 210.327C193.076 210.052 192.672 209.914 192.168 209.914C191.699 209.914 191.315 210.022 191.016 210.239C190.723 210.456 190.577 210.746 190.577 211.109C190.577 211.438 190.715 211.692 190.99 211.874C191.265 212.056 191.822 212.24 192.66 212.428C193.498 212.609 194.154 212.829 194.629 213.087C195.109 213.339 195.464 213.644 195.692 214.001C195.926 214.358 196.044 214.792 196.044 215.302C196.044 216.157 195.689 216.852 194.98 217.385C194.271 217.912 193.342 218.176 192.194 218.176C191.415 218.176 190.72 218.035 190.111 217.754C189.502 217.473 189.027 217.086 188.687 216.594C188.347 216.102 188.177 215.571 188.177 215.003H190.252C190.281 215.507 190.471 215.896 190.823 216.172C191.175 216.441 191.64 216.576 192.22 216.576C192.783 216.576 193.211 216.471 193.504 216.26C193.797 216.043 193.943 215.762 193.943 215.416Z" fill="#3A415D"/>
<path d="M54.9512 256.865H48.9658V262.086H55.8477V263H47.8848V250.203H55.8037V251.126H48.9658V255.951H54.9512V256.865ZM58.8887 253.49L58.9238 255.116C59.2812 254.53 59.7266 254.085 60.2598 253.78C60.793 253.47 61.3818 253.314 62.0264 253.314C63.0459 253.314 63.8047 253.602 64.3027 254.176C64.8008 254.75 65.0527 255.611 65.0586 256.76V263H64.0127V256.751C64.0068 255.901 63.8252 255.269 63.4678 254.853C63.1162 254.437 62.5508 254.229 61.7715 254.229C61.1211 254.229 60.5439 254.434 60.04 254.844C59.542 255.248 59.1729 255.796 58.9326 256.487V263H57.8867V253.49H58.8887ZM69.418 251.056V253.49H71.3867V254.352H69.418V260.688C69.418 261.216 69.5117 261.608 69.6992 261.866C69.8926 262.124 70.2119 262.253 70.6572 262.253C70.833 262.253 71.1172 262.224 71.5098 262.165L71.5537 263.026C71.2783 263.126 70.9033 263.176 70.4287 263.176C69.708 263.176 69.1836 262.968 68.8555 262.552C68.5273 262.13 68.3633 261.512 68.3633 260.697V254.352H66.6143V253.49H68.3633V251.056H69.418ZM77.9609 254.387C77.7383 254.346 77.501 254.325 77.249 254.325C76.5928 254.325 76.0361 254.51 75.5791 254.879C75.1279 255.242 74.8057 255.772 74.6123 256.47V263H73.5664V253.49H74.5947L74.6123 255.002C75.1689 253.877 76.0625 253.314 77.293 253.314C77.5859 253.314 77.8174 253.353 77.9873 253.429L77.9609 254.387ZM83.1377 263.176C82.3291 263.176 81.5967 262.977 80.9404 262.578C80.29 262.18 79.7832 261.626 79.4199 260.917C79.0566 260.202 78.875 259.402 78.875 258.518V258.14C78.875 257.226 79.0508 256.402 79.4023 255.67C79.7598 254.938 80.2549 254.363 80.8877 253.947C81.5205 253.525 82.2061 253.314 82.9443 253.314C84.0986 253.314 85.0127 253.71 85.6865 254.501C86.3662 255.286 86.7061 256.361 86.7061 257.727V258.315H79.9209V258.518C79.9209 259.596 80.2285 260.495 80.8438 261.216C81.4648 261.931 82.2441 262.288 83.1816 262.288C83.7441 262.288 84.2393 262.186 84.667 261.98C85.1006 261.775 85.4932 261.447 85.8447 260.996L86.5039 261.497C85.7305 262.616 84.6084 263.176 83.1377 263.176ZM82.9443 254.211C82.1533 254.211 81.4854 254.501 80.9404 255.081C80.4014 255.661 80.0732 256.44 79.9561 257.419H85.6602V257.305C85.6309 256.391 85.3701 255.646 84.8779 255.072C84.3857 254.498 83.7412 254.211 82.9443 254.211ZM88.332 258.157C88.332 256.669 88.6602 255.491 89.3164 254.624C89.9785 253.751 90.875 253.314 92.0059 253.314C93.3008 253.314 94.2852 253.83 94.959 254.861L95.0117 253.49H95.9961V262.807C95.9961 264.031 95.6533 265.001 94.9678 265.716C94.2822 266.431 93.3535 266.788 92.1816 266.788C91.5195 266.788 90.8867 266.639 90.2832 266.34C89.6855 266.047 89.2139 265.654 88.8682 265.162L89.457 264.529C90.2012 265.443 91.0859 265.9 92.1113 265.9C92.9902 265.9 93.6758 265.64 94.168 265.118C94.6602 264.603 94.915 263.885 94.9326 262.965V261.77C94.2588 262.707 93.2773 263.176 91.9883 263.176C90.8867 263.176 90.002 262.736 89.334 261.857C88.666 260.979 88.332 259.792 88.332 258.298V258.157ZM89.3955 258.342C89.3955 259.555 89.6387 260.513 90.125 261.216C90.6113 261.913 91.2969 262.262 92.1816 262.262C93.4766 262.262 94.3936 261.682 94.9326 260.521V256.101C94.6865 255.491 94.332 255.028 93.8691 254.712C93.4062 254.39 92.8496 254.229 92.1992 254.229C91.3145 254.229 90.626 254.577 90.1338 255.274C89.6416 255.966 89.3955 256.988 89.3955 258.342ZM104.741 263C104.636 262.701 104.568 262.259 104.539 261.673C104.17 262.153 103.698 262.525 103.124 262.789C102.556 263.047 101.952 263.176 101.313 263.176C100.399 263.176 99.6582 262.921 99.0898 262.411C98.5273 261.901 98.2461 261.257 98.2461 260.478C98.2461 259.552 98.6299 258.819 99.3975 258.28C100.171 257.741 101.246 257.472 102.623 257.472H104.53V256.391C104.53 255.711 104.319 255.178 103.897 254.791C103.481 254.398 102.872 254.202 102.069 254.202C101.337 254.202 100.73 254.39 100.25 254.765C99.7695 255.14 99.5293 255.591 99.5293 256.118L98.4746 256.109C98.4746 255.354 98.8262 254.7 99.5293 254.149C100.232 253.593 101.097 253.314 102.122 253.314C103.183 253.314 104.018 253.581 104.627 254.114C105.242 254.642 105.559 255.38 105.576 256.329V260.829C105.576 261.749 105.673 262.438 105.866 262.895V263H104.741ZM101.437 262.244C102.14 262.244 102.767 262.074 103.317 261.734C103.874 261.395 104.278 260.94 104.53 260.372V258.28H102.649C101.601 258.292 100.78 258.485 100.188 258.86C99.5967 259.229 99.3008 259.739 99.3008 260.39C99.3008 260.923 99.4971 261.365 99.8896 261.717C100.288 262.068 100.804 262.244 101.437 262.244ZM116.448 263.176C115.64 263.176 114.907 262.977 114.251 262.578C113.601 262.18 113.094 261.626 112.73 260.917C112.367 260.202 112.186 259.402 112.186 258.518V258.14C112.186 257.226 112.361 256.402 112.713 255.67C113.07 254.938 113.565 254.363 114.198 253.947C114.831 253.525 115.517 253.314 116.255 253.314C117.409 253.314 118.323 253.71 118.997 254.501C119.677 255.286 120.017 256.361 120.017 257.727V258.315H113.231V258.518C113.231 259.596 113.539 260.495 114.154 261.216C114.775 261.931 115.555 262.288 116.492 262.288C117.055 262.288 117.55 262.186 117.978 261.98C118.411 261.775 118.804 261.447 119.155 260.996L119.814 261.497C119.041 262.616 117.919 263.176 116.448 263.176ZM116.255 254.211C115.464 254.211 114.796 254.501 114.251 255.081C113.712 255.661 113.384 256.44 113.267 257.419H118.971V257.305C118.941 256.391 118.681 255.646 118.188 255.072C117.696 254.498 117.052 254.211 116.255 254.211ZM123.022 253.49L123.058 255.037C123.409 254.463 123.849 254.032 124.376 253.745C124.903 253.458 125.489 253.314 126.134 253.314C127.634 253.314 128.586 253.93 128.99 255.16C129.33 254.568 129.784 254.114 130.353 253.798C130.921 253.476 131.548 253.314 132.233 253.314C134.272 253.314 135.312 254.428 135.354 256.654V263H134.299V256.733C134.293 255.884 134.108 255.254 133.745 254.844C133.388 254.434 132.802 254.229 131.987 254.229C131.231 254.24 130.593 254.486 130.071 254.967C129.55 255.441 129.26 256.021 129.201 256.707V263H128.146V256.654C128.141 255.84 127.947 255.233 127.566 254.835C127.191 254.431 126.611 254.229 125.826 254.229C125.164 254.229 124.596 254.419 124.121 254.8C123.646 255.175 123.295 255.734 123.066 256.479V263H122.012V253.49H123.022ZM142.947 256.443L143.571 250.203H149.97V251.179H144.477L144.028 255.503C144.714 255.034 145.517 254.8 146.437 254.8C147.591 254.8 148.511 255.175 149.196 255.925C149.882 256.675 150.225 257.674 150.225 258.922C150.225 260.27 149.891 261.315 149.223 262.06C148.555 262.804 147.614 263.176 146.401 263.176C145.288 263.176 144.386 262.865 143.694 262.244C143.003 261.623 142.607 260.753 142.508 259.634H143.519C143.618 260.507 143.914 261.169 144.406 261.62C144.898 262.065 145.563 262.288 146.401 262.288C147.315 262.288 148.004 261.998 148.467 261.418C148.936 260.838 149.17 260.012 149.17 258.939C149.17 258.002 148.909 257.237 148.388 256.646C147.866 256.054 147.154 255.758 146.252 255.758C145.754 255.758 145.32 255.822 144.951 255.951C144.582 256.074 144.192 256.317 143.782 256.681L142.947 256.443ZM156.342 258.157C156.342 256.681 156.67 255.506 157.326 254.633C157.988 253.754 158.885 253.314 160.016 253.314C161.299 253.314 162.277 253.821 162.951 254.835V249.5H163.997V263H163.013L162.969 261.734C162.295 262.695 161.305 263.176 159.998 263.176C158.902 263.176 158.018 262.736 157.344 261.857C156.676 260.973 156.342 259.78 156.342 258.28V258.157ZM157.405 258.342C157.405 259.555 157.648 260.513 158.135 261.216C158.621 261.913 159.307 262.262 160.191 262.262C161.486 262.262 162.406 261.69 162.951 260.548V256.083C162.406 254.847 161.492 254.229 160.209 254.229C159.324 254.229 158.636 254.577 158.144 255.274C157.651 255.966 157.405 256.988 157.405 258.342ZM167.943 263H166.889V253.49H167.943V263ZM166.704 250.739C166.704 250.54 166.769 250.373 166.897 250.238C167.026 250.098 167.202 250.027 167.425 250.027C167.647 250.027 167.823 250.098 167.952 250.238C168.087 250.373 168.154 250.54 168.154 250.739C168.154 250.938 168.087 251.105 167.952 251.24C167.823 251.375 167.647 251.442 167.425 251.442C167.202 251.442 167.026 251.375 166.897 251.24C166.769 251.105 166.704 250.938 166.704 250.739ZM176.812 263C176.706 262.701 176.639 262.259 176.609 261.673C176.24 262.153 175.769 262.525 175.194 262.789C174.626 263.047 174.022 263.176 173.384 263.176C172.47 263.176 171.729 262.921 171.16 262.411C170.598 261.901 170.316 261.257 170.316 260.478C170.316 259.552 170.7 258.819 171.468 258.28C172.241 257.741 173.316 257.472 174.693 257.472H176.601V256.391C176.601 255.711 176.39 255.178 175.968 254.791C175.552 254.398 174.942 254.202 174.14 254.202C173.407 254.202 172.801 254.39 172.32 254.765C171.84 255.14 171.6 255.591 171.6 256.118L170.545 256.109C170.545 255.354 170.896 254.7 171.6 254.149C172.303 253.593 173.167 253.314 174.192 253.314C175.253 253.314 176.088 253.581 176.697 254.114C177.312 254.642 177.629 255.38 177.646 256.329V260.829C177.646 261.749 177.743 262.438 177.937 262.895V263H176.812ZM173.507 262.244C174.21 262.244 174.837 262.074 175.388 261.734C175.944 261.395 176.349 260.94 176.601 260.372V258.28H174.72C173.671 258.292 172.851 258.485 172.259 258.86C171.667 259.229 171.371 259.739 171.371 260.39C171.371 260.923 171.567 261.365 171.96 261.717C172.358 262.068 172.874 262.244 173.507 262.244ZM186.154 260.583C186.154 260.062 185.943 259.643 185.521 259.326C185.105 259.01 184.476 258.764 183.632 258.588C182.788 258.406 182.132 258.201 181.663 257.973C181.2 257.738 180.854 257.454 180.626 257.12C180.403 256.786 180.292 256.382 180.292 255.907C180.292 255.157 180.605 254.539 181.232 254.053C181.859 253.561 182.662 253.314 183.641 253.314C184.701 253.314 185.551 253.578 186.189 254.105C186.834 254.627 187.156 255.31 187.156 256.153H186.102C186.102 255.597 185.867 255.134 185.398 254.765C184.936 254.396 184.35 254.211 183.641 254.211C182.949 254.211 182.393 254.366 181.971 254.677C181.555 254.981 181.347 255.38 181.347 255.872C181.347 256.347 181.52 256.716 181.865 256.979C182.217 257.237 182.853 257.475 183.772 257.691C184.698 257.908 185.39 258.14 185.847 258.386C186.31 258.632 186.652 258.928 186.875 259.273C187.098 259.619 187.209 260.038 187.209 260.53C187.209 261.333 186.884 261.975 186.233 262.455C185.589 262.936 184.745 263.176 183.702 263.176C182.595 263.176 181.695 262.909 181.004 262.376C180.318 261.837 179.976 261.157 179.976 260.337H181.03C181.071 260.952 181.329 261.433 181.804 261.778C182.284 262.118 182.917 262.288 183.702 262.288C184.435 262.288 185.026 262.127 185.478 261.805C185.929 261.482 186.154 261.075 186.154 260.583ZM200.076 261.796C199.443 262.716 198.433 263.176 197.044 263.176C196.03 263.176 195.26 262.883 194.732 262.297C194.205 261.705 193.936 260.832 193.924 259.678V253.49H194.97V259.546C194.97 261.356 195.702 262.262 197.167 262.262C198.69 262.262 199.654 261.632 200.059 260.372V253.49H201.113V263H200.094L200.076 261.796ZM198.679 249.5H199.953L197.923 251.961H197L198.679 249.5ZM205.49 251.056V253.49H207.459V254.352H205.49V260.688C205.49 261.216 205.584 261.608 205.771 261.866C205.965 262.124 206.284 262.253 206.729 262.253C206.905 262.253 207.189 262.224 207.582 262.165L207.626 263.026C207.351 263.126 206.976 263.176 206.501 263.176C205.78 263.176 205.256 262.968 204.928 262.552C204.6 262.13 204.436 261.512 204.436 260.697V254.352H202.687V253.49H204.436V251.056H205.49ZM213.321 263.176C212.513 263.176 211.78 262.977 211.124 262.578C210.474 262.18 209.967 261.626 209.604 260.917C209.24 260.202 209.059 259.402 209.059 258.518V258.14C209.059 257.226 209.234 256.402 209.586 255.67C209.943 254.938 210.438 254.363 211.071 253.947C211.704 253.525 212.39 253.314 213.128 253.314C214.282 253.314 215.196 253.71 215.87 254.501C216.55 255.286 216.89 256.361 216.89 257.727V258.315H210.104V258.518C210.104 259.596 210.412 260.495 211.027 261.216C211.648 261.931 212.428 262.288 213.365 262.288C213.928 262.288 214.423 262.186 214.851 261.98C215.284 261.775 215.677 261.447 216.028 260.996L216.688 261.497C215.914 262.616 214.792 263.176 213.321 263.176ZM213.128 254.211C212.337 254.211 211.669 254.501 211.124 255.081C210.585 255.661 210.257 256.44 210.14 257.419H215.844V257.305C215.814 256.391 215.554 255.646 215.062 255.072C214.569 254.498 213.925 254.211 213.128 254.211ZM220.115 263H219.061V253.49H220.115V263ZM218.876 250.739C218.876 250.54 218.94 250.373 219.069 250.238C219.198 250.098 219.374 250.027 219.597 250.027C219.819 250.027 219.995 250.098 220.124 250.238C220.259 250.373 220.326 250.54 220.326 250.739C220.326 250.938 220.259 251.105 220.124 251.24C219.995 251.375 219.819 251.442 219.597 251.442C219.374 251.442 219.198 251.375 219.069 251.24C218.94 251.105 218.876 250.938 218.876 250.739ZM228.676 260.583C228.676 260.062 228.465 259.643 228.043 259.326C227.627 259.01 226.997 258.764 226.153 258.588C225.31 258.406 224.653 258.201 224.185 257.973C223.722 257.738 223.376 257.454 223.147 257.12C222.925 256.786 222.813 256.382 222.813 255.907C222.813 255.157 223.127 254.539 223.754 254.053C224.381 253.561 225.184 253.314 226.162 253.314C227.223 253.314 228.072 253.578 228.711 254.105C229.355 254.627 229.678 255.31 229.678 256.153H228.623C228.623 255.597 228.389 255.134 227.92 254.765C227.457 254.396 226.871 254.211 226.162 254.211C225.471 254.211 224.914 254.366 224.492 254.677C224.076 254.981 223.868 255.38 223.868 255.872C223.868 256.347 224.041 256.716 224.387 256.979C224.738 257.237 225.374 257.475 226.294 257.691C227.22 257.908 227.911 258.14 228.368 258.386C228.831 258.632 229.174 258.928 229.396 259.273C229.619 259.619 229.73 260.038 229.73 260.53C229.73 261.333 229.405 261.975 228.755 262.455C228.11 262.936 227.267 263.176 226.224 263.176C225.116 263.176 224.217 262.909 223.525 262.376C222.84 261.837 222.497 261.157 222.497 260.337H223.552C223.593 260.952 223.851 261.433 224.325 261.778C224.806 262.118 225.438 262.288 226.224 262.288C226.956 262.288 227.548 262.127 227.999 261.805C228.45 261.482 228.676 261.075 228.676 260.583Z" fill="#3A415D"/>
<path d="M62 127L69.8775 132.689C70.4302 133.088 70.4302 133.912 69.8775 134.311L62 140" stroke="#535971" stroke-width="3" stroke-linecap="round"/>
<path d="M62 166L69.8775 171.689C70.4302 172.088 70.4302 172.912 69.8775 173.311L62 179" stroke="#535971" stroke-width="3" stroke-linecap="round"/>
<path d="M62 205L69.8775 210.689C70.4302 211.088 70.4302 211.912 69.8775 212.311L62 218" stroke="#535971" stroke-width="3" stroke-linecap="round"/>
<path d="M45 276L231 276" stroke="#3A415D" stroke-width="2" stroke-linecap="round"/>
<defs>
<filter id="filter0_d" x="0" y="0" width="276" height="356" filterUnits="userSpaceOnUse" color-interpolation-filters="sRGB">
<feFlood flood-opacity="0" result="BackgroundImageFix"/>
<feColorMatrix in="SourceAlpha" type="matrix" values="0 0 0 0 0 0 0 0 0 0 0 0 0 0 0 0 0 0 127 0" result="hardAlpha"/>
<feMorphology radius="1" operator="dilate" in="SourceAlpha" result="effect1_dropShadow"/>
<feOffset dy="4"/>
<feGaussianBlur stdDeviation="10"/>
<feComposite in2="hardAlpha" operator="out"/>
<feColorMatrix type="matrix" values="0 0 0 0 0.533333 0 0 0 0 0.533333 0 0 0 0 0.533333 0 0 0 0.25 0"/>
<feBlend mode="normal" in2="BackgroundImageFix" result="effect1_dropShadow"/>
<feBlend mode="normal" in="SourceGraphic" in2="effect1_dropShadow" result="shape"/>
</filter>
<filter id="filter1_d" x="0" y="0" width="276" height="121" filterUnits="userSpaceOnUse" color-interpolation-filters="sRGB">
<feFlood flood-opacity="0" result="BackgroundImageFix"/>
<feColorMatrix in="SourceAlpha" type="matrix" values="0 0 0 0 0 0 0 0 0 0 0 0 0 0 0 0 0 0 127 0" result="hardAlpha"/>
<feMorphology radius="1" operator="dilate" in="SourceAlpha" result="effect1_dropShadow"/>
<feOffset dy="4"/>
<feGaussianBlur stdDeviation="10"/>
<feComposite in2="hardAlpha" operator="out"/>
<feColorMatrix type="matrix" values="0 0 0 0 0.533333 0 0 0 0 0.533333 0 0 0 0 0.533333 0 0 0 0.25 0"/>
<feBlend mode="normal" in2="BackgroundImageFix" result="effect1_dropShadow"/>
<feBlend mode="normal" in="SourceGraphic" in2="effect1_dropShadow" result="shape"/>
</filter>
</defs>
</svg>
