<svg width="276" height="356" viewBox="0 0 276 356" fill="none" xmlns="http://www.w3.org/2000/svg">
<g filter="url(#filter0_d)">
<rect x="21" y="17" width="234" height="314" rx="25" fill="white"/>
</g>
<path d="M84.166 305.139H79.209V315H74.7617V289.406H83.7617C86.7148 289.406 88.9941 290.068 90.5996 291.393C92.2051 292.717 93.0078 294.633 93.0078 297.141C93.0078 298.852 92.5918 300.287 91.7598 301.447C90.9395 302.596 89.791 303.48 88.3145 304.102L94.0625 314.771V315H89.2988L84.166 305.139ZM79.209 301.57H83.7793C85.2793 301.57 86.4512 301.195 87.2949 300.445C88.1387 299.684 88.5605 298.646 88.5605 297.334C88.5605 295.963 88.168 294.902 87.3828 294.152C86.6094 293.402 85.4492 293.016 83.9023 292.992H79.209V301.57ZM109.021 308.32C109.021 307.324 108.705 306.504 108.072 305.859C107.439 305.203 106.385 304.617 104.908 304.102C103.432 303.574 102.283 303.088 101.463 302.643C98.7324 301.178 97.3672 299.01 97.3672 296.139C97.3672 294.193 97.959 292.594 99.1426 291.34C100.326 290.086 101.932 289.342 103.959 289.107V285.275H106.771V289.143C108.811 289.436 110.387 290.303 111.5 291.744C112.613 293.174 113.17 295.037 113.17 297.334H108.916C108.916 295.857 108.582 294.697 107.914 293.854C107.258 292.998 106.361 292.57 105.225 292.57C104.1 292.57 103.221 292.875 102.588 293.484C101.955 294.094 101.639 294.967 101.639 296.104C101.639 297.123 101.949 297.943 102.57 298.564C103.203 299.174 104.27 299.754 105.77 300.305C107.27 300.855 108.447 301.365 109.303 301.834C110.158 302.303 110.879 302.842 111.465 303.451C112.051 304.049 112.502 304.74 112.818 305.525C113.135 306.311 113.293 307.23 113.293 308.285C113.293 310.266 112.684 311.871 111.465 313.102C110.258 314.332 108.57 315.059 106.402 315.281V318.709H103.607V315.299C101.287 315.041 99.5 314.209 98.2461 312.803C97.0039 311.396 96.3828 309.533 96.3828 307.213H100.654C100.654 308.689 101.023 309.832 101.762 310.641C102.512 311.449 103.566 311.854 104.926 311.854C106.262 311.854 107.275 311.531 107.967 310.887C108.67 310.242 109.021 309.387 109.021 308.32ZM134.211 315H117.002V312.064L125.527 302.766C126.758 301.395 127.631 300.252 128.146 299.338C128.674 298.412 128.938 297.486 128.938 296.561C128.938 295.342 128.592 294.357 127.9 293.607C127.221 292.857 126.301 292.482 125.141 292.482C123.758 292.482 122.686 292.904 121.924 293.748C121.162 294.592 120.781 295.746 120.781 297.211H116.51C116.51 295.652 116.861 294.252 117.564 293.01C118.279 291.756 119.293 290.783 120.605 290.092C121.93 289.4 123.453 289.055 125.176 289.055C127.66 289.055 129.617 289.682 131.047 290.936C132.488 292.178 133.209 293.9 133.209 296.104C133.209 297.381 132.846 298.723 132.119 300.129C131.404 301.523 130.227 303.111 128.586 304.893L122.328 311.59H134.211V315ZM154.145 304.225C154.145 307.904 153.453 310.682 152.07 312.557C150.699 314.42 148.607 315.352 145.795 315.352C143.029 315.352 140.943 314.443 139.537 312.627C138.143 310.799 137.428 308.098 137.393 304.523V300.094C137.393 296.414 138.078 293.654 139.449 291.814C140.832 289.975 142.936 289.055 145.76 289.055C148.561 289.055 150.646 289.951 152.018 291.744C153.4 293.537 154.109 296.221 154.145 299.795V304.225ZM149.873 299.443C149.873 297.041 149.545 295.283 148.889 294.17C148.232 293.045 147.189 292.482 145.76 292.482C144.365 292.482 143.34 293.016 142.684 294.082C142.027 295.137 141.682 296.789 141.646 299.039V304.84C141.646 307.23 141.98 309.012 142.648 310.184C143.316 311.355 144.365 311.941 145.795 311.941C147.166 311.941 148.18 311.402 148.836 310.324C149.492 309.234 149.838 307.535 149.873 305.227V299.443ZM158.803 320.766L156.5 319.395C157.18 318.328 157.643 317.396 157.889 316.6C158.146 315.814 158.281 315.012 158.293 314.191V310.869H162.143L162.125 313.945C162.113 315.188 161.797 316.43 161.176 317.672C160.566 318.926 159.775 319.957 158.803 320.766ZM182.516 304.225C182.516 307.904 181.824 310.682 180.441 312.557C179.07 314.42 176.979 315.352 174.166 315.352C171.4 315.352 169.314 314.443 167.908 312.627C166.514 310.799 165.799 308.098 165.764 304.523V300.094C165.764 296.414 166.449 293.654 167.82 291.814C169.203 289.975 171.307 289.055 174.131 289.055C176.932 289.055 179.018 289.951 180.389 291.744C181.771 293.537 182.48 296.221 182.516 299.795V304.225ZM178.244 299.443C178.244 297.041 177.916 295.283 177.26 294.17C176.604 293.045 175.561 292.482 174.131 292.482C172.736 292.482 171.711 293.016 171.055 294.082C170.398 295.137 170.053 296.789 170.018 299.039V304.84C170.018 307.23 170.352 309.012 171.02 310.184C171.688 311.355 172.736 311.941 174.166 311.941C175.537 311.941 176.551 311.402 177.207 310.324C177.863 309.234 178.209 307.535 178.244 305.227V299.443ZM202.977 304.225C202.977 307.904 202.285 310.682 200.902 312.557C199.531 314.42 197.439 315.352 194.627 315.352C191.861 315.352 189.775 314.443 188.369 312.627C186.975 310.799 186.26 308.098 186.225 304.523V300.094C186.225 296.414 186.91 293.654 188.281 291.814C189.664 289.975 191.768 289.055 194.592 289.055C197.393 289.055 199.479 289.951 200.85 291.744C202.232 293.537 202.941 296.221 202.977 299.795V304.225ZM198.705 299.443C198.705 297.041 198.377 295.283 197.721 294.17C197.064 293.045 196.021 292.482 194.592 292.482C193.197 292.482 192.172 293.016 191.516 294.082C190.859 295.137 190.514 296.789 190.479 299.039V304.84C190.479 307.23 190.812 309.012 191.48 310.184C192.148 311.355 193.197 311.941 194.627 311.941C195.998 311.941 197.012 311.402 197.668 310.324C198.324 309.234 198.67 307.535 198.705 305.227V299.443Z" fill="#3A415D"/>
<g filter="url(#filter1_d)">
<path d="M21 42C21 28.1929 32.1929 17 46 17H230C243.807 17 255 28.1929 255 42V94C255 95.1046 254.105 96 253 96H21V42Z" fill="#868FB3"/>
</g>
<path d="M51.2109 71.7344H68.7188V73H49.9219V38.875H51.2109V71.7344ZM76.9219 73H75.6562V38.875H76.9219V73ZM111.82 73H110.555L88.5234 41.0312V73H87.2344V38.875H88.5234L110.555 70.7734V38.875H111.82V73ZM139.594 56.0781H122.484V71.7344H141.984V73H121.219V38.875H141.984V40.1406H122.484V54.8125H139.594V56.0781ZM166.523 62.8047H149.812L146.016 73H144.633L157.406 38.875H158.953L171.727 73H170.344L166.523 62.8047ZM150.281 61.5391H166.055L158.18 40.3984L150.281 61.5391ZM190.219 58.3984H178.383V73H177.117V38.875H187.992C191.414 38.875 194.133 39.7578 196.148 41.5234C198.18 43.2891 199.195 45.6875 199.195 48.7188C199.195 51.0469 198.469 53.0859 197.016 54.8359C195.578 56.5703 193.742 57.6484 191.508 58.0703L200.625 72.6719V73H199.289L190.219 58.3984ZM178.383 57.1328H189.141C191.766 57.1328 193.883 56.3359 195.492 54.7422C197.117 53.1484 197.93 51.1406 197.93 48.7188C197.93 46.0625 197.031 43.9688 195.234 42.4375C193.453 40.9062 191.008 40.1406 187.898 40.1406H178.383V57.1328ZM229.477 40.1406H217.055V73H215.789V40.1406H203.367V38.875H229.477V40.1406Z" fill="white"/>
<path d="M97.9492 142H89.3447V140.532L93.6074 135.883C94.2227 135.197 94.6592 134.626 94.917 134.169C95.1807 133.706 95.3125 133.243 95.3125 132.78C95.3125 132.171 95.1396 131.679 94.7939 131.304C94.4541 130.929 93.9941 130.741 93.4141 130.741C92.7227 130.741 92.1865 130.952 91.8057 131.374C91.4248 131.796 91.2344 132.373 91.2344 133.105H89.0986C89.0986 132.326 89.2744 131.626 89.626 131.005C89.9834 130.378 90.4902 129.892 91.1465 129.546C91.8086 129.2 92.5703 129.027 93.4316 129.027C94.6738 129.027 95.6523 129.341 96.3672 129.968C97.0879 130.589 97.4482 131.45 97.4482 132.552C97.4482 133.19 97.2666 133.861 96.9033 134.564C96.5459 135.262 95.957 136.056 95.1367 136.946L92.0078 140.295H97.9492V142ZM99.7422 136.797C99.7422 135.443 99.9238 134.16 100.287 132.947C100.65 131.729 101.184 130.642 101.887 129.687C102.59 128.726 103.334 128.052 104.119 127.665L104.541 128.913C103.715 129.54 103.044 130.498 102.528 131.787C102.019 133.07 101.74 134.541 101.693 136.199L101.685 136.955C101.685 138.73 101.934 140.315 102.432 141.71C102.936 143.099 103.639 144.156 104.541 144.883L104.119 146.069C103.334 145.683 102.587 145.006 101.878 144.039C101.175 143.078 100.642 141.994 100.278 140.787C99.9209 139.574 99.7422 138.244 99.7422 136.797ZM105.587 137.175C105.587 135.71 105.927 134.535 106.606 133.65C107.286 132.76 108.197 132.314 109.34 132.314C110.348 132.314 111.162 132.666 111.783 133.369V128.5H113.919V142H111.985L111.88 141.016C111.241 141.789 110.389 142.176 109.322 142.176C108.209 142.176 107.307 141.728 106.615 140.831C105.93 139.935 105.587 138.716 105.587 137.175ZM107.723 137.359C107.723 138.326 107.907 139.082 108.276 139.627C108.651 140.166 109.182 140.436 109.867 140.436C110.74 140.436 111.379 140.046 111.783 139.267V135.206C111.391 134.444 110.758 134.063 109.885 134.063C109.193 134.063 108.66 134.339 108.285 134.89C107.91 135.435 107.723 136.258 107.723 137.359ZM121.908 141.068C121.281 141.807 120.391 142.176 119.236 142.176C118.205 142.176 117.423 141.874 116.89 141.271C116.362 140.667 116.099 139.794 116.099 138.651V132.49H118.234V138.625C118.234 139.832 118.735 140.436 119.737 140.436C120.774 140.436 121.475 140.063 121.838 139.319V132.49H123.974V142H121.961L121.908 141.068ZM131.831 142C131.737 141.818 131.655 141.522 131.585 141.112C130.905 141.821 130.073 142.176 129.089 142.176C128.134 142.176 127.354 141.903 126.751 141.358C126.147 140.813 125.846 140.14 125.846 139.337C125.846 138.323 126.221 137.547 126.971 137.008C127.727 136.463 128.805 136.19 130.205 136.19H131.515V135.566C131.515 135.074 131.377 134.682 131.102 134.389C130.826 134.09 130.407 133.94 129.845 133.94C129.358 133.94 128.96 134.063 128.649 134.31C128.339 134.55 128.184 134.857 128.184 135.232H126.048C126.048 134.711 126.221 134.225 126.566 133.773C126.912 133.316 127.381 132.959 127.973 132.701C128.57 132.443 129.235 132.314 129.968 132.314C131.081 132.314 131.969 132.596 132.631 133.158C133.293 133.715 133.633 134.5 133.65 135.514V139.803C133.65 140.658 133.771 141.341 134.011 141.851V142H131.831ZM129.484 140.462C129.906 140.462 130.302 140.359 130.671 140.154C131.046 139.949 131.327 139.674 131.515 139.328V137.535H130.363C129.572 137.535 128.978 137.673 128.579 137.948C128.181 138.224 127.981 138.613 127.981 139.117C127.981 139.527 128.116 139.855 128.386 140.102C128.661 140.342 129.027 140.462 129.484 140.462ZM141.218 139.416C141.218 139.035 141.06 138.745 140.743 138.546C140.433 138.347 139.914 138.171 139.188 138.019C138.461 137.866 137.854 137.673 137.368 137.438C136.302 136.923 135.769 136.176 135.769 135.197C135.769 134.377 136.114 133.691 136.806 133.141C137.497 132.59 138.376 132.314 139.442 132.314C140.579 132.314 141.496 132.596 142.193 133.158C142.896 133.721 143.248 134.45 143.248 135.347H141.112C141.112 134.937 140.96 134.597 140.655 134.327C140.351 134.052 139.946 133.914 139.442 133.914C138.974 133.914 138.59 134.022 138.291 134.239C137.998 134.456 137.852 134.746 137.852 135.109C137.852 135.438 137.989 135.692 138.265 135.874C138.54 136.056 139.097 136.24 139.935 136.428C140.772 136.609 141.429 136.829 141.903 137.087C142.384 137.339 142.738 137.644 142.967 138.001C143.201 138.358 143.318 138.792 143.318 139.302C143.318 140.157 142.964 140.852 142.255 141.385C141.546 141.912 140.617 142.176 139.469 142.176C138.689 142.176 137.995 142.035 137.386 141.754C136.776 141.473 136.302 141.086 135.962 140.594C135.622 140.102 135.452 139.571 135.452 139.003H137.526C137.556 139.507 137.746 139.896 138.098 140.172C138.449 140.441 138.915 140.576 139.495 140.576C140.058 140.576 140.485 140.471 140.778 140.26C141.071 140.043 141.218 139.762 141.218 139.416ZM149.304 136.938C149.304 138.238 149.125 139.495 148.768 140.708C148.41 141.915 147.868 143.014 147.142 144.004C146.415 145 145.656 145.688 144.865 146.069L144.443 144.883C145.322 144.203 146.017 143.166 146.526 141.771C147.042 140.371 147.3 138.774 147.3 136.981V136.779C147.3 135.15 147.077 133.668 146.632 132.332C146.187 130.99 145.548 129.915 144.716 129.106L144.443 128.86L144.865 127.665C145.615 128.028 146.342 128.673 147.045 129.599C147.748 130.524 148.287 131.562 148.662 132.71C149.037 133.853 149.248 135.033 149.295 136.252L149.304 136.938ZM164.342 137.342C164.342 138.812 164.008 139.987 163.34 140.866C162.672 141.739 161.775 142.176 160.65 142.176C159.607 142.176 158.772 141.833 158.146 141.147V145.656H156.01V132.49H157.979L158.066 133.457C158.693 132.695 159.546 132.314 160.624 132.314C161.784 132.314 162.692 132.748 163.349 133.615C164.011 134.477 164.342 135.675 164.342 137.21V137.342ZM162.215 137.157C162.215 136.208 162.024 135.455 161.644 134.898C161.269 134.342 160.729 134.063 160.026 134.063C159.153 134.063 158.526 134.424 158.146 135.145V139.363C158.532 140.102 159.165 140.471 160.044 140.471C160.724 140.471 161.254 140.198 161.635 139.653C162.021 139.103 162.215 138.271 162.215 137.157ZM170.345 142.176C168.991 142.176 167.893 141.751 167.049 140.901C166.211 140.046 165.792 138.909 165.792 137.491V137.228C165.792 136.278 165.974 135.432 166.337 134.688C166.706 133.938 167.222 133.354 167.884 132.938C168.546 132.522 169.284 132.314 170.099 132.314C171.394 132.314 172.393 132.728 173.096 133.554C173.805 134.38 174.159 135.549 174.159 137.061V137.922H167.945C168.01 138.707 168.271 139.328 168.728 139.785C169.19 140.242 169.771 140.471 170.468 140.471C171.446 140.471 172.243 140.075 172.858 139.284L174.01 140.383C173.629 140.951 173.119 141.394 172.48 141.71C171.848 142.021 171.136 142.176 170.345 142.176ZM170.09 134.028C169.504 134.028 169.029 134.233 168.666 134.644C168.309 135.054 168.08 135.625 167.98 136.357H172.05V136.199C172.003 135.484 171.812 134.945 171.479 134.582C171.145 134.213 170.682 134.028 170.09 134.028ZM181.155 139.416C181.155 139.035 180.997 138.745 180.681 138.546C180.37 138.347 179.852 138.171 179.125 138.019C178.398 137.866 177.792 137.673 177.306 137.438C176.239 136.923 175.706 136.176 175.706 135.197C175.706 134.377 176.052 133.691 176.743 133.141C177.435 132.59 178.313 132.314 179.38 132.314C180.517 132.314 181.434 132.596 182.131 133.158C182.834 133.721 183.186 134.45 183.186 135.347H181.05C181.05 134.937 180.897 134.597 180.593 134.327C180.288 134.052 179.884 133.914 179.38 133.914C178.911 133.914 178.527 134.022 178.229 134.239C177.936 134.456 177.789 134.746 177.789 135.109C177.789 135.438 177.927 135.692 178.202 135.874C178.478 136.056 179.034 136.24 179.872 136.428C180.71 136.609 181.366 136.829 181.841 137.087C182.321 137.339 182.676 137.644 182.904 138.001C183.139 138.358 183.256 138.792 183.256 139.302C183.256 140.157 182.901 140.852 182.192 141.385C181.483 141.912 180.555 142.176 179.406 142.176C178.627 142.176 177.933 142.035 177.323 141.754C176.714 141.473 176.239 141.086 175.899 140.594C175.56 140.102 175.39 139.571 175.39 139.003H177.464C177.493 139.507 177.684 139.896 178.035 140.172C178.387 140.441 178.853 140.576 179.433 140.576C179.995 140.576 180.423 140.471 180.716 140.26C181.009 140.043 181.155 139.762 181.155 139.416ZM190.454 139.416C190.454 139.035 190.296 138.745 189.979 138.546C189.669 138.347 189.15 138.171 188.424 138.019C187.697 137.866 187.091 137.673 186.604 137.438C185.538 136.923 185.005 136.176 185.005 135.197C185.005 134.377 185.351 133.691 186.042 133.141C186.733 132.59 187.612 132.314 188.679 132.314C189.815 132.314 190.732 132.596 191.43 133.158C192.133 133.721 192.484 134.45 192.484 135.347H190.349C190.349 134.937 190.196 134.597 189.892 134.327C189.587 134.052 189.183 133.914 188.679 133.914C188.21 133.914 187.826 134.022 187.527 134.239C187.234 134.456 187.088 134.746 187.088 135.109C187.088 135.438 187.226 135.692 187.501 135.874C187.776 136.056 188.333 136.24 189.171 136.428C190.009 136.609 190.665 136.829 191.14 137.087C191.62 137.339 191.975 137.644 192.203 138.001C192.438 138.358 192.555 138.792 192.555 139.302C192.555 140.157 192.2 140.852 191.491 141.385C190.782 141.912 189.854 142.176 188.705 142.176C187.926 142.176 187.231 142.035 186.622 141.754C186.013 141.473 185.538 141.086 185.198 140.594C184.858 140.102 184.688 139.571 184.688 139.003H186.763C186.792 139.507 186.982 139.896 187.334 140.172C187.686 140.441 188.151 140.576 188.731 140.576C189.294 140.576 189.722 140.471 190.015 140.26C190.308 140.043 190.454 139.762 190.454 139.416ZM194.022 137.157C194.022 136.226 194.207 135.388 194.576 134.644C194.945 133.894 195.464 133.319 196.132 132.921C196.8 132.517 197.567 132.314 198.435 132.314C199.718 132.314 200.758 132.728 201.555 133.554C202.357 134.38 202.791 135.476 202.855 136.841L202.864 137.342C202.864 138.279 202.683 139.117 202.319 139.855C201.962 140.594 201.446 141.165 200.772 141.569C200.104 141.974 199.331 142.176 198.452 142.176C197.11 142.176 196.035 141.73 195.227 140.84C194.424 139.943 194.022 138.751 194.022 137.263V137.157ZM196.158 137.342C196.158 138.32 196.36 139.088 196.765 139.645C197.169 140.195 197.731 140.471 198.452 140.471C199.173 140.471 199.732 140.189 200.131 139.627C200.535 139.064 200.737 138.241 200.737 137.157C200.737 136.196 200.529 135.435 200.113 134.872C199.703 134.31 199.144 134.028 198.435 134.028C197.737 134.028 197.184 134.307 196.773 134.863C196.363 135.414 196.158 136.24 196.158 137.342ZM210.353 142C210.259 141.818 210.177 141.522 210.106 141.112C209.427 141.821 208.595 142.176 207.61 142.176C206.655 142.176 205.876 141.903 205.272 141.358C204.669 140.813 204.367 140.14 204.367 139.337C204.367 138.323 204.742 137.547 205.492 137.008C206.248 136.463 207.326 136.19 208.727 136.19H210.036V135.566C210.036 135.074 209.898 134.682 209.623 134.389C209.348 134.09 208.929 133.94 208.366 133.94C207.88 133.94 207.481 134.063 207.171 134.31C206.86 134.55 206.705 134.857 206.705 135.232H204.569C204.569 134.711 204.742 134.225 205.088 133.773C205.434 133.316 205.902 132.959 206.494 132.701C207.092 132.443 207.757 132.314 208.489 132.314C209.603 132.314 210.49 132.596 211.152 133.158C211.814 133.715 212.154 134.5 212.172 135.514V139.803C212.172 140.658 212.292 141.341 212.532 141.851V142H210.353ZM208.006 140.462C208.428 140.462 208.823 140.359 209.192 140.154C209.567 139.949 209.849 139.674 210.036 139.328V137.535H208.885C208.094 137.535 207.499 137.673 207.101 137.948C206.702 138.224 206.503 138.613 206.503 139.117C206.503 139.527 206.638 139.855 206.907 140.102C207.183 140.342 207.549 140.462 208.006 140.462ZM219.739 139.416C219.739 139.035 219.581 138.745 219.265 138.546C218.954 138.347 218.436 138.171 217.709 138.019C216.982 137.866 216.376 137.673 215.89 137.438C214.823 136.923 214.29 136.176 214.29 135.197C214.29 134.377 214.636 133.691 215.327 133.141C216.019 132.59 216.897 132.314 217.964 132.314C219.101 132.314 220.018 132.596 220.715 133.158C221.418 133.721 221.77 134.45 221.77 135.347H219.634C219.634 134.937 219.481 134.597 219.177 134.327C218.872 134.052 218.468 133.914 217.964 133.914C217.495 133.914 217.111 134.022 216.812 134.239C216.52 134.456 216.373 134.746 216.373 135.109C216.373 135.438 216.511 135.692 216.786 135.874C217.062 136.056 217.618 136.24 218.456 136.428C219.294 136.609 219.95 136.829 220.425 137.087C220.905 137.339 221.26 137.644 221.488 138.001C221.723 138.358 221.84 138.792 221.84 139.302C221.84 140.157 221.485 140.852 220.776 141.385C220.067 141.912 219.139 142.176 217.99 142.176C217.211 142.176 216.517 142.035 215.907 141.754C215.298 141.473 214.823 141.086 214.483 140.594C214.144 140.102 213.974 139.571 213.974 139.003H216.048C216.077 139.507 216.268 139.896 216.619 140.172C216.971 140.441 217.437 140.576 218.017 140.576C218.579 140.576 219.007 140.471 219.3 140.26C219.593 140.043 219.739 139.762 219.739 139.416Z" fill="#3A415D"/>
<path d="M96.7402 178.021H91.7832L90.7461 181H88.4346L93.2686 168.203H95.2637L100.106 181H97.7861L96.7402 178.021ZM92.4072 176.228H96.1162L94.2617 170.919L92.4072 176.228ZM109.265 176.342C109.265 177.812 108.931 178.987 108.263 179.866C107.595 180.739 106.698 181.176 105.573 181.176C104.53 181.176 103.695 180.833 103.068 180.147V184.656H100.933V171.49H102.901L102.989 172.457C103.616 171.695 104.469 171.314 105.547 171.314C106.707 171.314 107.615 171.748 108.271 172.615C108.934 173.477 109.265 174.675 109.265 176.21V176.342ZM107.138 176.157C107.138 175.208 106.947 174.455 106.566 173.898C106.191 173.342 105.652 173.063 104.949 173.063C104.076 173.063 103.449 173.424 103.068 174.145V178.363C103.455 179.102 104.088 179.471 104.967 179.471C105.646 179.471 106.177 179.198 106.558 178.653C106.944 178.103 107.138 177.271 107.138 176.157ZM115.268 181.176C113.914 181.176 112.815 180.751 111.972 179.901C111.134 179.046 110.715 177.909 110.715 176.491V176.228C110.715 175.278 110.896 174.432 111.26 173.688C111.629 172.938 112.145 172.354 112.807 171.938C113.469 171.522 114.207 171.314 115.021 171.314C116.316 171.314 117.315 171.728 118.019 172.554C118.728 173.38 119.082 174.549 119.082 176.061V176.922H112.868C112.933 177.707 113.193 178.328 113.65 178.785C114.113 179.242 114.693 179.471 115.391 179.471C116.369 179.471 117.166 179.075 117.781 178.284L118.933 179.383C118.552 179.951 118.042 180.394 117.403 180.71C116.771 181.021 116.059 181.176 115.268 181.176ZM115.013 173.028C114.427 173.028 113.952 173.233 113.589 173.644C113.231 174.054 113.003 174.625 112.903 175.357H116.973V175.199C116.926 174.484 116.735 173.945 116.401 173.582C116.067 173.213 115.604 173.028 115.013 173.028ZM122.729 171.49L122.791 172.589C123.494 171.739 124.417 171.314 125.56 171.314C127.54 171.314 128.548 172.448 128.583 174.716V181H126.447V174.839C126.447 174.235 126.315 173.79 126.052 173.503C125.794 173.21 125.369 173.063 124.777 173.063C123.916 173.063 123.274 173.453 122.853 174.232V181H120.717V171.49H122.729ZM136.449 181C136.355 180.818 136.273 180.522 136.203 180.112C135.523 180.821 134.691 181.176 133.707 181.176C132.752 181.176 131.973 180.903 131.369 180.358C130.766 179.813 130.464 179.14 130.464 178.337C130.464 177.323 130.839 176.547 131.589 176.008C132.345 175.463 133.423 175.19 134.823 175.19H136.133V174.566C136.133 174.074 135.995 173.682 135.72 173.389C135.444 173.09 135.025 172.94 134.463 172.94C133.977 172.94 133.578 173.063 133.268 173.31C132.957 173.55 132.802 173.857 132.802 174.232H130.666C130.666 173.711 130.839 173.225 131.185 172.773C131.53 172.316 131.999 171.959 132.591 171.701C133.188 171.443 133.854 171.314 134.586 171.314C135.699 171.314 136.587 171.596 137.249 172.158C137.911 172.715 138.251 173.5 138.269 174.514V178.803C138.269 179.658 138.389 180.341 138.629 180.851V181H136.449ZM134.103 179.462C134.524 179.462 134.92 179.359 135.289 179.154C135.664 178.949 135.945 178.674 136.133 178.328V176.535H134.981C134.19 176.535 133.596 176.673 133.197 176.948C132.799 177.224 132.6 177.613 132.6 178.117C132.6 178.527 132.734 178.855 133.004 179.102C133.279 179.342 133.646 179.462 134.103 179.462ZM145.836 178.416C145.836 178.035 145.678 177.745 145.361 177.546C145.051 177.347 144.532 177.171 143.806 177.019C143.079 176.866 142.473 176.673 141.986 176.438C140.92 175.923 140.387 175.176 140.387 174.197C140.387 173.377 140.732 172.691 141.424 172.141C142.115 171.59 142.994 171.314 144.061 171.314C145.197 171.314 146.114 171.596 146.812 172.158C147.515 172.721 147.866 173.45 147.866 174.347H145.73C145.73 173.937 145.578 173.597 145.273 173.327C144.969 173.052 144.564 172.914 144.061 172.914C143.592 172.914 143.208 173.022 142.909 173.239C142.616 173.456 142.47 173.746 142.47 174.109C142.47 174.438 142.607 174.692 142.883 174.874C143.158 175.056 143.715 175.24 144.553 175.428C145.391 175.609 146.047 175.829 146.521 176.087C147.002 176.339 147.356 176.644 147.585 177.001C147.819 177.358 147.937 177.792 147.937 178.302C147.937 179.157 147.582 179.852 146.873 180.385C146.164 180.912 145.235 181.176 144.087 181.176C143.308 181.176 142.613 181.035 142.004 180.754C141.395 180.473 140.92 180.086 140.58 179.594C140.24 179.102 140.07 178.571 140.07 178.003H142.145C142.174 178.507 142.364 178.896 142.716 179.172C143.067 179.441 143.533 179.576 144.113 179.576C144.676 179.576 145.104 179.471 145.396 179.26C145.689 179.043 145.836 178.762 145.836 178.416ZM156.717 179.225H162.526V181H154.493V168.203H156.717V179.225ZM166.297 181H164.161V171.49H166.297V181ZM164.029 169.021C164.029 168.692 164.132 168.42 164.337 168.203C164.548 167.986 164.847 167.878 165.233 167.878C165.62 167.878 165.919 167.986 166.13 168.203C166.341 168.42 166.446 168.692 166.446 169.021C166.446 169.343 166.341 169.612 166.13 169.829C165.919 170.04 165.62 170.146 165.233 170.146C164.847 170.146 164.548 170.04 164.337 169.829C164.132 169.612 164.029 169.343 164.029 169.021ZM170.612 171.49L170.674 172.589C171.377 171.739 172.3 171.314 173.442 171.314C175.423 171.314 176.431 172.448 176.466 174.716V181H174.33V174.839C174.33 174.235 174.198 173.79 173.935 173.503C173.677 173.21 173.252 173.063 172.66 173.063C171.799 173.063 171.157 173.453 170.735 174.232V181H168.6V171.49H170.612ZM182.838 181.176C181.484 181.176 180.386 180.751 179.542 179.901C178.704 179.046 178.285 177.909 178.285 176.491V176.228C178.285 175.278 178.467 174.432 178.83 173.688C179.199 172.938 179.715 172.354 180.377 171.938C181.039 171.522 181.777 171.314 182.592 171.314C183.887 171.314 184.886 171.728 185.589 172.554C186.298 173.38 186.652 174.549 186.652 176.061V176.922H180.438C180.503 177.707 180.764 178.328 181.221 178.785C181.684 179.242 182.264 179.471 182.961 179.471C183.939 179.471 184.736 179.075 185.352 178.284L186.503 179.383C186.122 179.951 185.612 180.394 184.974 180.71C184.341 181.021 183.629 181.176 182.838 181.176ZM182.583 173.028C181.997 173.028 181.522 173.233 181.159 173.644C180.802 174.054 180.573 174.625 180.474 175.357H184.543V175.199C184.496 174.484 184.306 173.945 183.972 173.582C183.638 173.213 183.175 173.028 182.583 173.028ZM194 181C193.906 180.818 193.824 180.522 193.754 180.112C193.074 180.821 192.242 181.176 191.258 181.176C190.303 181.176 189.523 180.903 188.92 180.358C188.316 179.813 188.015 179.14 188.015 178.337C188.015 177.323 188.39 176.547 189.14 176.008C189.896 175.463 190.974 175.19 192.374 175.19H193.684V174.566C193.684 174.074 193.546 173.682 193.271 173.389C192.995 173.09 192.576 172.94 192.014 172.94C191.527 172.94 191.129 173.063 190.818 173.31C190.508 173.55 190.353 173.857 190.353 174.232H188.217C188.217 173.711 188.39 173.225 188.735 172.773C189.081 172.316 189.55 171.959 190.142 171.701C190.739 171.443 191.404 171.314 192.137 171.314C193.25 171.314 194.138 171.596 194.8 172.158C195.462 172.715 195.802 173.5 195.819 174.514V178.803C195.819 179.658 195.939 180.341 196.18 180.851V181H194ZM191.653 179.462C192.075 179.462 192.471 179.359 192.84 179.154C193.215 178.949 193.496 178.674 193.684 178.328V176.535H192.532C191.741 176.535 191.146 176.673 190.748 176.948C190.35 177.224 190.15 177.613 190.15 178.117C190.15 178.527 190.285 178.855 190.555 179.102C190.83 179.342 191.196 179.462 191.653 179.462ZM203.035 173.441C202.754 173.395 202.464 173.371 202.165 173.371C201.187 173.371 200.527 173.746 200.188 174.496V181H198.052V171.49H200.091L200.144 172.554C200.659 171.728 201.374 171.314 202.288 171.314C202.593 171.314 202.845 171.355 203.044 171.438L203.035 173.441ZM207.5 169.179V171.49H209.179V173.072H207.5V178.381C207.5 178.744 207.57 179.008 207.711 179.172C207.857 179.33 208.115 179.409 208.484 179.409C208.73 179.409 208.979 179.38 209.231 179.321V180.974C208.745 181.108 208.276 181.176 207.825 181.176C206.185 181.176 205.364 180.271 205.364 178.46V173.072H203.8V171.49H205.364V169.179H207.5Z" fill="#3A415D"/>
<path d="M91.7494 216.225H97.559V218H89.5258V205.203H91.7494V216.225ZM100.699 218H98.5637V208.49H100.699V218ZM98.4319 206.021C98.4319 205.692 98.5345 205.42 98.7395 205.203C98.9505 204.986 99.2493 204.878 99.636 204.878C100.023 204.878 100.322 204.986 100.532 205.203C100.743 205.42 100.849 205.692 100.849 206.021C100.849 206.343 100.743 206.612 100.532 206.829C100.322 207.04 100.023 207.146 99.636 207.146C99.2493 207.146 98.9505 207.04 98.7395 206.829C98.5345 206.612 98.4319 206.343 98.4319 206.021ZM104.385 208.49L104.446 209.589C105.15 208.739 106.072 208.314 107.215 208.314C109.195 208.314 110.203 209.448 110.238 211.716V218H108.103V211.839C108.103 211.235 107.971 210.79 107.707 210.503C107.449 210.21 107.025 210.063 106.433 210.063C105.571 210.063 104.93 210.453 104.508 211.232V218H102.372V208.49H104.385ZM113.897 209.527C114.595 208.719 115.477 208.314 116.543 208.314C118.57 208.314 119.599 209.472 119.628 211.786V218H117.492V211.865C117.492 211.209 117.349 210.746 117.062 210.477C116.78 210.201 116.364 210.063 115.814 210.063C114.958 210.063 114.319 210.444 113.897 211.206V218H111.762V204.5H113.897V209.527ZM126.847 218C126.753 217.818 126.671 217.522 126.601 217.112C125.921 217.821 125.089 218.176 124.104 218.176C123.149 218.176 122.37 217.903 121.767 217.358C121.163 216.813 120.861 216.14 120.861 215.337C120.861 214.323 121.236 213.547 121.986 213.008C122.742 212.463 123.82 212.19 125.221 212.19H126.53V211.566C126.53 211.074 126.392 210.682 126.117 210.389C125.842 210.09 125.423 209.94 124.86 209.94C124.374 209.94 123.976 210.063 123.665 210.31C123.354 210.55 123.199 210.857 123.199 211.232H121.063C121.063 210.711 121.236 210.225 121.582 209.773C121.928 209.316 122.396 208.959 122.988 208.701C123.586 208.443 124.251 208.314 124.983 208.314C126.097 208.314 126.984 208.596 127.646 209.158C128.309 209.715 128.648 210.5 128.666 211.514V215.803C128.666 216.658 128.786 217.341 129.026 217.851V218H126.847ZM124.5 216.462C124.922 216.462 125.317 216.359 125.686 216.154C126.061 215.949 126.343 215.674 126.53 215.328V213.535H125.379C124.588 213.535 123.993 213.673 123.595 213.948C123.196 214.224 122.997 214.613 122.997 215.117C122.997 215.527 123.132 215.855 123.401 216.102C123.677 216.342 124.043 216.462 124.5 216.462ZM138.313 218.176C136.96 218.176 135.861 217.751 135.017 216.901C134.179 216.046 133.76 214.909 133.76 213.491V213.228C133.76 212.278 133.942 211.432 134.305 210.688C134.674 209.938 135.19 209.354 135.852 208.938C136.514 208.522 137.253 208.314 138.067 208.314C139.362 208.314 140.361 208.728 141.064 209.554C141.773 210.38 142.128 211.549 142.128 213.061V213.922H135.914C135.978 214.707 136.239 215.328 136.696 215.785C137.159 216.242 137.739 216.471 138.436 216.471C139.415 216.471 140.212 216.075 140.827 215.284L141.978 216.383C141.597 216.951 141.088 217.394 140.449 217.71C139.816 218.021 139.104 218.176 138.313 218.176ZM138.058 210.028C137.472 210.028 136.998 210.233 136.634 210.644C136.277 211.054 136.049 211.625 135.949 212.357H140.018V212.199C139.971 211.484 139.781 210.945 139.447 210.582C139.113 210.213 138.65 210.028 138.058 210.028ZM150.922 216.471C151.456 216.471 151.898 216.315 152.249 216.005C152.601 215.694 152.789 215.311 152.812 214.854H154.825C154.801 215.445 154.617 215.999 154.271 216.515C153.925 217.024 153.456 217.429 152.865 217.728C152.273 218.026 151.634 218.176 150.949 218.176C149.619 218.176 148.564 217.745 147.785 216.884C147.005 216.022 146.616 214.833 146.616 213.315V213.096C146.616 211.648 147.002 210.491 147.776 209.624C148.549 208.751 149.604 208.314 150.94 208.314C152.071 208.314 152.991 208.646 153.7 209.308C154.414 209.964 154.789 210.828 154.825 211.9H152.812C152.789 211.355 152.601 210.907 152.249 210.556C151.904 210.204 151.461 210.028 150.922 210.028C150.231 210.028 149.698 210.28 149.323 210.784C148.948 211.282 148.757 212.041 148.751 213.061V213.403C148.751 214.435 148.936 215.205 149.305 215.715C149.68 216.219 150.219 216.471 150.922 216.471ZM155.408 213.157C155.408 212.226 155.592 211.388 155.961 210.644C156.33 209.894 156.849 209.319 157.517 208.921C158.185 208.517 158.952 208.314 159.82 208.314C161.103 208.314 162.143 208.728 162.94 209.554C163.743 210.38 164.176 211.476 164.241 212.841L164.249 213.342C164.249 214.279 164.068 215.117 163.704 215.855C163.347 216.594 162.831 217.165 162.158 217.569C161.49 217.974 160.716 218.176 159.837 218.176C158.495 218.176 157.42 217.73 156.612 216.84C155.809 215.943 155.408 214.751 155.408 213.263V213.157ZM157.543 213.342C157.543 214.32 157.745 215.088 158.15 215.645C158.554 216.195 159.117 216.471 159.837 216.471C160.558 216.471 161.118 216.189 161.516 215.627C161.92 215.064 162.122 214.241 162.122 213.157C162.122 212.196 161.914 211.435 161.498 210.872C161.088 210.31 160.529 210.028 159.82 210.028C159.122 210.028 158.569 210.307 158.159 210.863C157.748 211.414 157.543 212.24 157.543 213.342ZM167.407 208.49L167.469 209.589C168.172 208.739 169.095 208.314 170.237 208.314C172.218 208.314 173.226 209.448 173.261 211.716V218H171.125V211.839C171.125 211.235 170.993 210.79 170.73 210.503C170.472 210.21 170.047 210.063 169.455 210.063C168.594 210.063 167.952 210.453 167.53 211.232V218H165.395V208.49H167.407ZM177.491 206.179V208.49H179.17V210.072H177.491V215.381C177.491 215.744 177.562 216.008 177.702 216.172C177.849 216.33 178.107 216.409 178.476 216.409C178.722 216.409 178.971 216.38 179.223 216.321V217.974C178.736 218.108 178.268 218.176 177.816 218.176C176.176 218.176 175.356 217.271 175.356 215.46V210.072H173.791V208.49H175.356V206.179H177.491ZM179.516 213.157C179.516 212.226 179.7 211.388 180.069 210.644C180.438 209.894 180.957 209.319 181.625 208.921C182.293 208.517 183.061 208.314 183.928 208.314C185.211 208.314 186.251 208.728 187.048 209.554C187.851 210.38 188.284 211.476 188.349 212.841L188.357 213.342C188.357 214.279 188.176 215.117 187.812 215.855C187.455 216.594 186.939 217.165 186.266 217.569C185.598 217.974 184.824 218.176 183.945 218.176C182.603 218.176 181.528 217.73 180.72 216.84C179.917 215.943 179.516 214.751 179.516 213.263V213.157ZM181.651 213.342C181.651 214.32 181.853 215.088 182.258 215.645C182.662 216.195 183.225 216.471 183.945 216.471C184.666 216.471 185.226 216.189 185.624 215.627C186.028 215.064 186.23 214.241 186.23 213.157C186.23 212.196 186.022 211.435 185.606 210.872C185.196 210.31 184.637 210.028 183.928 210.028C183.23 210.028 182.677 210.307 182.267 210.863C181.856 211.414 181.651 212.24 181.651 213.342ZM194.513 210.441C194.231 210.395 193.941 210.371 193.642 210.371C192.664 210.371 192.005 210.746 191.665 211.496V218H189.529V208.49H191.568L191.621 209.554C192.137 208.728 192.851 208.314 193.765 208.314C194.07 208.314 194.322 208.355 194.521 208.438L194.513 210.441ZM197.214 208.49L197.275 209.589C197.978 208.739 198.901 208.314 200.044 208.314C202.024 208.314 203.032 209.448 203.067 211.716V218H200.931V211.839C200.931 211.235 200.8 210.79 200.536 210.503C200.278 210.21 199.853 210.063 199.261 210.063C198.4 210.063 197.759 210.453 197.337 211.232V218H195.201V208.49H197.214ZM204.221 213.157C204.221 212.226 204.406 211.388 204.775 210.644C205.144 209.894 205.663 209.319 206.331 208.921C206.999 208.517 207.766 208.314 208.633 208.314C209.917 208.314 210.957 208.728 211.754 209.554C212.556 210.38 212.99 211.476 213.054 212.841L213.063 213.342C213.063 214.279 212.881 215.117 212.518 215.855C212.161 216.594 211.645 217.165 210.971 217.569C210.303 217.974 209.53 218.176 208.651 218.176C207.309 218.176 206.234 217.73 205.425 216.84C204.623 215.943 204.221 214.751 204.221 213.263V213.157ZM206.357 213.342C206.357 214.32 206.559 215.088 206.963 215.645C207.368 216.195 207.93 216.471 208.651 216.471C209.372 216.471 209.931 216.189 210.33 215.627C210.734 215.064 210.936 214.241 210.936 213.157C210.936 212.196 210.728 211.435 210.312 210.872C209.902 210.31 209.342 210.028 208.633 210.028C207.936 210.028 207.382 210.307 206.972 210.863C206.562 211.414 206.357 212.24 206.357 213.342Z" fill="#3A415D"/>
<path d="M54.9512 256.865H48.9658V262.086H55.8477V263H47.8848V250.203H55.8037V251.126H48.9658V255.951H54.9512V256.865ZM58.8887 253.49L58.9238 255.116C59.2812 254.53 59.7266 254.085 60.2598 253.78C60.793 253.47 61.3818 253.314 62.0264 253.314C63.0459 253.314 63.8047 253.602 64.3027 254.176C64.8008 254.75 65.0527 255.611 65.0586 256.76V263H64.0127V256.751C64.0068 255.901 63.8252 255.269 63.4678 254.853C63.1162 254.437 62.5508 254.229 61.7715 254.229C61.1211 254.229 60.5439 254.434 60.04 254.844C59.542 255.248 59.1729 255.796 58.9326 256.487V263H57.8867V253.49H58.8887ZM69.418 251.056V253.49H71.3867V254.352H69.418V260.688C69.418 261.216 69.5117 261.608 69.6992 261.866C69.8926 262.124 70.2119 262.253 70.6572 262.253C70.833 262.253 71.1172 262.224 71.5098 262.165L71.5537 263.026C71.2783 263.126 70.9033 263.176 70.4287 263.176C69.708 263.176 69.1836 262.968 68.8555 262.552C68.5273 262.13 68.3633 261.512 68.3633 260.697V254.352H66.6143V253.49H68.3633V251.056H69.418ZM77.9609 254.387C77.7383 254.346 77.501 254.325 77.249 254.325C76.5928 254.325 76.0361 254.51 75.5791 254.879C75.1279 255.242 74.8057 255.772 74.6123 256.47V263H73.5664V253.49H74.5947L74.6123 255.002C75.1689 253.877 76.0625 253.314 77.293 253.314C77.5859 253.314 77.8174 253.353 77.9873 253.429L77.9609 254.387ZM83.1377 263.176C82.3291 263.176 81.5967 262.977 80.9404 262.578C80.29 262.18 79.7832 261.626 79.4199 260.917C79.0566 260.202 78.875 259.402 78.875 258.518V258.14C78.875 257.226 79.0508 256.402 79.4023 255.67C79.7598 254.938 80.2549 254.363 80.8877 253.947C81.5205 253.525 82.2061 253.314 82.9443 253.314C84.0986 253.314 85.0127 253.71 85.6865 254.501C86.3662 255.286 86.7061 256.361 86.7061 257.727V258.315H79.9209V258.518C79.9209 259.596 80.2285 260.495 80.8438 261.216C81.4648 261.931 82.2441 262.288 83.1816 262.288C83.7441 262.288 84.2393 262.186 84.667 261.98C85.1006 261.775 85.4932 261.447 85.8447 260.996L86.5039 261.497C85.7305 262.616 84.6084 263.176 83.1377 263.176ZM82.9443 254.211C82.1533 254.211 81.4854 254.501 80.9404 255.081C80.4014 255.661 80.0732 256.44 79.9561 257.419H85.6602V257.305C85.6309 256.391 85.3701 255.646 84.8779 255.072C84.3857 254.498 83.7412 254.211 82.9443 254.211ZM88.332 258.157C88.332 256.669 88.6602 255.491 89.3164 254.624C89.9785 253.751 90.875 253.314 92.0059 253.314C93.3008 253.314 94.2852 253.83 94.959 254.861L95.0117 253.49H95.9961V262.807C95.9961 264.031 95.6533 265.001 94.9678 265.716C94.2822 266.431 93.3535 266.788 92.1816 266.788C91.5195 266.788 90.8867 266.639 90.2832 266.34C89.6855 266.047 89.2139 265.654 88.8682 265.162L89.457 264.529C90.2012 265.443 91.0859 265.9 92.1113 265.9C92.9902 265.9 93.6758 265.64 94.168 265.118C94.6602 264.603 94.915 263.885 94.9326 262.965V261.77C94.2588 262.707 93.2773 263.176 91.9883 263.176C90.8867 263.176 90.002 262.736 89.334 261.857C88.666 260.979 88.332 259.792 88.332 258.298V258.157ZM89.3955 258.342C89.3955 259.555 89.6387 260.513 90.125 261.216C90.6113 261.913 91.2969 262.262 92.1816 262.262C93.4766 262.262 94.3936 261.682 94.9326 260.521V256.101C94.6865 255.491 94.332 255.028 93.8691 254.712C93.4062 254.39 92.8496 254.229 92.1992 254.229C91.3145 254.229 90.626 254.577 90.1338 255.274C89.6416 255.966 89.3955 256.988 89.3955 258.342ZM104.741 263C104.636 262.701 104.568 262.259 104.539 261.673C104.17 262.153 103.698 262.525 103.124 262.789C102.556 263.047 101.952 263.176 101.313 263.176C100.399 263.176 99.6582 262.921 99.0898 262.411C98.5273 261.901 98.2461 261.257 98.2461 260.478C98.2461 259.552 98.6299 258.819 99.3975 258.28C100.171 257.741 101.246 257.472 102.623 257.472H104.53V256.391C104.53 255.711 104.319 255.178 103.897 254.791C103.481 254.398 102.872 254.202 102.069 254.202C101.337 254.202 100.73 254.39 100.25 254.765C99.7695 255.14 99.5293 255.591 99.5293 256.118L98.4746 256.109C98.4746 255.354 98.8262 254.7 99.5293 254.149C100.232 253.593 101.097 253.314 102.122 253.314C103.183 253.314 104.018 253.581 104.627 254.114C105.242 254.642 105.559 255.38 105.576 256.329V260.829C105.576 261.749 105.673 262.438 105.866 262.895V263H104.741ZM101.437 262.244C102.14 262.244 102.767 262.074 103.317 261.734C103.874 261.395 104.278 260.94 104.53 260.372V258.28H102.649C101.601 258.292 100.78 258.485 100.188 258.86C99.5967 259.229 99.3008 259.739 99.3008 260.39C99.3008 260.923 99.4971 261.365 99.8896 261.717C100.288 262.068 100.804 262.244 101.437 262.244ZM116.448 263.176C115.64 263.176 114.907 262.977 114.251 262.578C113.601 262.18 113.094 261.626 112.73 260.917C112.367 260.202 112.186 259.402 112.186 258.518V258.14C112.186 257.226 112.361 256.402 112.713 255.67C113.07 254.938 113.565 254.363 114.198 253.947C114.831 253.525 115.517 253.314 116.255 253.314C117.409 253.314 118.323 253.71 118.997 254.501C119.677 255.286 120.017 256.361 120.017 257.727V258.315H113.231V258.518C113.231 259.596 113.539 260.495 114.154 261.216C114.775 261.931 115.555 262.288 116.492 262.288C117.055 262.288 117.55 262.186 117.978 261.98C118.411 261.775 118.804 261.447 119.155 260.996L119.814 261.497C119.041 262.616 117.919 263.176 116.448 263.176ZM116.255 254.211C115.464 254.211 114.796 254.501 114.251 255.081C113.712 255.661 113.384 256.44 113.267 257.419H118.971V257.305C118.941 256.391 118.681 255.646 118.188 255.072C117.696 254.498 117.052 254.211 116.255 254.211ZM123.022 253.49L123.058 255.037C123.409 254.463 123.849 254.032 124.376 253.745C124.903 253.458 125.489 253.314 126.134 253.314C127.634 253.314 128.586 253.93 128.99 255.16C129.33 254.568 129.784 254.114 130.353 253.798C130.921 253.476 131.548 253.314 132.233 253.314C134.272 253.314 135.312 254.428 135.354 256.654V263H134.299V256.733C134.293 255.884 134.108 255.254 133.745 254.844C133.388 254.434 132.802 254.229 131.987 254.229C131.231 254.24 130.593 254.486 130.071 254.967C129.55 255.441 129.26 256.021 129.201 256.707V263H128.146V256.654C128.141 255.84 127.947 255.233 127.566 254.835C127.191 254.431 126.611 254.229 125.826 254.229C125.164 254.229 124.596 254.419 124.121 254.8C123.646 255.175 123.295 255.734 123.066 256.479V263H122.012V253.49H123.022ZM150.251 263H142.235V262.191L146.621 257.217C147.348 256.379 147.852 255.688 148.133 255.143C148.414 254.598 148.555 254.067 148.555 253.552C148.555 252.743 148.317 252.104 147.843 251.636C147.368 251.161 146.715 250.924 145.883 250.924C145.021 250.924 144.324 251.199 143.791 251.75C143.264 252.301 143 253.016 143 253.895H141.954C141.954 253.174 142.115 252.518 142.438 251.926C142.766 251.334 143.229 250.871 143.826 250.537C144.43 250.197 145.115 250.027 145.883 250.027C147.055 250.027 147.969 250.335 148.625 250.95C149.287 251.565 149.618 252.403 149.618 253.464C149.618 254.062 149.431 254.715 149.056 255.424C148.687 256.133 148.033 257.018 147.096 258.078L143.527 262.112H150.251V263ZM156.342 258.157C156.342 256.681 156.67 255.506 157.326 254.633C157.988 253.754 158.885 253.314 160.016 253.314C161.299 253.314 162.277 253.821 162.951 254.835V249.5H163.997V263H163.013L162.969 261.734C162.295 262.695 161.305 263.176 159.998 263.176C158.902 263.176 158.018 262.736 157.344 261.857C156.676 260.973 156.342 259.78 156.342 258.28V258.157ZM157.405 258.342C157.405 259.555 157.648 260.513 158.135 261.216C158.621 261.913 159.307 262.262 160.191 262.262C161.486 262.262 162.406 261.69 162.951 260.548V256.083C162.406 254.847 161.492 254.229 160.209 254.229C159.324 254.229 158.636 254.577 158.144 255.274C157.651 255.966 157.405 256.988 157.405 258.342ZM167.943 263H166.889V253.49H167.943V263ZM166.704 250.739C166.704 250.54 166.769 250.373 166.897 250.238C167.026 250.098 167.202 250.027 167.425 250.027C167.647 250.027 167.823 250.098 167.952 250.238C168.087 250.373 168.154 250.54 168.154 250.739C168.154 250.938 168.087 251.105 167.952 251.24C167.823 251.375 167.647 251.442 167.425 251.442C167.202 251.442 167.026 251.375 166.897 251.24C166.769 251.105 166.704 250.938 166.704 250.739ZM176.812 263C176.706 262.701 176.639 262.259 176.609 261.673C176.24 262.153 175.769 262.525 175.194 262.789C174.626 263.047 174.022 263.176 173.384 263.176C172.47 263.176 171.729 262.921 171.16 262.411C170.598 261.901 170.316 261.257 170.316 260.478C170.316 259.552 170.7 258.819 171.468 258.28C172.241 257.741 173.316 257.472 174.693 257.472H176.601V256.391C176.601 255.711 176.39 255.178 175.968 254.791C175.552 254.398 174.942 254.202 174.14 254.202C173.407 254.202 172.801 254.39 172.32 254.765C171.84 255.14 171.6 255.591 171.6 256.118L170.545 256.109C170.545 255.354 170.896 254.7 171.6 254.149C172.303 253.593 173.167 253.314 174.192 253.314C175.253 253.314 176.088 253.581 176.697 254.114C177.312 254.642 177.629 255.38 177.646 256.329V260.829C177.646 261.749 177.743 262.438 177.937 262.895V263H176.812ZM173.507 262.244C174.21 262.244 174.837 262.074 175.388 261.734C175.944 261.395 176.349 260.94 176.601 260.372V258.28H174.72C173.671 258.292 172.851 258.485 172.259 258.86C171.667 259.229 171.371 259.739 171.371 260.39C171.371 260.923 171.567 261.365 171.96 261.717C172.358 262.068 172.874 262.244 173.507 262.244ZM186.154 260.583C186.154 260.062 185.943 259.643 185.521 259.326C185.105 259.01 184.476 258.764 183.632 258.588C182.788 258.406 182.132 258.201 181.663 257.973C181.2 257.738 180.854 257.454 180.626 257.12C180.403 256.786 180.292 256.382 180.292 255.907C180.292 255.157 180.605 254.539 181.232 254.053C181.859 253.561 182.662 253.314 183.641 253.314C184.701 253.314 185.551 253.578 186.189 254.105C186.834 254.627 187.156 255.31 187.156 256.153H186.102C186.102 255.597 185.867 255.134 185.398 254.765C184.936 254.396 184.35 254.211 183.641 254.211C182.949 254.211 182.393 254.366 181.971 254.677C181.555 254.981 181.347 255.38 181.347 255.872C181.347 256.347 181.52 256.716 181.865 256.979C182.217 257.237 182.853 257.475 183.772 257.691C184.698 257.908 185.39 258.14 185.847 258.386C186.31 258.632 186.652 258.928 186.875 259.273C187.098 259.619 187.209 260.038 187.209 260.53C187.209 261.333 186.884 261.975 186.233 262.455C185.589 262.936 184.745 263.176 183.702 263.176C182.595 263.176 181.695 262.909 181.004 262.376C180.318 261.837 179.976 261.157 179.976 260.337H181.03C181.071 260.952 181.329 261.433 181.804 261.778C182.284 262.118 182.917 262.288 183.702 262.288C184.435 262.288 185.026 262.127 185.478 261.805C185.929 261.482 186.154 261.075 186.154 260.583ZM200.076 261.796C199.443 262.716 198.433 263.176 197.044 263.176C196.03 263.176 195.26 262.883 194.732 262.297C194.205 261.705 193.936 260.832 193.924 259.678V253.49H194.97V259.546C194.97 261.356 195.702 262.262 197.167 262.262C198.69 262.262 199.654 261.632 200.059 260.372V253.49H201.113V263H200.094L200.076 261.796ZM198.679 249.5H199.953L197.923 251.961H197L198.679 249.5ZM205.49 251.056V253.49H207.459V254.352H205.49V260.688C205.49 261.216 205.584 261.608 205.771 261.866C205.965 262.124 206.284 262.253 206.729 262.253C206.905 262.253 207.189 262.224 207.582 262.165L207.626 263.026C207.351 263.126 206.976 263.176 206.501 263.176C205.78 263.176 205.256 262.968 204.928 262.552C204.6 262.13 204.436 261.512 204.436 260.697V254.352H202.687V253.49H204.436V251.056H205.49ZM213.321 263.176C212.513 263.176 211.78 262.977 211.124 262.578C210.474 262.18 209.967 261.626 209.604 260.917C209.24 260.202 209.059 259.402 209.059 258.518V258.14C209.059 257.226 209.234 256.402 209.586 255.67C209.943 254.938 210.438 254.363 211.071 253.947C211.704 253.525 212.39 253.314 213.128 253.314C214.282 253.314 215.196 253.71 215.87 254.501C216.55 255.286 216.89 256.361 216.89 257.727V258.315H210.104V258.518C210.104 259.596 210.412 260.495 211.027 261.216C211.648 261.931 212.428 262.288 213.365 262.288C213.928 262.288 214.423 262.186 214.851 261.98C215.284 261.775 215.677 261.447 216.028 260.996L216.688 261.497C215.914 262.616 214.792 263.176 213.321 263.176ZM213.128 254.211C212.337 254.211 211.669 254.501 211.124 255.081C210.585 255.661 210.257 256.44 210.14 257.419H215.844V257.305C215.814 256.391 215.554 255.646 215.062 255.072C214.569 254.498 213.925 254.211 213.128 254.211ZM220.115 263H219.061V253.49H220.115V263ZM218.876 250.739C218.876 250.54 218.94 250.373 219.069 250.238C219.198 250.098 219.374 250.027 219.597 250.027C219.819 250.027 219.995 250.098 220.124 250.238C220.259 250.373 220.326 250.54 220.326 250.739C220.326 250.938 220.259 251.105 220.124 251.24C219.995 251.375 219.819 251.442 219.597 251.442C219.374 251.442 219.198 251.375 219.069 251.24C218.94 251.105 218.876 250.938 218.876 250.739ZM228.676 260.583C228.676 260.062 228.465 259.643 228.043 259.326C227.627 259.01 226.997 258.764 226.153 258.588C225.31 258.406 224.653 258.201 224.185 257.973C223.722 257.738 223.376 257.454 223.147 257.12C222.925 256.786 222.813 256.382 222.813 255.907C222.813 255.157 223.127 254.539 223.754 254.053C224.381 253.561 225.184 253.314 226.162 253.314C227.223 253.314 228.072 253.578 228.711 254.105C229.355 254.627 229.678 255.31 229.678 256.153H228.623C228.623 255.597 228.389 255.134 227.92 254.765C227.457 254.396 226.871 254.211 226.162 254.211C225.471 254.211 224.914 254.366 224.492 254.677C224.076 254.981 223.868 255.38 223.868 255.872C223.868 256.347 224.041 256.716 224.387 256.979C224.738 257.237 225.374 257.475 226.294 257.691C227.22 257.908 227.911 258.14 228.368 258.386C228.831 258.632 229.174 258.928 229.396 259.273C229.619 259.619 229.73 260.038 229.73 260.53C229.73 261.333 229.405 261.975 228.755 262.455C228.11 262.936 227.267 263.176 226.224 263.176C225.116 263.176 224.217 262.909 223.525 262.376C222.84 261.837 222.497 261.157 222.497 260.337H223.552C223.593 260.952 223.851 261.433 224.325 261.778C224.806 262.118 225.438 262.288 226.224 262.288C226.956 262.288 227.548 262.127 227.999 261.805C228.45 261.482 228.676 261.075 228.676 260.583Z" fill="#3A415D"/>
<path d="M62 127L69.8775 132.689C70.4302 133.088 70.4302 133.912 69.8775 134.311L62 140" stroke="#535971" stroke-width="3" stroke-linecap="round"/>
<path d="M62 166L69.8775 171.689C70.4302 172.088 70.4302 172.912 69.8775 173.311L62 179" stroke="#535971" stroke-width="3" stroke-linecap="round"/>
<path d="M62 205L69.8775 210.689C70.4302 211.088 70.4302 211.912 69.8775 212.311L62 218" stroke="#535971" stroke-width="3" stroke-linecap="round"/>
<path d="M45 276L231 276" stroke="#3A415D" stroke-width="2" stroke-linecap="round"/>
<defs>
<filter id="filter0_d" x="0" y="0" width="276" height="356" filterUnits="userSpaceOnUse" color-interpolation-filters="sRGB">
<feFlood flood-opacity="0" result="BackgroundImageFix"/>
<feColorMatrix in="SourceAlpha" type="matrix" values="0 0 0 0 0 0 0 0 0 0 0 0 0 0 0 0 0 0 127 0" result="hardAlpha"/>
<feMorphology radius="1" operator="dilate" in="SourceAlpha" result="effect1_dropShadow"/>
<feOffset dy="4"/>
<feGaussianBlur stdDeviation="10"/>
<feComposite in2="hardAlpha" operator="out"/>
<feColorMatrix type="matrix" values="0 0 0 0 0.533333 0 0 0 0 0.533333 0 0 0 0 0.533333 0 0 0 0.25 0"/>
<feBlend mode="normal" in2="BackgroundImageFix" result="effect1_dropShadow"/>
<feBlend mode="normal" in="SourceGraphic" in2="effect1_dropShadow" result="shape"/>
</filter>
<filter id="filter1_d" x="0" y="0" width="276" height="121" filterUnits="userSpaceOnUse" color-interpolation-filters="sRGB">
<feFlood flood-opacity="0" result="BackgroundImageFix"/>
<feColorMatrix in="SourceAlpha" type="matrix" values="0 0 0 0 0 0 0 0 0 0 0 0 0 0 0 0 0 0 127 0" result="hardAlpha"/>
<feMorphology radius="1" operator="dilate" in="SourceAlpha" result="effect1_dropShadow"/>
<feOffset dy="4"/>
<feGaussianBlur stdDeviation="10"/>
<feComposite in2="hardAlpha" operator="out"/>
<feColorMatrix type="matrix" values="0 0 0 0 0.533333 0 0 0 0 0.533333 0 0 0 0 0.533333 0 0 0 0.25 0"/>
<feBlend mode="normal" in2="BackgroundImageFix" result="effect1_dropShadow"/>
<feBlend mode="normal" in="SourceGraphic" in2="effect1_dropShadow" result="shape"/>
</filter>
</defs>
</svg>
